<svg width="335" height="614" viewBox="0 0 335 614" fill="none" xmlns="http://www.w3.org/2000/svg">
<path d="M0 10C0 4.47715 4.47715 0 10 0H325C330.523 0 335 4.47715 335 10V307H0V10Z" fill="white"/>
<path d="M21.1291 55.528L24.5871 69.88L28.0451 55.528H30.3851L33.8431 69.88L37.3011 55.528H39.7971L35.1431 73H32.5431L29.2151 60.078L25.8871 73H23.2871L18.6331 55.528H21.1291ZM41.5411 58.05V55.528H43.8811V58.05H41.5411ZM41.5411 73V60.39H43.8811V73H41.5411ZM45.8102 60.39H47.8122V57.088H50.1522V60.39H53.2462V62.444H50.1522V69.958C50.1522 70.79 50.4642 70.972 51.3222 70.972H53.2462V73H51.0622C49.3462 73 47.8122 72.22 47.8122 70.192V62.444H45.8102V60.39ZM57.6217 73H55.3077V55.528H57.6217V61.924C58.4797 60.754 59.8577 60.052 61.6777 60.052C64.7977 60.052 66.6957 62.262 66.6957 65.538V73H64.3817V65.356C64.3817 63.068 63.3677 62.158 61.0537 62.158C58.7137 62.158 57.6217 63.068 57.6217 65.356V73ZM80.038 73.312C76.684 73.312 74.058 70.608 74.058 66.682C74.058 62.782 76.684 60.052 80.038 60.052C81.806 60.052 83.236 60.754 84.198 61.976V60.39H86.538V73H84.536L84.328 71.232C83.34 72.558 81.884 73.312 80.038 73.312ZM76.398 66.682C76.398 69.88 77.724 71.206 80.376 71.206C83.002 71.206 84.328 69.88 84.328 66.682C84.328 63.484 83.002 62.158 80.376 62.158C77.724 62.158 76.398 63.484 76.398 66.682Z" fill="#262626"/>
<path d="M102.21 69.542C102.21 68.658 101.664 68.294 100.364 67.982L98.2059 67.488C95.6839 66.89 94.3839 65.85 94.3839 63.666C94.3839 61.404 96.7499 59.974 99.5579 59.974C102.366 59.974 104.602 61.404 104.966 63.978H102.132C101.95 62.808 101.17 62.392 99.5579 62.392C97.9719 62.392 97.2439 62.834 97.2439 63.666C97.2439 64.368 97.5819 64.732 98.9079 65.044L101.144 65.616C103.718 66.24 105.044 67.176 105.044 69.464C105.044 72.012 102.574 73.364 99.6359 73.364C96.9059 73.364 94.3839 72.09 93.9679 69.048H96.8019C97.0619 70.556 97.8939 70.92 99.6359 70.92C101.326 70.92 102.21 70.478 102.21 69.542ZM109.95 73H107.116V60.312H109.586L109.768 61.716C110.522 60.598 111.588 59.974 113.096 59.974C114.838 59.974 116.034 60.91 116.684 62.288C117.438 60.832 118.634 59.974 120.376 59.974C123.08 59.974 124.51 62.002 124.51 65.148V73H121.676V64.888C121.676 63.302 121.13 62.496 119.466 62.496C117.828 62.496 117.23 63.302 117.23 64.888V64.966V73H114.396V64.888C114.396 63.302 113.85 62.496 112.186 62.496C110.548 62.496 109.95 63.302 109.95 64.888V73ZM127.227 58.362V55.528H130.113V58.362H127.227ZM127.227 73V60.312H130.113V73H127.227ZM136.219 73.26C134.217 73.26 132.943 72.454 132.943 70.296V55.528H135.829V69.802C135.829 70.634 136.089 70.816 136.843 70.816H137.337V73.26H136.219ZM150.74 69.308C149.882 71.856 147.516 73.364 144.708 73.364C141.042 73.364 138.208 70.686 138.208 66.63C138.208 62.626 141.042 59.974 144.63 59.974C147.828 59.974 150.974 62.184 150.974 66.682V67.488H141.094C141.302 70.01 142.394 70.816 144.708 70.816C146.476 70.816 147.334 70.4 147.854 69.308H150.74ZM141.146 65.356H148.14C147.906 63.302 146.866 62.496 144.63 62.496C142.524 62.496 141.432 63.224 141.146 65.356Z" fill="#FD312E"/>
<rect x="18" y="100" width="300" height="1" fill="#4A4946"/>
<circle cx="194" cy="101" r="10" fill="#FD312E"/>
<path d="M20.8161 134.528L24.2741 148.88L27.7321 134.528H30.0721L33.5301 148.88L36.9881 134.528H39.4841L34.8301 152H32.2301L28.9021 139.078L25.5741 152H22.9741L18.3201 134.528H20.8161ZM41.2281 137.05V134.528H43.5681V137.05H41.2281ZM41.2281 152V139.39H43.5681V152H41.2281ZM45.4972 139.39H47.4992V136.088H49.8392V139.39H52.9332V141.444H49.8392V148.958C49.8392 149.79 50.1512 149.972 51.0092 149.972H52.9332V152H50.7492C49.0332 152 47.4992 151.22 47.4992 149.192V141.444H45.4972V139.39ZM57.3087 152H54.9947V134.528H57.3087V140.924C58.1667 139.754 59.5447 139.052 61.3647 139.052C64.4847 139.052 66.3827 141.262 66.3827 144.538V152H64.0687V144.356C64.0687 142.068 63.0547 141.158 60.7407 141.158C58.4007 141.158 57.3087 142.068 57.3087 144.356V152ZM79.725 152.312C76.371 152.312 73.745 149.608 73.745 145.682C73.745 141.782 76.371 139.052 79.725 139.052C81.493 139.052 82.923 139.754 83.885 140.976V139.39H86.225V152H84.223L84.015 150.232C83.027 151.558 81.571 152.312 79.725 152.312ZM76.085 145.682C76.085 148.88 77.411 150.206 80.063 150.206C82.689 150.206 84.015 148.88 84.015 145.682C84.015 142.484 82.689 141.158 80.063 141.158C77.411 141.158 76.085 142.484 76.085 145.682Z" fill="#262626"/>
<path d="M94.4349 137.362V134.528H97.3209V137.362H94.4349ZM94.4349 152V139.312H97.3209V152H94.4349ZM108.808 144.33C108.808 142.302 107.976 141.496 105.922 141.496C103.868 141.496 102.984 142.302 102.984 144.33V152H100.15V139.312H102.62L102.828 140.872C103.738 139.676 105.09 138.974 106.832 138.974C109.77 138.974 111.668 141.184 111.668 144.382V152H108.808V144.33ZM121.833 148.542C121.833 147.658 121.287 147.294 119.987 146.982L117.829 146.488C115.307 145.89 114.007 144.85 114.007 142.666C114.007 140.404 116.373 138.974 119.181 138.974C121.989 138.974 124.225 140.404 124.589 142.978H121.755C121.573 141.808 120.793 141.392 119.181 141.392C117.595 141.392 116.867 141.834 116.867 142.666C116.867 143.368 117.205 143.732 118.531 144.044L120.767 144.616C123.341 145.24 124.667 146.176 124.667 148.464C124.667 151.012 122.197 152.364 119.259 152.364C116.529 152.364 114.007 151.09 113.591 148.048H116.425C116.685 149.556 117.517 149.92 119.259 149.92C120.949 149.92 121.833 149.478 121.833 148.542ZM126.739 137.362V134.528H129.625V137.362H126.739ZM126.739 152V139.312H129.625V152H126.739ZM137.68 151.896C134.3 151.896 131.674 149.296 131.674 145.396C131.674 141.548 134.3 138.974 137.68 138.974C139.37 138.974 140.748 139.598 141.71 140.716L141.892 139.312H144.44V151.428C144.336 154.756 141.84 157.044 138.174 157.044C134.794 157.044 132.688 155.354 131.986 152.936H135.028C135.522 154.158 136.276 154.652 138.304 154.652C140.436 154.652 141.554 153.638 141.554 151.87V150.336C140.592 151.35 139.266 151.896 137.68 151.896ZM134.534 145.396C134.534 148.308 135.652 149.348 138.096 149.348C140.566 149.348 141.684 148.308 141.684 145.396C141.684 142.536 140.566 141.496 138.096 141.496C135.652 141.496 134.534 142.536 134.534 145.396ZM150.119 152H147.285V134.528H150.119V140.664C151.029 139.598 152.355 138.974 154.045 138.974C157.035 138.974 158.933 141.184 158.933 144.382V152H156.073V144.33C156.073 142.302 155.241 141.496 153.109 141.496C151.003 141.496 150.119 142.302 150.119 144.33V152ZM160.593 139.312H162.517V136.088H165.403V139.312H168.445V141.834H165.403V148.542C165.403 149.374 165.715 149.556 166.573 149.556H168.445V152H166.261C164.259 152 162.517 151.116 162.517 148.802V141.834H160.593V139.312Z" fill="#FD312E"/>
<rect x="18" y="179" width="300" height="1" fill="#4A4946"/>
<circle cx="297" cy="180" r="10" fill="black"/>
<path d="M20.704 213.528L24.162 227.88L27.62 213.528H29.96L33.418 227.88L36.876 213.528H39.372L34.718 231H32.118L28.79 218.078L25.462 231H22.862L18.208 213.528H20.704ZM41.116 216.05V213.528H43.456V216.05H41.116ZM41.116 231V218.39H43.456V231H41.116ZM45.3851 218.39H47.3871V215.088H49.7271V218.39H52.8211V220.444H49.7271V227.958C49.7271 228.79 50.0391 228.972 50.8971 228.972H52.8211V231H50.6371C48.9211 231 47.3871 230.22 47.3871 228.192V220.444H45.3851V218.39ZM57.1966 231H54.8826V213.528H57.1966V219.924C58.0546 218.754 59.4326 218.052 61.2526 218.052C64.3726 218.052 66.2706 220.262 66.2706 223.538V231H63.9566V223.356C63.9566 221.068 62.9426 220.158 60.6286 220.158C58.2886 220.158 57.1966 221.068 57.1966 223.356V231ZM79.6129 231.312C76.2589 231.312 73.6329 228.608 73.6329 224.682C73.6329 220.782 76.2589 218.052 79.6129 218.052C81.3809 218.052 82.8109 218.754 83.7729 219.976V218.39H86.1129V231H84.1109L83.9029 229.232C82.9149 230.558 81.4589 231.312 79.6129 231.312ZM75.9729 224.682C75.9729 227.88 77.2989 229.206 79.9509 229.206C82.5769 229.206 83.9029 227.88 83.9029 224.682C83.9029 221.484 82.5769 220.158 79.9509 220.158C77.2989 220.158 75.9729 221.484 75.9729 224.682Z" fill="#262626"/>
<path d="M103.475 213.528H106.361V231H103.839L103.631 229.544C102.669 230.714 101.291 231.364 99.5748 231.364C96.1688 231.364 93.5428 228.634 93.5428 224.63C93.5428 220.678 96.1688 217.974 99.5748 217.974C101.187 217.974 102.513 218.546 103.475 219.586V213.528ZM96.4028 224.63C96.4028 227.646 97.4688 228.816 99.9908 228.816C102.539 228.816 103.605 227.646 103.605 224.63C103.605 221.666 102.539 220.496 99.9908 220.496C97.4688 220.496 96.4028 221.666 96.4028 224.63ZM120.982 227.308C120.124 229.856 117.758 231.364 114.95 231.364C111.284 231.364 108.45 228.686 108.45 224.63C108.45 220.626 111.284 217.974 114.872 217.974C118.07 217.974 121.216 220.184 121.216 224.682V225.488H111.336C111.544 228.01 112.636 228.816 114.95 228.816C116.718 228.816 117.576 228.4 118.096 227.308H120.982ZM111.388 223.356H118.382C118.148 221.302 117.108 220.496 114.872 220.496C112.766 220.496 111.674 221.224 111.388 223.356ZM130.76 227.542C130.76 226.658 130.214 226.294 128.914 225.982L126.756 225.488C124.234 224.89 122.934 223.85 122.934 221.666C122.934 219.404 125.3 217.974 128.108 217.974C130.916 217.974 133.152 219.404 133.516 221.978H130.682C130.5 220.808 129.72 220.392 128.108 220.392C126.522 220.392 125.794 220.834 125.794 221.666C125.794 222.368 126.132 222.732 127.458 223.044L129.694 223.616C132.268 224.24 133.594 225.176 133.594 227.464C133.594 230.012 131.124 231.364 128.186 231.364C125.456 231.364 122.934 230.09 122.518 227.048H125.352C125.612 228.556 126.444 228.92 128.186 228.92C129.876 228.92 130.76 228.478 130.76 227.542ZM135.666 216.362V213.528H138.552V216.362H135.666ZM135.666 231V218.312H138.552V231H135.666ZM146.607 230.896C143.227 230.896 140.601 228.296 140.601 224.396C140.601 220.548 143.227 217.974 146.607 217.974C148.297 217.974 149.675 218.598 150.637 219.716L150.819 218.312H153.367V230.428C153.263 233.756 150.767 236.044 147.101 236.044C143.721 236.044 141.615 234.354 140.913 231.936H143.955C144.449 233.158 145.203 233.652 147.231 233.652C149.363 233.652 150.481 232.638 150.481 230.87V229.336C149.519 230.35 148.193 230.896 146.607 230.896ZM143.461 224.396C143.461 227.308 144.579 228.348 147.023 228.348C149.493 228.348 150.611 227.308 150.611 224.396C150.611 221.536 149.493 220.496 147.023 220.496C144.579 220.496 143.461 221.536 143.461 224.396ZM164.87 223.33C164.87 221.302 164.038 220.496 161.984 220.496C159.93 220.496 159.046 221.302 159.046 223.33V231H156.212V218.312H158.682L158.89 219.872C159.8 218.676 161.152 217.974 162.894 217.974C165.832 217.974 167.73 220.184 167.73 223.382V231H164.87V223.33Z" fill="#FD312E"/>
<rect x="18" y="258" width="300" height="1" fill="#4A4946"/>
<circle cx="144" cy="259" r="10" fill="#F6F3EB"/>
<circle cx="144" cy="259" r="9.5" stroke="#7E7C77" stroke-opacity="0.5"/>
<path d="M0 307H335V604C335 609.523 330.523 614 325 614H9.99999C4.47714 614 0 609.523 0 604V307Z" fill="#262626"/>
<path d="M34.2325 403H31.4075V386.2H42.2825V388.7H34.2325V393.35H41.5325V395.825H34.2325V403ZM49.3878 403.35C45.8878 403.35 43.1878 400.75 43.1878 396.875C43.1878 393.075 45.8878 390.475 49.3878 390.475C52.9128 390.475 55.6128 393.075 55.6128 396.875C55.6128 400.75 52.9128 403.35 49.3878 403.35ZM45.9378 396.875C45.9378 399.75 47.0378 400.9 49.3878 400.9C51.7378 400.9 52.8628 399.75 52.8628 396.875C52.8628 394.05 51.7378 392.9 49.3878 392.9C47.0378 392.9 45.9378 394.05 45.9378 396.875ZM63.487 392.875C61.337 392.875 60.487 393.575 60.487 395.625V403H57.762V390.8H60.137L60.337 392.325C61.112 391.15 62.287 390.475 64.162 390.475H64.712V392.875H63.487ZM77.0083 403.35C73.7333 403.35 71.2083 400.725 71.2083 396.875C71.2083 393.075 73.7333 390.475 77.0083 390.475C78.5583 390.475 79.8333 391.025 80.7583 392.025V390.8H83.5333V403H81.1083L80.9083 401.6C79.9833 402.725 78.6583 403.35 77.0083 403.35ZM73.9583 396.875C73.9583 399.775 75.0083 400.9 77.4083 400.9C79.8333 400.9 80.8833 399.775 80.8833 396.875C80.8833 394.025 79.8333 392.9 77.4083 392.9C75.0083 392.9 73.9583 394.025 73.9583 396.875ZM94.8466 403.25C92.9216 403.25 91.6966 402.475 91.6966 400.4V386.2H94.4716V399.925C94.4716 400.725 94.7216 400.9 95.4466 400.9H95.9216V403.25H94.8466ZM103.109 403.35C99.6095 403.35 96.9095 400.75 96.9095 396.875C96.9095 393.075 99.6095 390.475 103.109 390.475C106.634 390.475 109.334 393.075 109.334 396.875C109.334 400.75 106.634 403.35 103.109 403.35ZM99.6595 396.875C99.6595 399.75 100.759 400.9 103.109 400.9C105.459 400.9 106.584 399.75 106.584 396.875C106.584 394.05 105.459 392.9 103.109 392.9C100.759 392.9 99.6595 394.05 99.6595 396.875ZM119.809 395.625C119.809 393.675 119.009 392.9 117.034 392.9C115.059 392.9 114.209 393.675 114.209 395.625V403H111.484V390.8H113.859L114.059 392.3C114.934 391.15 116.234 390.475 117.909 390.475C120.734 390.475 122.559 392.6 122.559 395.675V403H119.809V395.625ZM130.333 402.9C127.083 402.9 124.558 400.4 124.558 396.65C124.558 392.95 127.083 390.475 130.333 390.475C131.958 390.475 133.283 391.075 134.208 392.15L134.383 390.8H136.833V402.45C136.733 405.65 134.333 407.85 130.808 407.85C127.558 407.85 125.533 406.225 124.858 403.9H127.783C128.258 405.075 128.983 405.55 130.933 405.55C132.983 405.55 134.058 404.575 134.058 402.875V401.4C133.133 402.375 131.858 402.9 130.333 402.9ZM127.308 396.65C127.308 399.45 128.383 400.45 130.733 400.45C133.108 400.45 134.183 399.45 134.183 396.65C134.183 393.9 133.108 392.9 130.733 392.9C128.383 392.9 127.308 393.9 127.308 396.65ZM139.718 395.15H147.593V397.65H139.718V395.15ZM153.616 403.25C151.691 403.25 150.466 402.475 150.466 400.4V386.2H153.241V399.925C153.241 400.725 153.491 400.9 154.216 400.9H154.691V403.25H153.616ZM161.479 403.35C158.204 403.35 155.679 400.725 155.679 396.875C155.679 393.075 158.204 390.475 161.479 390.475C163.029 390.475 164.304 391.025 165.229 392.025V390.8H168.004V403H165.579L165.379 401.6C164.454 402.725 163.129 403.35 161.479 403.35ZM158.429 396.875C158.429 399.775 159.479 400.9 161.879 400.9C164.304 400.9 165.354 399.775 165.354 396.875C165.354 394.025 164.304 392.9 161.879 392.9C159.479 392.9 158.429 394.025 158.429 396.875ZM178.087 399.675C178.087 398.825 177.562 398.475 176.312 398.175L174.237 397.7C171.812 397.125 170.562 396.125 170.562 394.025C170.562 391.85 172.837 390.475 175.537 390.475C178.237 390.475 180.387 391.85 180.737 394.325H178.012C177.837 393.2 177.087 392.8 175.537 392.8C174.012 392.8 173.312 393.225 173.312 394.025C173.312 394.7 173.637 395.05 174.912 395.35L177.062 395.9C179.537 396.5 180.812 397.4 180.812 399.6C180.812 402.05 178.437 403.35 175.612 403.35C172.987 403.35 170.562 402.125 170.162 399.2H172.887C173.137 400.65 173.937 401 175.612 401C177.237 401 178.087 400.575 178.087 399.675ZM181.954 390.8H183.804V387.7H186.579V390.8H189.504V393.225H186.579V399.675C186.579 400.475 186.879 400.65 187.704 400.65H189.504V403H187.404C185.479 403 183.804 402.15 183.804 399.925V393.225H181.954V390.8ZM191.505 388.925V386.2H194.28V388.925H191.505ZM191.505 403V390.8H194.28V403H191.505ZM205.476 395.625C205.476 393.675 204.676 392.9 202.701 392.9C200.726 392.9 199.876 393.675 199.876 395.625V403H197.151V390.8H199.526L199.726 392.3C200.601 391.15 201.901 390.475 203.576 390.475C206.401 390.475 208.226 392.6 208.226 395.675V403H205.476V395.625ZM216 402.9C212.75 402.9 210.225 400.4 210.225 396.65C210.225 392.95 212.75 390.475 216 390.475C217.625 390.475 218.95 391.075 219.875 392.15L220.05 390.8H222.5V402.45C222.4 405.65 220 407.85 216.475 407.85C213.225 407.85 211.2 406.225 210.525 403.9H213.45C213.925 405.075 214.65 405.55 216.6 405.55C218.65 405.55 219.725 404.575 219.725 402.875V401.4C218.8 402.375 217.525 402.9 216 402.9ZM212.975 396.65C212.975 399.45 214.05 400.45 216.4 400.45C218.775 400.45 219.85 399.45 219.85 396.65C219.85 393.9 218.775 392.9 216.4 392.9C214.05 392.9 212.975 393.9 212.975 396.65ZM233.065 390.8L233.265 392.175C234.19 391.1 235.49 390.475 237.115 390.475C240.39 390.475 242.915 393.075 242.915 396.875C242.915 400.725 240.39 403.35 237.115 403.35C235.59 403.35 234.34 402.8 233.415 401.8V407.55H230.64V390.8H233.065ZM233.29 396.875C233.29 399.775 234.415 400.9 236.715 400.9C239.04 400.9 240.165 399.775 240.165 396.875C240.165 394.025 239.04 392.9 236.715 392.9C234.415 392.9 233.29 394.025 233.29 396.875ZM248.2 403.25C246.275 403.25 245.05 402.475 245.05 400.4V386.2H247.825V399.925C247.825 400.725 248.075 400.9 248.8 400.9H249.275V403.25H248.2ZM256.063 403.35C252.788 403.35 250.263 400.725 250.263 396.875C250.263 393.075 252.788 390.475 256.063 390.475C257.613 390.475 258.888 391.025 259.813 392.025V390.8H262.588V403H260.163L259.963 401.6C259.038 402.725 257.713 403.35 256.063 403.35ZM253.013 396.875C253.013 399.775 254.063 400.9 256.463 400.9C258.888 400.9 259.938 399.775 259.938 396.875C259.938 394.025 258.888 392.9 256.463 392.9C254.063 392.9 253.013 394.025 253.013 396.875ZM273.821 395.625C273.821 393.675 273.021 392.9 271.046 392.9C269.071 392.9 268.221 393.675 268.221 395.625V403H265.496V390.8H267.871L268.071 392.3C268.946 391.15 270.246 390.475 271.921 390.475C274.746 390.475 276.571 392.6 276.571 395.675V403H273.821V395.625ZM290.621 399.45C289.796 401.9 287.521 403.35 284.821 403.35C281.296 403.35 278.571 400.775 278.571 396.875C278.571 393.025 281.296 390.475 284.746 390.475C287.821 390.475 290.846 392.6 290.846 396.925V397.7H281.346C281.546 400.125 282.596 400.9 284.821 400.9C286.521 400.9 287.346 400.5 287.846 399.45H290.621ZM281.396 395.65H288.121C287.896 393.675 286.896 392.9 284.746 392.9C282.721 392.9 281.671 393.6 281.396 395.65ZM291.51 390.8H293.36V387.7H296.135V390.8H299.06V393.225H296.135V399.675C296.135 400.475 296.435 400.65 297.26 400.65H299.06V403H296.96C295.035 403 293.36 402.15 293.36 399.925V393.225H291.51V390.8ZM303.836 401.575L302.261 405.75H300.461L301.211 400.325H303.111C303.786 400.325 304.111 400.9 303.836 401.575ZM31.3979 424.8L33.5229 434L35.498 424.8H38.1979L35.123 437H32.2229L30.2479 428.725L28.2729 437H25.3979L22.2979 424.8H24.9979L26.9979 434.025L29.1229 424.8H31.3979ZM51.2339 433.45C50.4089 435.9 48.1339 437.35 45.4339 437.35C41.9089 437.35 39.1839 434.775 39.1839 430.875C39.1839 427.025 41.9089 424.475 45.3589 424.475C48.4339 424.475 51.4589 426.6 51.4589 430.925V431.7H41.9589C42.1589 434.125 43.2089 434.9 45.4339 434.9C47.1339 434.9 47.9589 434.5 48.4589 433.45H51.2339ZM42.0089 429.65H48.7339C48.5089 427.675 47.5089 426.9 45.3589 426.9C43.3339 426.9 42.2839 427.6 42.0089 429.65ZM67.6665 420.2H70.4415V437H68.0165L67.8165 435.6C66.8915 436.725 65.5665 437.35 63.9165 437.35C60.6415 437.35 58.1165 434.725 58.1165 430.875C58.1165 427.075 60.6415 424.475 63.9165 424.475C65.4665 424.475 66.7415 425.025 67.6665 426.025V420.2ZM60.8665 430.875C60.8665 433.775 61.8915 434.9 64.3165 434.9C66.7665 434.9 67.7915 433.775 67.7915 430.875C67.7915 428.025 66.7665 426.9 64.3165 426.9C61.8915 426.9 60.8665 428.025 60.8665 430.875ZM84.6499 433.45C83.8249 435.9 81.5499 437.35 78.8499 437.35C75.3249 437.35 72.5999 434.775 72.5999 430.875C72.5999 427.025 75.3249 424.475 78.7749 424.475C81.8499 424.475 84.8749 426.6 84.8749 430.925V431.7H75.3749C75.5749 434.125 76.6249 434.9 78.8499 434.9C80.5499 434.9 81.3749 434.5 81.8749 433.45H84.6499ZM75.4249 429.65H82.1499C81.9249 427.675 80.9249 426.9 78.7749 426.9C76.7499 426.9 75.6999 427.6 75.4249 429.65ZM94.2026 433.675C94.2026 432.825 93.6776 432.475 92.4276 432.175L90.3526 431.7C87.9276 431.125 86.6776 430.125 86.6776 428.025C86.6776 425.85 88.9526 424.475 91.6526 424.475C94.3526 424.475 96.5026 425.85 96.8526 428.325H94.1276C93.9526 427.2 93.2026 426.8 91.6526 426.8C90.1276 426.8 89.4276 427.225 89.4276 428.025C89.4276 428.7 89.7526 429.05 91.0276 429.35L93.1776 429.9C95.6526 430.5 96.9276 431.4 96.9276 433.6C96.9276 436.05 94.5526 437.35 91.7276 437.35C89.1026 437.35 86.6776 436.125 86.2776 433.2H89.0026C89.2526 434.65 90.0526 435 91.7276 435C93.3526 435 94.2026 434.575 94.2026 433.675ZM99.0696 422.925V420.2H101.845V422.925H99.0696ZM99.0696 437V424.8H101.845V437H99.0696ZM109.74 436.9C106.49 436.9 103.965 434.4 103.965 430.65C103.965 426.95 106.49 424.475 109.74 424.475C111.365 424.475 112.69 425.075 113.615 426.15L113.79 424.8H116.24V436.45C116.14 439.65 113.74 441.85 110.215 441.85C106.965 441.85 104.94 440.225 104.265 437.9H107.19C107.665 439.075 108.39 439.55 110.34 439.55C112.39 439.55 113.465 438.575 113.465 436.875V435.4C112.54 436.375 111.265 436.9 109.74 436.9ZM106.715 430.65C106.715 433.45 107.79 434.45 110.14 434.45C112.515 434.45 113.59 433.45 113.59 430.65C113.59 427.9 112.515 426.9 110.14 426.9C107.79 426.9 106.715 427.9 106.715 430.65ZM127.45 429.625C127.45 427.675 126.65 426.9 124.675 426.9C122.7 426.9 121.85 427.675 121.85 429.625V437H119.125V424.8H121.5L121.7 426.3C122.575 425.15 123.875 424.475 125.55 424.475C128.375 424.475 130.2 426.6 130.2 429.675V437H127.45V429.625ZM140.929 437H138.204V424.8H140.579L140.754 426.15C141.479 425.075 142.504 424.475 143.954 424.475C145.629 424.475 146.779 425.375 147.404 426.7C148.129 425.3 149.279 424.475 150.954 424.475C153.554 424.475 154.929 426.425 154.929 429.45V437H152.204V429.2C152.204 427.675 151.679 426.9 150.079 426.9C148.504 426.9 147.929 427.675 147.929 429.2V429.275V437H145.204V429.2C145.204 427.675 144.679 426.9 143.079 426.9C141.504 426.9 140.929 427.675 140.929 429.2V437ZM162.743 437.35C159.468 437.35 156.943 434.725 156.943 430.875C156.943 427.075 159.468 424.475 162.743 424.475C164.293 424.475 165.568 425.025 166.493 426.025V424.8H169.268V437H166.843L166.643 435.6C165.718 436.725 164.393 437.35 162.743 437.35ZM159.693 430.875C159.693 433.775 160.743 434.9 163.143 434.9C165.568 434.9 166.618 433.775 166.618 430.875C166.618 428.025 165.568 426.9 163.143 426.9C160.743 426.9 159.693 428.025 159.693 430.875ZM171.176 424.8H173.026V421.7H175.801V424.8H178.726V427.225H175.801V433.675C175.801 434.475 176.101 434.65 176.926 434.65H178.726V437H176.626C174.701 437 173.026 436.15 173.026 433.925V427.225H171.176V424.8ZM191.539 433.45C190.714 435.9 188.439 437.35 185.739 437.35C182.214 437.35 179.489 434.775 179.489 430.875C179.489 427.025 182.214 424.475 185.664 424.475C188.739 424.475 191.764 426.6 191.764 430.925V431.7H182.264C182.464 434.125 183.514 434.9 185.739 434.9C187.439 434.9 188.264 434.5 188.764 433.45H191.539ZM182.314 429.65H189.039C188.814 427.675 187.814 426.9 185.664 426.9C183.639 426.9 182.589 427.6 182.314 429.65ZM199.641 426.875C197.491 426.875 196.641 427.575 196.641 429.625V437H193.916V424.8H196.291L196.491 426.325C197.266 425.15 198.441 424.475 200.316 424.475H200.866V426.875H199.641ZM202.858 422.925V420.2H205.633V422.925H202.858ZM202.858 437V424.8H205.633V437H202.858ZM213.553 437.35C210.278 437.35 207.753 434.725 207.753 430.875C207.753 427.075 210.278 424.475 213.553 424.475C215.103 424.475 216.378 425.025 217.303 426.025V424.8H220.078V437H217.653L217.453 435.6C216.528 436.725 215.203 437.35 213.553 437.35ZM210.503 430.875C210.503 433.775 211.553 434.9 213.953 434.9C216.378 434.9 217.428 433.775 217.428 430.875C217.428 428.025 216.378 426.9 213.953 426.9C211.553 426.9 210.503 428.025 210.503 430.875ZM226.137 437.25C224.212 437.25 222.987 436.475 222.987 434.4V420.2H225.762V433.925C225.762 434.725 226.012 434.9 226.737 434.9H227.212V437.25H226.137ZM236.125 433.675C236.125 432.825 235.6 432.475 234.35 432.175L232.275 431.7C229.85 431.125 228.6 430.125 228.6 428.025C228.6 425.85 230.875 424.475 233.575 424.475C236.275 424.475 238.425 425.85 238.775 428.325H236.05C235.875 427.2 235.125 426.8 233.575 426.8C232.05 426.8 231.35 427.225 231.35 428.025C231.35 428.7 231.675 429.05 232.95 429.35L235.1 429.9C237.575 430.5 238.85 431.4 238.85 433.6C238.85 436.05 236.475 437.35 233.65 437.35C231.025 437.35 228.6 436.125 228.2 433.2H230.925C231.175 434.65 231.975 435 233.65 435C235.275 435 236.125 434.575 236.125 433.675ZM245.246 424.8H247.096V421.7H249.871V424.8H252.796V427.225H249.871V433.675C249.871 434.475 250.171 434.65 250.996 434.65H252.796V437H250.696C248.771 437 247.096 436.15 247.096 433.925V427.225H245.246V424.8ZM259.759 437.35C256.259 437.35 253.559 434.75 253.559 430.875C253.559 427.075 256.259 424.475 259.759 424.475C263.284 424.475 265.984 427.075 265.984 430.875C265.984 434.75 263.284 437.35 259.759 437.35ZM256.309 430.875C256.309 433.75 257.409 434.9 259.759 434.9C262.109 434.9 263.234 433.75 263.234 430.875C263.234 428.05 262.109 426.9 259.759 426.9C257.409 426.9 256.309 428.05 256.309 430.875ZM276.538 437.25C274.613 437.25 273.388 436.475 273.388 434.4V420.2H276.163V433.925C276.163 434.725 276.413 434.9 277.138 434.9H277.613V437.25H276.538ZM284.401 437.35C281.126 437.35 278.601 434.725 278.601 430.875C278.601 427.075 281.126 424.475 284.401 424.475C285.951 424.475 287.226 425.025 288.151 426.025V424.8H290.926V437H288.501L288.301 435.6C287.376 436.725 286.051 437.35 284.401 437.35ZM281.351 430.875C281.351 433.775 282.401 434.9 284.801 434.9C287.226 434.9 288.276 433.775 288.276 430.875C288.276 428.025 287.226 426.9 284.801 426.9C282.401 426.9 281.351 428.025 281.351 430.875ZM301.009 433.675C301.009 432.825 300.484 432.475 299.234 432.175L297.159 431.7C294.734 431.125 293.484 430.125 293.484 428.025C293.484 425.85 295.759 424.475 298.459 424.475C301.159 424.475 303.309 425.85 303.659 428.325H300.934C300.759 427.2 300.009 426.8 298.459 426.8C296.934 426.8 296.234 427.225 296.234 428.025C296.234 428.7 296.559 429.05 297.834 429.35L299.984 429.9C302.459 430.5 303.734 431.4 303.734 433.6C303.734 436.05 301.359 437.35 298.534 437.35C295.909 437.35 293.484 436.125 293.084 433.2H295.809C296.059 434.65 296.859 435 298.534 435C300.159 435 301.009 434.575 301.009 433.675ZM304.876 424.8H306.726V421.7H309.501V424.8H312.426V427.225H309.501V433.675C309.501 434.475 309.801 434.65 310.626 434.65H312.426V437H310.326C308.401 437 306.726 436.15 306.726 433.925V427.225H304.876V424.8ZM121.929 471.35C118.654 471.35 116.129 468.725 116.129 464.875C116.129 461.075 118.654 458.475 121.929 458.475C123.479 458.475 124.754 459.025 125.679 460.025V458.8H128.454V471H126.029L125.829 469.6C124.904 470.725 123.579 471.35 121.929 471.35ZM118.879 464.875C118.879 467.775 119.929 468.9 122.329 468.9C124.754 468.9 125.804 467.775 125.804 464.875C125.804 462.025 124.754 460.9 122.329 460.9C119.929 460.9 118.879 462.025 118.879 464.875ZM139.767 471.25C137.842 471.25 136.617 470.475 136.617 468.4V454.2H139.392V467.925C139.392 468.725 139.642 468.9 140.367 468.9H140.842V471.25H139.767ZM142.58 456.925V454.2H145.355V456.925H142.58ZM142.58 471V458.8H145.355V471H142.58ZM147.051 461.225V458.8H149.051V457.275C149.051 455.05 150.726 454.2 152.626 454.2H154.976V456.55H152.951C152.126 456.55 151.826 456.725 151.826 457.525V458.8H154.976V461.225H151.826V471H149.051V461.225H147.051ZM167.588 467.45C166.763 469.9 164.488 471.35 161.788 471.35C158.263 471.35 155.538 468.775 155.538 464.875C155.538 461.025 158.263 458.475 161.713 458.475C164.788 458.475 167.813 460.6 167.813 464.925V465.7H158.313C158.513 468.125 159.563 468.9 161.788 468.9C163.488 468.9 164.313 468.5 164.813 467.45H167.588ZM158.363 463.65H165.088C164.863 461.675 163.863 460.9 161.713 460.9C159.688 460.9 158.638 461.6 158.363 463.65ZM168.478 458.8H170.328V455.7H173.103V458.8H176.028V461.225H173.103V467.675C173.103 468.475 173.403 468.65 174.228 468.65H176.028V471H173.928C172.003 471 170.328 470.15 170.328 467.925V461.225H168.478V458.8ZM178.029 456.925V454.2H180.804V456.925H178.029ZM178.029 471V458.8H180.804V471H178.029ZM186.399 471H183.674V458.8H186.049L186.224 460.15C186.949 459.075 187.974 458.475 189.424 458.475C191.099 458.475 192.249 459.375 192.874 460.7C193.599 459.3 194.749 458.475 196.424 458.475C199.024 458.475 200.399 460.425 200.399 463.45V471H197.674V463.2C197.674 461.675 197.149 460.9 195.549 460.9C193.974 460.9 193.399 461.675 193.399 463.2V463.275V471H190.674V463.2C190.674 461.675 190.149 460.9 188.549 460.9C186.974 460.9 186.399 461.675 186.399 463.2V471ZM214.462 467.45C213.637 469.9 211.362 471.35 208.662 471.35C205.137 471.35 202.412 468.775 202.412 464.875C202.412 461.025 205.137 458.475 208.587 458.475C211.662 458.475 214.687 460.6 214.687 464.925V465.7H205.187C205.387 468.125 206.437 468.9 208.662 468.9C210.362 468.9 211.187 468.5 211.687 467.45H214.462ZM205.237 463.65H211.962C211.737 461.675 210.737 460.9 208.587 460.9C206.562 460.9 205.512 461.6 205.237 463.65ZM216.989 471.35C215.789 471.35 215.464 471.05 215.464 469.825C215.464 468.625 215.789 468.325 216.989 468.325C218.164 468.325 218.514 468.625 218.514 469.825C218.514 471.05 218.164 471.35 216.989 471.35Z" fill="white"/>
<path d="M80.4863 568V554.56H89.0463V556.2H82.3463V560.46H88.4463V562.08H82.3463V566.34H89.2463V568H80.4863ZM99.1927 564.6C99.1927 563.44 98.6927 562.78 97.2527 562.36L94.9127 561.7C92.5727 561.04 91.3527 559.98 91.3527 557.82C91.3527 555.74 93.3927 554.3 96.0727 554.3C98.7327 554.3 100.673 555.64 101.073 557.9H99.2327C98.9927 556.5 98.0927 555.94 96.0927 555.94C94.1327 555.94 93.1927 556.42 93.1927 557.82C93.1927 559.02 93.8727 559.54 95.2727 559.96L97.5927 560.64C99.9527 561.32 101.033 562.48 101.033 564.54C101.033 567.12 98.6927 568.24 96.0927 568.24C93.5327 568.24 91.2727 567.16 90.7527 564.3H92.6327C92.9127 566.14 94.0527 566.62 96.0927 566.62C98.2527 566.62 99.1927 566.16 99.1927 564.6ZM113.136 558.86C112.696 556.78 111.396 555.98 109.016 555.98C106.016 555.98 104.336 557.54 104.336 561.26C104.336 565 105.956 566.58 108.996 566.58C111.796 566.58 112.816 565.24 113.116 564.32C113.216 564.02 113.236 563.74 113.236 563.44V562.42H108.816V560.86H114.916V563.56C114.916 563.9 114.896 564.26 114.776 564.62C114.356 566.08 112.336 568.24 108.996 568.24C105.216 568.24 102.476 565.44 102.476 561.26C102.476 557.12 105.336 554.3 109.016 554.3C111.956 554.3 114.276 555.96 114.916 558.86H113.136ZM133.015 563.6C132.355 566.44 129.915 568.24 126.955 568.24C123.275 568.24 120.415 565.44 120.415 561.26C120.415 557.12 123.275 554.3 126.955 554.3C129.895 554.3 132.355 556.1 133.015 558.92H131.275C130.795 556.84 129.275 555.98 126.955 555.98C123.915 555.98 122.275 557.5 122.275 561.26C122.275 565.06 123.915 566.58 126.955 566.58C129.275 566.58 130.795 565.68 131.275 563.6H133.015ZM139.184 568.24C136.444 568.24 134.324 566.18 134.324 563.14C134.324 560.1 136.444 558.04 139.184 558.04C141.904 558.04 144.024 560.1 144.024 563.14C144.024 566.18 141.904 568.24 139.184 568.24ZM136.124 563.14C136.124 565.56 137.104 566.62 139.184 566.62C141.244 566.62 142.224 565.56 142.224 563.14C142.224 560.72 141.244 559.66 139.184 559.66C137.104 559.66 136.124 560.72 136.124 563.14ZM147.607 568H145.827V558.3H147.367L147.507 559.48C148.027 558.58 148.867 558.04 150.067 558.04C151.467 558.04 152.407 558.86 152.887 559.96C153.387 558.78 154.287 558.04 155.707 558.04C157.827 558.04 158.887 559.7 158.887 562.12V568H157.107V561.82C157.107 560.36 156.627 559.66 155.207 559.66C153.787 559.66 153.247 560.36 153.247 561.82V568H151.467V561.82C151.467 560.36 150.987 559.66 149.567 559.66C148.147 559.66 147.607 560.36 147.607 561.82V568ZM162.963 568H161.183V558.3H162.723L162.863 559.48C163.383 558.58 164.223 558.04 165.423 558.04C166.823 558.04 167.763 558.86 168.243 559.96C168.743 558.78 169.643 558.04 171.063 558.04C173.183 558.04 174.243 559.7 174.243 562.12V568H172.463V561.82C172.463 560.36 171.983 559.66 170.563 559.66C169.143 559.66 168.603 560.36 168.603 561.82V568H166.823V561.82C166.823 560.36 166.343 559.66 164.923 559.66C163.503 559.66 162.963 560.36 162.963 561.82V568ZM178.219 564.16C178.219 565.94 178.999 566.64 180.699 566.64C182.379 566.64 183.219 565.94 183.219 564.16V558.3H184.999V568H183.479L183.319 566.68C182.659 567.64 181.599 568.24 180.199 568.24C177.899 568.24 176.439 566.54 176.439 564.02V558.3H178.219V564.16ZM194.184 562.12C194.184 560.36 193.404 559.66 191.724 559.66C190.024 559.66 189.184 560.36 189.184 562.12V568H187.404V558.3H188.944L189.104 559.62C189.744 558.64 190.804 558.04 192.204 558.04C194.504 558.04 195.964 559.74 195.964 562.26V568H194.184V562.12ZM198.268 556.5V554.56H200.068V556.5H198.268ZM198.268 568V558.3H200.068V568H198.268ZM201.871 563.14C201.871 560.1 203.991 558.04 206.731 558.04C208.871 558.04 210.631 559.3 211.131 561.46H209.411C209.091 560.18 208.151 559.66 206.731 559.66C204.651 559.66 203.671 560.72 203.671 563.14C203.671 565.54 204.651 566.62 206.731 566.62C208.151 566.62 209.091 566.1 209.411 564.8H211.131C210.631 566.96 208.871 568.22 206.731 568.22C203.991 568.22 201.871 566.16 201.871 563.14ZM216.925 568.24C214.345 568.24 212.325 566.16 212.325 563.14C212.325 560.14 214.345 558.04 216.925 558.04C218.285 558.04 219.385 558.58 220.125 559.52V558.3H221.925V568H220.385L220.225 566.64C219.465 567.66 218.345 568.24 216.925 568.24ZM214.125 563.14C214.125 565.6 215.145 566.62 217.185 566.62C219.205 566.62 220.225 565.6 220.225 563.14C220.225 560.68 219.205 559.66 217.185 559.66C215.145 559.66 214.125 560.68 214.125 563.14ZM223.517 558.3H225.057V555.76H226.857V558.3H229.237V559.88H226.857V565.66C226.857 566.3 227.097 566.44 227.757 566.44H229.237V568H227.557C226.237 568 225.057 567.4 225.057 565.84V559.88H223.517V558.3ZM230.943 556.5V554.56H232.743V556.5H230.943ZM230.943 568V558.3H232.743V568H230.943ZM239.406 568.24C236.666 568.24 234.546 566.18 234.546 563.14C234.546 560.1 236.666 558.04 239.406 558.04C242.126 558.04 244.246 560.1 244.246 563.14C244.246 566.18 242.126 568.24 239.406 568.24ZM236.346 563.14C236.346 565.56 237.326 566.62 239.406 566.62C241.466 566.62 242.446 565.56 242.446 563.14C242.446 560.72 241.466 559.66 239.406 559.66C237.326 559.66 236.346 560.72 236.346 563.14ZM252.83 562.12C252.83 560.36 252.05 559.66 250.37 559.66C248.67 559.66 247.83 560.36 247.83 562.12V568H246.05V558.3H247.59L247.75 559.62C248.39 558.64 249.45 558.04 250.85 558.04C253.15 558.04 254.61 559.74 254.61 562.26V568H252.83V562.12Z" fill="white"/>
</svg>
