<svg width="67" height="76" viewBox="0 0 67 76" fill="none" xmlns="http://www.w3.org/2000/svg">
<g clip-path="url(#clip0_159_665)">
<path d="M27.6805 37.6666C25.8206 37.6666 24.3086 36.1582 24.3086 34.302C24.3086 32.4459 25.8206 30.9375 27.6805 30.9375C29.5403 30.9375 31.0523 32.4459 31.0523 34.302C31.0523 36.1582 29.5403 37.6666 27.6805 37.6666ZM27.6805 32.2408C26.5419 32.2408 25.6156 33.1634 25.6156 34.302C25.6156 35.4406 26.5419 36.3632 27.6805 36.3632C28.8191 36.3632 29.7453 35.4406 29.7453 34.302C29.7453 33.1634 28.8191 32.2408 27.6805 32.2408Z" fill="white"/>
<path d="M37.6023 37.6666C35.7425 37.6666 34.2305 36.1582 34.2305 34.302C34.2305 32.4459 35.7425 30.9375 37.6023 30.9375C39.4622 30.9375 40.9742 32.4459 40.9742 34.302C40.9742 36.1582 39.4622 37.6666 37.6023 37.6666ZM37.6023 32.2408C36.4637 32.2408 35.5375 33.1634 35.5375 34.302C35.5375 35.4406 36.4637 36.3632 37.6023 36.3632C38.7409 36.3632 39.6672 35.4406 39.6672 34.302C39.6672 33.1634 38.7409 32.2408 37.6023 32.2408Z" fill="white"/>
<path d="M40.763 32.2385H24.515C23.003 32.2385 21.663 31.2207 21.264 29.7599L18.3827 19.2782C18.2875 18.9304 18.4925 18.5716 18.8403 18.4764C19.1845 18.3812 19.5469 18.5863 19.6421 18.9341L22.5234 29.4158C22.7687 30.3091 23.5888 30.9351 24.515 30.9351H40.763C41.6892 30.9351 42.5093 30.3091 42.7583 29.4158L44.9806 21.3284C45.0758 20.9806 45.4345 20.7756 45.7823 20.8708C46.1301 20.966 46.3352 21.3248 46.24 21.6726L44.0177 29.7599C43.6186 31.2207 42.2787 32.2385 40.7666 32.2385H40.763Z" fill="white"/>
<path d="M25.0071 13.5913C24.6447 13.5913 24.3555 13.2985 24.3555 12.9397V10.9773C24.3555 9.1175 25.8675 7.60547 27.7273 7.60547H39.0658C39.4282 7.60547 39.7174 7.89836 39.7174 8.25714C39.7174 8.61593 39.4245 8.90882 39.0658 8.90882H27.7273C26.5887 8.90882 25.6588 9.83507 25.6588 10.9773V12.9397C25.6588 13.2985 25.3659 13.5913 25.0071 13.5913Z" fill="white"/>
<path d="M19.8118 19.7687C19.4494 19.7687 19.1602 19.4758 19.1602 19.117V15.6609C19.1602 13.8011 20.6722 12.2891 22.532 12.2891H28.1591C28.5216 12.2891 28.8108 12.5819 28.8108 12.9407C28.8108 13.2995 28.5179 13.5924 28.1591 13.5924H22.532C21.3934 13.5924 20.4635 14.5187 20.4635 15.6609V19.117C20.4635 19.4758 20.1706 19.7687 19.8118 19.7687Z" fill="white"/>
<path d="M35.6036 19.7588H17.1517C16.7892 19.7588 16.5 19.4659 16.5 19.1071C16.5 18.7484 16.7929 18.4555 17.1517 18.4555H35.6036C40.3997 18.4555 42.8453 15.9623 45.0419 12.217C45.225 11.9058 45.624 11.8033 45.9352 11.9827C46.2464 12.1657 46.3489 12.5648 46.1695 12.876C44.0717 16.4529 41.3406 19.7588 35.6073 19.7588H35.6036Z" fill="white"/>
<path d="M43.024 19.8025C40.9774 19.8025 39.3299 19.0154 39.3007 19.0007C38.9785 18.8433 38.843 18.4516 39.0041 18.1294C39.1652 17.8072 39.5533 17.6718 39.8754 17.8328C40.0768 17.928 44.8399 20.1796 47.5967 15.984C49.9252 12.4401 49.16 8.984 48.7243 7.65869C47.4503 7.78682 44.2981 8.35429 42.0538 10.5985C39.3812 13.2711 39.967 15.3689 39.9926 15.4568C40.0951 15.8009 39.9011 16.1634 39.5606 16.2696C39.2201 16.3721 38.8577 16.1927 38.7478 15.8522C38.7112 15.735 37.8582 12.949 41.1275 9.67595C43.6647 7.13881 47.1684 6.50544 48.5559 6.34802C49.182 6.27846 49.7677 6.65921 49.9618 7.24864C50.456 8.74969 51.3237 12.678 48.684 16.6979C47.0695 19.1545 44.8802 19.8025 43.0203 19.8025H43.024Z" fill="white"/>
</g>
<path d="M19.9433 57.732C19.9433 57.508 19.9106 57.3073 19.8453 57.13C19.78 56.9527 19.6633 56.7893 19.4953 56.64C19.3273 56.4907 19.094 56.346 18.7953 56.206C18.506 56.066 18.1373 55.9167 17.6893 55.758C17.1386 55.562 16.6766 55.3707 16.3033 55.184C15.93 54.988 15.6313 54.778 15.4073 54.554C15.1833 54.33 15.02 54.0827 14.9173 53.812C14.824 53.5413 14.7773 53.2287 14.7773 52.874C14.7773 52.1367 15.048 51.5487 15.5893 51.11C16.1306 50.6713 16.924 50.452 17.9693 50.452C18.4826 50.452 18.954 50.5173 19.3833 50.648C19.8126 50.7693 20.2233 50.942 20.6153 51.166L20.1953 52.034C19.85 51.8193 19.4906 51.656 19.1173 51.544C18.744 51.4227 18.3613 51.362 17.9693 51.362C17.2413 51.362 16.7046 51.4927 16.3593 51.754C16.0233 52.006 15.8553 52.356 15.8553 52.804C15.8553 53.0373 15.8926 53.2427 15.9673 53.42C16.042 53.5973 16.1633 53.7607 16.3313 53.91C16.5086 54.0593 16.742 54.2087 17.0313 54.358C17.3206 54.498 17.6846 54.652 18.1233 54.82C18.6646 55.0253 19.1173 55.2167 19.4813 55.394C19.8546 55.5713 20.1533 55.7673 20.3773 55.982C20.6106 56.1873 20.774 56.4253 20.8673 56.696C20.97 56.9573 21.0213 57.2747 21.0213 57.648C21.0213 58.4133 20.7413 59.02 20.1813 59.468C19.6306 59.916 18.7766 60.14 17.6193 60.14C17.0313 60.14 16.4713 60.07 15.9393 59.93C15.4073 59.79 14.9546 59.608 14.5813 59.384L14.9733 58.544C15.3746 58.7587 15.79 58.9313 16.2193 59.062C16.6486 59.1833 17.1013 59.244 17.5773 59.244C18.3706 59.244 18.9633 59.1133 19.3553 58.852C19.7473 58.5813 19.9433 58.208 19.9433 57.732ZM22.1089 56.612C22.1089 55.3987 22.3516 54.5073 22.8369 53.938C23.3316 53.3687 24.1156 53.084 25.1889 53.084C26.2529 53.084 27.0276 53.3687 27.5129 53.938C28.0076 54.5073 28.2549 55.3987 28.2549 56.612C28.2549 57.8253 28.0076 58.7167 27.5129 59.286C27.0183 59.8553 26.2436 60.14 25.1889 60.14C24.1249 60.14 23.3456 59.8553 22.8509 59.286C22.3563 58.7167 22.1089 57.8253 22.1089 56.612ZM23.1869 56.612C23.1869 57.536 23.3456 58.208 23.6629 58.628C23.9803 59.0387 24.4889 59.244 25.1889 59.244C25.8889 59.244 26.3976 59.0387 26.7149 58.628C27.0323 58.208 27.1909 57.536 27.1909 56.612C27.1909 55.7067 27.0323 55.044 26.7149 54.624C26.3976 54.204 25.8889 53.994 25.1889 53.994C24.4889 53.994 23.9803 54.204 23.6629 54.624C23.3456 55.044 23.1869 55.7067 23.1869 56.612ZM34.0681 59.328C33.7508 59.58 33.4008 59.7807 33.0181 59.93C32.6354 60.07 32.2341 60.14 31.8141 60.14C31.0301 60.14 30.4654 59.9533 30.1201 59.58C29.7748 59.2067 29.6021 58.5953 29.6021 57.746V53.224H30.6801V57.452C30.6801 58.124 30.7874 58.5907 31.0021 58.852C31.2261 59.1133 31.5668 59.244 32.0241 59.244C32.6774 59.244 33.3261 59.006 33.9701 58.53V53.224H35.0481V60H34.2361L34.0681 59.328ZM37.6022 53.224L37.7282 54.12C38.0362 53.784 38.3816 53.5273 38.7642 53.35C39.1469 53.1727 39.5342 53.084 39.9262 53.084C40.0849 53.084 40.2202 53.098 40.3322 53.126C40.4536 53.1447 40.5796 53.1773 40.7102 53.224V54.176C40.4302 54.064 40.1362 54.008 39.8282 54.008C39.4736 54.008 39.1189 54.106 38.7642 54.302C38.4096 54.498 38.1062 54.7453 37.8542 55.044V60H36.7902V53.224H37.6022ZM44.3317 59.244C44.9851 59.244 45.5684 59.0807 46.0817 58.754L46.3897 59.608C46.1191 59.7667 45.8064 59.8973 45.4517 60C45.1064 60.0933 44.7331 60.14 44.3317 60.14C43.2211 60.14 42.4091 59.8647 41.8957 59.314C41.3824 58.754 41.1257 57.8533 41.1257 56.612C41.1257 55.3987 41.3731 54.5073 41.8677 53.938C42.3624 53.3687 43.1371 53.084 44.1917 53.084C45.0971 53.084 45.8391 53.3593 46.4177 53.91L45.8297 54.638C45.6244 54.4327 45.3817 54.274 45.1017 54.162C44.8311 54.0407 44.5371 53.98 44.2197 53.98C43.5477 53.98 43.0391 54.1853 42.6937 54.596C42.3577 54.9973 42.1897 55.6693 42.1897 56.612C42.1897 57.5547 42.3671 58.2313 42.7217 58.642C43.0764 59.0433 43.6131 59.244 44.3317 59.244ZM49.9827 60.14C48.8814 60.14 48.0974 59.8553 47.6307 59.286C47.1734 58.7073 46.9447 57.816 46.9447 56.612C46.9447 55.3987 47.178 54.5073 47.6447 53.938C48.1114 53.3687 48.8254 53.084 49.7867 53.084C50.748 53.084 51.462 53.364 51.9287 53.924C52.3954 54.4747 52.6287 55.352 52.6287 56.556V57.004H48.0367C48.074 57.8067 48.2467 58.3807 48.5547 58.726C48.8627 59.0713 49.3434 59.244 49.9967 59.244C50.3887 59.244 50.7714 59.188 51.1447 59.076C51.5274 58.9547 51.882 58.7913 52.2087 58.586L52.5587 59.44C52.204 59.6547 51.8027 59.8273 51.3547 59.958C50.916 60.0793 50.4587 60.14 49.9827 60.14ZM51.5367 56.136C51.49 55.408 51.3267 54.8713 51.0467 54.526C50.7667 54.1713 50.3467 53.994 49.7867 53.994C49.2267 53.994 48.8067 54.1713 48.5267 54.526C48.2467 54.8713 48.0834 55.408 48.0367 56.136H51.5367ZM8.76419 67.854C9.09085 67.6113 9.42685 67.4247 9.77219 67.294C10.1175 67.154 10.4862 67.084 10.8782 67.084C11.3542 67.084 11.7322 67.154 12.0122 67.294C12.3015 67.434 12.5162 67.6673 12.6562 67.994C12.9829 67.7233 13.3375 67.504 13.7202 67.336C14.1122 67.168 14.5182 67.084 14.9382 67.084C15.3302 67.084 15.6569 67.1307 15.9182 67.224C16.1795 67.308 16.3895 67.448 16.5482 67.644C16.7162 67.84 16.8329 68.092 16.8982 68.4C16.9635 68.6987 16.9962 69.0627 16.9962 69.492V74H15.9322V69.786C15.9322 69.114 15.8389 68.6473 15.6522 68.386C15.4749 68.1247 15.1715 67.994 14.7422 67.994C14.1262 67.994 13.5055 68.246 12.8802 68.75C12.9082 68.9647 12.9222 69.212 12.9222 69.492V74H11.8582V69.786C11.8582 69.1233 11.7742 68.6613 11.6062 68.4C11.4382 68.1293 11.1255 67.994 10.6682 67.994C10.3602 67.994 10.0615 68.0547 9.77219 68.176C9.48285 68.288 9.17952 68.4653 8.86219 68.708V74H7.79819V67.224H8.59619L8.76419 67.854ZM23.5767 74H22.7787L22.6107 73.37C22.3307 73.6127 21.9994 73.804 21.6167 73.944C21.2434 74.0747 20.8327 74.14 20.3847 74.14C19.6847 74.14 19.1574 73.9627 18.8027 73.608C18.4574 73.244 18.2847 72.726 18.2847 72.054C18.2847 71.3633 18.4994 70.8547 18.9287 70.528C19.3581 70.192 20.0767 70.024 21.0847 70.024C21.3834 70.024 21.6447 70.0287 21.8687 70.038C22.1021 70.0473 22.3167 70.066 22.5127 70.094V69.716C22.5127 69.0907 22.3914 68.6473 22.1487 68.386C21.9061 68.1153 21.4767 67.98 20.8607 67.98C20.5714 67.98 20.2541 68.0313 19.9087 68.134C19.5727 68.2273 19.2321 68.3673 18.8867 68.554L18.5647 67.742C18.9381 67.5367 19.3347 67.378 19.7547 67.266C20.1747 67.1447 20.6087 67.084 21.0567 67.084C21.5327 67.084 21.9294 67.1307 22.2467 67.224C22.5734 67.3173 22.8347 67.4713 23.0307 67.686C23.2267 67.8913 23.3667 68.1573 23.4507 68.484C23.5347 68.8107 23.5767 69.212 23.5767 69.688V74ZM20.6787 73.258C20.9867 73.258 21.3041 73.1927 21.6307 73.062C21.9667 72.922 22.2607 72.74 22.5127 72.516V70.962C22.2701 70.934 22.0274 70.9153 21.7847 70.906C21.5421 70.8873 21.2714 70.878 20.9727 70.878C20.3847 70.878 19.9647 70.9667 19.7127 71.144C19.4701 71.3213 19.3487 71.62 19.3487 72.04C19.3487 72.4413 19.4514 72.7447 19.6567 72.95C19.8621 73.1553 20.2027 73.258 20.6787 73.258ZM26.7457 68.134V71.48C26.7457 71.788 26.7597 72.054 26.7877 72.278C26.8157 72.502 26.8717 72.6887 26.9557 72.838C27.049 72.978 27.175 73.0807 27.3337 73.146C27.5017 73.2113 27.7257 73.244 28.0057 73.244C28.211 73.244 28.4117 73.2207 28.6077 73.174C28.813 73.1273 29.009 73.0713 29.1957 73.006L29.4057 73.818C28.8457 74.0327 28.281 74.14 27.7117 74.14C27.301 74.14 26.9603 74.084 26.6897 73.972C26.4283 73.86 26.2183 73.706 26.0597 73.51C25.9103 73.3047 25.8077 73.062 25.7517 72.782C25.6957 72.4927 25.6677 72.1753 25.6677 71.83V68.134H24.5617V67.224H25.6677V65.796L26.7457 65.6V67.224H29.1397V68.134H26.7457ZM33.1127 74.14C32.0114 74.14 31.2274 73.8553 30.7607 73.286C30.3034 72.7073 30.0747 71.816 30.0747 70.612C30.0747 69.3987 30.308 68.5073 30.7747 67.938C31.2414 67.3687 31.9554 67.084 32.9167 67.084C33.878 67.084 34.592 67.364 35.0587 67.924C35.5254 68.4747 35.7587 69.352 35.7587 70.556V71.004H31.1667C31.204 71.8067 31.3767 72.3807 31.6847 72.726C31.9927 73.0713 32.4734 73.244 33.1267 73.244C33.5187 73.244 33.9014 73.188 34.2747 73.076C34.6574 72.9547 35.012 72.7913 35.3387 72.586L35.6887 73.44C35.334 73.6547 34.9327 73.8273 34.4847 73.958C34.046 74.0793 33.5887 74.14 33.1127 74.14ZM34.6667 70.136C34.62 69.408 34.4567 68.8713 34.1767 68.526C33.8967 68.1713 33.4767 67.994 32.9167 67.994C32.3567 67.994 31.9367 68.1713 31.6567 68.526C31.3767 68.8713 31.2134 69.408 31.1667 70.136H34.6667ZM37.9987 67.224L38.1247 68.12C38.4327 67.784 38.778 67.5273 39.1607 67.35C39.5434 67.1727 39.9307 67.084 40.3227 67.084C40.4814 67.084 40.6167 67.098 40.7287 67.126C40.85 67.1447 40.976 67.1773 41.1067 67.224V68.176C40.8267 68.064 40.5327 68.008 40.2247 68.008C39.87 68.008 39.5154 68.106 39.1607 68.302C38.806 68.498 38.5027 68.7453 38.2507 69.044V74H37.1867V67.224H37.9987ZM42.0936 67.224H43.1576V74H42.0936V67.224ZM42.0796 64.312H43.1576V65.712H42.0796V64.312ZM49.9662 74H49.1682L49.0002 73.37C48.7202 73.6127 48.3889 73.804 48.0062 73.944C47.6329 74.0747 47.2222 74.14 46.7742 74.14C46.0742 74.14 45.5469 73.9627 45.1922 73.608C44.8469 73.244 44.6742 72.726 44.6742 72.054C44.6742 71.3633 44.8889 70.8547 45.3182 70.528C45.7475 70.192 46.4662 70.024 47.4742 70.024C47.7729 70.024 48.0342 70.0287 48.2582 70.038C48.4915 70.0473 48.7062 70.066 48.9022 70.094V69.716C48.9022 69.0907 48.7809 68.6473 48.5382 68.386C48.2955 68.1153 47.8662 67.98 47.2502 67.98C46.9609 67.98 46.6435 68.0313 46.2982 68.134C45.9622 68.2273 45.6215 68.3673 45.2762 68.554L44.9542 67.742C45.3275 67.5367 45.7242 67.378 46.1442 67.266C46.5642 67.1447 46.9982 67.084 47.4462 67.084C47.9222 67.084 48.3189 67.1307 48.6362 67.224C48.9629 67.3173 49.2242 67.4713 49.4202 67.686C49.6162 67.8913 49.7562 68.1573 49.8402 68.484C49.9242 68.8107 49.9662 69.212 49.9662 69.688V74ZM47.0682 73.258C47.3762 73.258 47.6935 73.1927 48.0202 73.062C48.3562 72.922 48.6502 72.74 48.9022 72.516V70.962C48.6595 70.934 48.4169 70.9153 48.1742 70.906C47.9315 70.8873 47.6609 70.878 47.3622 70.878C46.7742 70.878 46.3542 70.9667 46.1022 71.144C45.8595 71.3213 45.7382 71.62 45.7382 72.04C45.7382 72.4413 45.8409 72.7447 46.0462 72.95C46.2515 73.1553 46.5922 73.258 47.0682 73.258ZM53.5131 74.098C53.4664 74.1167 53.4011 74.126 53.3171 74.126C53.2331 74.1353 53.1631 74.14 53.1071 74.14C52.6311 74.14 52.2858 74 52.0711 73.72C51.8658 73.4307 51.7631 72.992 51.7631 72.404V64.284L52.8271 64.116V72.25C52.8271 72.4647 52.8364 72.6373 52.8551 72.768C52.8738 72.8987 52.9064 73.0013 52.9531 73.076C53.0091 73.1507 53.0791 73.202 53.1631 73.23C53.2564 73.2487 53.3731 73.258 53.5131 73.258V74.098ZM56.4417 69.8C56.6564 69.884 56.9224 69.9773 57.2397 70.08C57.5664 70.1827 57.8884 70.2947 58.2057 70.416C59.1111 70.752 59.5637 71.354 59.5637 72.222C59.5637 72.838 59.3491 73.314 58.9197 73.65C58.4904 73.986 57.7997 74.154 56.8477 74.154C56.3157 74.154 55.8631 74.0933 55.4897 73.972C55.1164 73.8507 54.7804 73.706 54.4817 73.538L54.8317 72.698C55.1024 72.8567 55.4104 72.992 55.7557 73.104C56.1011 73.216 56.4697 73.272 56.8617 73.272C57.4591 73.272 57.8791 73.1927 58.1217 73.034C58.3644 72.866 58.4857 72.614 58.4857 72.278C58.4857 71.83 58.2197 71.4987 57.6877 71.284C57.3891 71.1627 57.0764 71.0507 56.7497 70.948C56.4324 70.8453 56.1291 70.7427 55.8397 70.64C55.4664 70.5093 55.1677 70.3087 54.9437 70.038C54.7291 69.758 54.6217 69.394 54.6217 68.946C54.6217 68.4047 54.8317 67.9567 55.2517 67.602C55.6811 67.2473 56.3204 67.07 57.1697 67.07C57.6177 67.07 58.0191 67.1167 58.3737 67.21C58.7284 67.294 59.0271 67.3967 59.2697 67.518L58.9477 68.33C58.6771 68.1993 58.4064 68.106 58.1357 68.05C57.8651 67.9847 57.5337 67.952 57.1417 67.952C56.8617 67.952 56.6284 67.98 56.4417 68.036C56.2551 68.092 56.1057 68.1667 55.9937 68.26C55.8911 68.344 55.8164 68.442 55.7697 68.554C55.7231 68.666 55.6997 68.778 55.6997 68.89C55.6997 69.114 55.7557 69.296 55.8677 69.436C55.9797 69.576 56.1711 69.6973 56.4417 69.8Z" fill="white"/>
<defs>
<clipPath id="clip0_159_665">
<rect width="44" height="44" fill="white" transform="translate(11.5)"/>
</clipPath>
</defs>
</svg>
