<svg width="375" height="719" viewBox="0 0 375 719" fill="none" xmlns="http://www.w3.org/2000/svg">
<path d="M291 265.96C306.816 265.96 316 258.5 316 244.08C316 235.07 310.852 227.55 300.806 223.449L291.831 219.782C285.989 217.423 283.607 214.312 283.607 209.716C283.607 204.868 287.433 202.645 291.387 202.645C297.229 202.645 301.683 206.807 309.158 216.282C309.974 217.292 310.852 216.964 310.852 215.595V202.63C310.865 202.261 310.771 201.895 310.583 201.576C310.394 201.257 310.117 200.997 309.786 200.827C305.954 199.398 299.234 198.529 293.209 198.529C279.586 198.529 269.167 206.671 269.167 219.04C269.167 227.176 273.183 234.823 282.663 238.737L292.331 242.717C298.862 245.389 301.183 248.308 301.183 253.278C301.183 258.5 297.479 261.919 292.081 261.919C285.489 261.919 279.714 256.449 271.111 245.015C270.356 243.959 269.417 244.333 269.54 245.636L270.861 262.04C270.923 262.914 271.239 263.47 272.116 263.722C275.882 264.838 281.657 265.96 290.994 265.96M258.269 203.065C268.627 200.034 273.902 192.064 273.902 182.246C273.902 173.483 268.377 168.013 261.657 168.013C258.414 168.009 255.3 169.274 252.994 171.532C250.688 173.79 249.377 176.859 249.346 180.069C249.346 186.66 254.744 192.312 261.336 192.312C262.901 192.302 264.454 192.031 265.928 191.509C266.239 191.383 266.494 191.63 266.438 192.014C265.499 195.928 261.336 199.221 257.652 201.458C256.519 202.145 257.086 203.448 258.279 203.075M220.233 223.782C220.422 208.63 223.371 202.65 227.83 202.65C232.422 202.65 234.973 209.049 235.049 223.782H220.233ZM228.906 265.98C243.784 265.98 252.136 257.091 254.524 246.282C254.836 244.853 254.08 244.419 252.994 245.348C248.821 248.902 243.493 250.844 237.988 250.818C227.381 250.818 220.978 244.419 220.284 228.09H253.06C253.243 228.109 253.428 228.092 253.604 228.039C253.781 227.987 253.945 227.901 254.087 227.785C254.229 227.669 254.347 227.527 254.434 227.366C254.52 227.205 254.573 227.029 254.591 226.848C254.694 225.877 254.735 224.9 254.713 223.923C254.713 210.792 245.3 198.57 229.789 198.57C212.717 198.57 198.906 212.181 198.906 233.621C198.906 254.833 212.171 266 228.912 266M158.762 205.378H166.109V248.075C166.109 260.566 161.334 261.747 161.334 263.611C161.334 264.232 161.711 264.727 162.716 264.727H191.661C192.681 264.727 193.038 264.222 193.038 263.611C193.038 261.621 187.329 260.581 187.329 248.075V205.378H198.125C198.315 205.404 198.509 205.387 198.691 205.328C198.874 205.27 199.04 205.171 199.179 205.04C199.318 204.909 199.425 204.749 199.493 204.571C199.56 204.394 199.586 204.203 199.569 204.014V201.277C199.593 201.083 199.572 200.887 199.508 200.703C199.444 200.519 199.338 200.351 199.199 200.214C199.06 200.076 198.891 199.971 198.705 199.908C198.519 199.844 198.321 199.824 198.125 199.847H190.089C187.263 199.847 185.569 198.837 183.457 195.872L181.635 193.347C178.242 188.625 176.533 184.398 176.533 180.857C176.533 176.135 179.594 173.65 183.564 173.65C188.589 173.65 192.166 177.564 199.635 185.645C200.452 186.574 201.268 186.201 201.268 185.14V170.847C201.268 170.039 200.891 169.544 200.248 169.417C196.911 168.432 193.443 167.955 189.962 168.003C173.829 168.003 166.109 180.185 166.109 193.549V198.645L158.385 203.428C157.364 204.049 157.63 205.352 158.762 205.352M126.741 180.125C126.735 182.528 127.449 184.879 128.793 186.881C130.137 188.883 132.05 190.445 134.291 191.37C136.532 192.295 138.999 192.542 141.382 192.079C143.764 191.616 145.954 190.464 147.675 188.769C149.397 187.074 150.571 184.911 151.051 182.555C151.53 180.199 151.293 177.756 150.37 175.533C149.446 173.31 147.878 171.408 145.862 170.068C143.847 168.728 141.475 168.009 139.048 168.003C135.795 168.007 132.677 169.284 130.372 171.554C128.066 173.825 126.761 176.906 126.741 180.125ZM125.114 264.702H153.109C154.129 264.702 154.492 264.197 154.492 263.586C154.492 261.722 149.721 260.555 149.721 248.05V198.469C149.727 198.412 149.719 198.356 149.698 198.303C149.677 198.251 149.644 198.205 149.601 198.168C149.558 198.131 149.506 198.105 149.451 198.093C149.395 198.08 149.337 198.081 149.282 198.095L125.175 203.312C124.231 203.499 123.731 203.933 123.731 204.681C123.731 206.61 128.501 206.979 128.501 216.615V248.06C128.501 260.55 123.731 261.732 123.731 263.596C123.731 264.217 124.108 264.712 125.114 264.712M59.3827 264.712H113.435C113.678 264.735 113.924 264.709 114.158 264.637C114.391 264.565 114.608 264.447 114.795 264.291C114.982 264.135 115.136 263.944 115.248 263.728C115.359 263.512 115.426 263.277 115.445 263.035L119.649 240.353C119.838 239.297 118.894 238.838 118.078 239.732L105.975 251.974C99.6947 258.313 97.4957 260.364 90.2761 260.364H85.7608V192.246C85.7608 179.756 90.5313 178.574 90.5313 176.711C90.5313 176.089 90.1537 175.594 89.1486 175.594H59.3827C58.3623 175.594 58 176.099 58 176.711C58 178.574 62.7705 179.741 62.7705 192.246V248.055C62.7705 260.545 58 261.727 58 263.591C58 264.212 58.3776 264.707 59.3827 264.707" fill="white"/>
<path d="M335.143 554C337.556 553.994 339.913 553.275 341.917 551.934C343.921 550.593 345.481 548.69 346.402 546.465C347.323 544.24 347.562 541.793 347.09 539.432C346.617 537.071 345.455 534.903 343.749 533.201C342.042 531.499 339.869 530.339 337.503 529.868C335.137 529.397 332.683 529.636 330.453 530.554C328.222 531.473 326.315 533.03 324.97 535.029C323.626 537.028 322.905 539.379 322.899 541.786C322.901 545.025 324.191 548.131 326.487 550.421C328.783 552.711 331.896 553.999 335.143 554ZM271.057 516.923C271.057 498.105 275.427 490.504 281.549 490.504C284.3 490.504 286.737 491.938 289.483 494.495V543.108C287.813 543.764 286.029 544.083 284.234 544.044C276.554 544.044 271.036 536.692 271.036 516.938M289.965 554L314.514 547.518C315.326 547.331 315.823 546.956 315.823 546.273C315.823 544.277 310.641 543.842 310.641 534.185V456.334C310.644 456.28 310.633 456.227 310.61 456.179C310.587 456.13 310.552 456.089 310.508 456.058C310.465 456.027 310.414 456.008 310.361 456.002C310.307 455.996 310.253 456.004 310.204 456.025L285.656 462.501C284.843 462.689 284.346 463.063 284.346 463.747C284.346 465.742 289.529 466.178 289.529 475.835V487.051C286.739 486.617 283.921 486.388 281.097 486.367C261.549 486.367 249.117 501.559 249.117 523.131C249.117 542.257 257.3 553.975 273.788 553.975C280.158 553.975 284.097 551.605 289.524 546.622V553.661C289.521 553.714 289.531 553.767 289.555 553.816C289.578 553.864 289.612 553.905 289.656 553.937C289.699 553.968 289.75 553.988 289.803 553.994C289.856 554.001 289.91 553.994 289.96 553.975M203.767 520.199C203.767 497.832 206.574 490.479 212.32 490.479C218.569 490.479 221.006 497.832 221.006 520.199C221.006 542.566 218.549 549.949 212.3 549.949C206.554 549.949 203.747 542.53 203.747 520.224M212.3 554C230.853 554 242.97 539.482 242.97 520.224C242.97 500.966 230.853 486.393 212.3 486.393C194.249 486.393 181.757 500.971 181.757 520.224C181.757 539.477 194.249 554 212.3 554ZM136.412 520.224C136.412 497.857 139.224 490.504 144.97 490.504C151.214 490.504 153.65 497.857 153.65 520.224C153.65 542.591 151.214 549.949 144.97 549.949C139.224 549.949 136.412 542.53 136.412 520.224ZM144.97 554C163.518 554 175.64 539.482 175.64 520.224C175.64 500.966 163.518 486.393 144.97 486.393C126.919 486.393 114.427 500.971 114.427 520.224C114.427 539.477 126.919 554 144.97 554ZM70.8276 554C81.6347 554 93.3759 551.007 104.807 544.591C104.872 544.554 104.924 544.499 104.958 544.432C104.991 544.366 105.004 544.291 104.995 544.217V525.025C104.995 512.502 108.493 511.19 108.493 509.448C108.493 508.825 108.117 508.324 107.117 508.324H79.6347C78.6195 508.324 78.2641 508.831 78.2641 509.448C78.2641 511.317 83.0103 512.487 83.0103 525.025V546.521C80.325 548.637 77.5129 549.701 72.7667 549.701C59.5687 549.701 52.528 536.925 52.528 507.701C52.528 479.227 59.3352 466.517 72.1423 466.517C79.5129 466.517 84.4469 470.938 97.4368 484.899C98.1881 485.709 99.0002 485.456 99.0002 484.276V468.487C99.0401 467.966 98.901 467.448 98.6056 467.017C98.3103 466.586 97.8765 466.269 97.3759 466.117C90.1201 463.435 82.4383 462.083 74.7007 462.127C48.0914 462.127 28 480.26 28 507.676C28 537.148 42.4925 553.975 70.8479 553.975" fill="white"/>
</svg>
