<svg width="66" height="76" viewBox="0 0 66 76" fill="none" xmlns="http://www.w3.org/2000/svg">
<path d="M15.833 14.6105L18.1512 15.9005L20.4503 11.5654C20.5524 11.3689 20.3481 11.1528 20.1565 11.2511L15.8521 13.4514C15.3923 13.6871 15.3796 14.3616 15.833 14.6105Z" fill="white"/>
<path d="M32.9988 39.026C22.4487 39.026 16.3945 32.8179 16.3945 21.9996C16.3945 18.1491 17.1545 14.8551 18.6425 12.2029C18.8213 11.8886 19.2109 11.7838 19.5174 11.9606C19.824 12.144 19.9261 12.5435 19.7537 12.8578C18.3743 15.3135 17.6718 18.3848 17.6718 21.9996C17.6718 32.1368 23.1129 37.7162 32.9988 37.7162C36.5496 37.7162 39.5575 37.0025 41.9269 35.5945C42.2334 35.4111 42.623 35.5225 42.8018 35.8303C42.9806 36.138 42.872 36.5441 42.5719 36.7274C40.0046 38.2532 36.7859 39.026 33.0052 39.026H32.9988Z" fill="white"/>
<path d="M50.1719 29.3799L47.8537 28.0898L45.5546 32.425C45.4524 32.6215 45.6568 32.8376 45.8484 32.7393L50.1463 30.5456C50.6061 30.3098 50.6189 29.6353 50.1655 29.3865L50.1719 29.3799Z" fill="white"/>
<path d="M46.7996 32.1231C46.6911 32.1231 46.5825 32.0969 46.4803 32.038C46.1738 31.8546 46.0716 31.4552 46.244 31.1408C47.6235 28.6917 48.3259 25.6138 48.3259 21.999C48.3259 11.8618 42.8848 6.28237 32.9989 6.28237C29.4481 6.28237 26.4402 6.99617 24.0709 8.40412C23.7643 8.58748 23.3748 8.47615 23.196 8.16837C23.0171 7.85404 23.1257 7.45457 23.4259 7.27121C25.9995 5.74539 29.2182 4.97266 32.9989 4.97266C43.549 4.97266 49.6032 11.1807 49.6032 21.999C49.6032 25.8496 48.8432 29.1435 47.3488 31.7957C47.2275 32.0052 47.0168 32.1231 46.7932 32.1231H46.7996Z" fill="white"/>
<path d="M29.6768 32.1136C28.3357 32.1136 27.25 31.0004 27.25 29.6252C27.25 28.25 28.3421 27.1367 29.6768 27.1367C31.0115 27.1367 32.1036 28.25 32.1036 29.6252C32.1036 31.0004 31.0115 32.1136 29.6768 32.1136ZM29.6768 28.3875C29.0062 28.3875 28.4634 28.9441 28.4634 29.6317C28.4634 30.3193 29.0062 30.876 29.6768 30.876C30.3473 30.876 30.8902 30.3193 30.8902 29.6317C30.8902 28.9441 30.3473 28.3875 29.6768 28.3875Z" fill="white"/>
<path d="M36.3252 32.1136C34.9841 32.1136 33.8984 31.0004 33.8984 29.6252C33.8984 28.25 34.9905 27.1367 36.3252 27.1367C37.66 27.1367 38.752 28.25 38.752 29.6252C38.752 31.0004 37.66 32.1136 36.3252 32.1136ZM36.3252 28.3875C35.6547 28.3875 35.1118 28.9441 35.1118 29.6317C35.1118 30.3193 35.6547 30.876 36.3252 30.876C36.9958 30.876 37.5386 30.3193 37.5386 29.6317C37.5386 28.9441 36.9958 28.3875 36.3252 28.3875Z" fill="white"/>
<path d="M38.5335 28.3958H27.4661C26.4188 28.3958 25.5183 27.6689 25.2629 26.6342L23.2767 18.4092C23.1937 18.0752 23.3917 17.7413 23.7174 17.6561C24.0431 17.571 24.3688 17.774 24.4518 18.108L26.4379 26.333C26.5529 26.8176 26.9744 27.1516 27.4597 27.1516H38.5272C39.0125 27.1516 39.434 26.8176 39.549 26.333L41.5351 18.108C41.6181 17.774 41.9438 17.571 42.2695 17.6561C42.5952 17.7413 42.7932 18.0752 42.7102 18.4092L40.724 26.6342C40.475 27.6755 39.5681 28.3958 38.5208 28.3958H38.5335Z" fill="white"/>
<path d="M43.3777 18.881H22.6223C22.2902 18.881 22.0156 18.5994 22.0156 18.2588C22.0156 17.9183 22.2902 17.6367 22.6223 17.6367H43.3777C43.7098 17.6367 43.9844 17.9183 43.9844 18.2588C43.9844 18.5994 43.7098 18.881 43.3777 18.881Z" fill="white"/>
<path d="M28.9856 15.8185C28.6535 15.8185 28.3789 15.5369 28.3789 15.1964V14.3582C28.3789 12.9961 29.4646 11.8828 30.7929 11.8828H34.4075C35.6529 11.8828 36.6874 12.8389 36.8088 14.1093C36.8407 14.4499 36.598 14.7576 36.266 14.7904C35.9339 14.8297 35.6337 14.5743 35.6018 14.2338C35.5379 13.6051 35.027 13.127 34.4075 13.127H30.7929C30.1287 13.127 29.5923 13.6771 29.5923 14.3582V15.1964C29.5923 15.5369 29.3177 15.8185 28.9856 15.8185Z" fill="white"/>
<path d="M41.4688 18.8796C41.1367 18.8796 40.8621 18.598 40.8621 18.2575V16.0965C40.8621 15.422 40.3256 14.8653 39.6615 14.8653H36.0468C35.3827 14.8653 34.8462 15.4154 34.8462 16.0965V18.2575C34.8462 18.598 34.5716 18.8796 34.2395 18.8796C33.9074 18.8796 33.6328 18.598 33.6328 18.2575V16.0965C33.6328 14.7344 34.7185 13.6211 36.0468 13.6211H39.6615C40.9898 13.6211 42.0755 14.7278 42.0755 16.0965V18.2575C42.0755 18.598 41.8009 18.8796 41.4688 18.8796Z" fill="white"/>
<path d="M31.7696 18.8766C31.4375 18.8766 31.1629 18.5951 31.1629 18.2545V17.0496C31.1629 16.3751 30.6264 15.8185 29.9622 15.8185H26.3476C25.6834 15.8185 25.147 16.3685 25.147 17.0496V18.1825C25.147 18.523 24.8724 18.8046 24.5403 18.8046C24.2082 18.8046 23.9336 18.523 23.9336 18.1825V17.0496C23.9336 15.6875 25.0193 14.5742 26.3476 14.5742H29.9622C31.2906 14.5742 32.3762 15.6809 32.3762 17.0496V18.2545C32.3762 18.5951 32.1016 18.8766 31.7696 18.8766Z" fill="white"/>
<path d="M19.4433 57.732C19.4433 57.508 19.4106 57.3073 19.3453 57.13C19.28 56.9527 19.1633 56.7893 18.9953 56.64C18.8273 56.4907 18.594 56.346 18.2953 56.206C18.006 56.066 17.6373 55.9167 17.1893 55.758C16.6386 55.562 16.1766 55.3707 15.8033 55.184C15.43 54.988 15.1313 54.778 14.9073 54.554C14.6833 54.33 14.52 54.0827 14.4173 53.812C14.324 53.5413 14.2773 53.2287 14.2773 52.874C14.2773 52.1367 14.548 51.5487 15.0893 51.11C15.6306 50.6713 16.424 50.452 17.4693 50.452C17.9826 50.452 18.454 50.5173 18.8833 50.648C19.3126 50.7693 19.7233 50.942 20.1153 51.166L19.6953 52.034C19.35 51.8193 18.9906 51.656 18.6173 51.544C18.244 51.4227 17.8613 51.362 17.4693 51.362C16.7413 51.362 16.2046 51.4927 15.8593 51.754C15.5233 52.006 15.3553 52.356 15.3553 52.804C15.3553 53.0373 15.3926 53.2427 15.4673 53.42C15.542 53.5973 15.6633 53.7607 15.8313 53.91C16.0086 54.0593 16.242 54.2087 16.5313 54.358C16.8206 54.498 17.1846 54.652 17.6233 54.82C18.1646 55.0253 18.6173 55.2167 18.9813 55.394C19.3546 55.5713 19.6533 55.7673 19.8773 55.982C20.1106 56.1873 20.274 56.4253 20.3673 56.696C20.47 56.9573 20.5213 57.2747 20.5213 57.648C20.5213 58.4133 20.2413 59.02 19.6813 59.468C19.1306 59.916 18.2766 60.14 17.1193 60.14C16.5313 60.14 15.9713 60.07 15.4393 59.93C14.9073 59.79 14.4546 59.608 14.0813 59.384L14.4733 58.544C14.8746 58.7587 15.29 58.9313 15.7193 59.062C16.1486 59.1833 16.6013 59.244 17.0773 59.244C17.8706 59.244 18.4633 59.1133 18.8553 58.852C19.2473 58.5813 19.4433 58.208 19.4433 57.732ZM21.6089 56.612C21.6089 55.3987 21.8516 54.5073 22.3369 53.938C22.8316 53.3687 23.6156 53.084 24.6889 53.084C25.7529 53.084 26.5276 53.3687 27.0129 53.938C27.5076 54.5073 27.7549 55.3987 27.7549 56.612C27.7549 57.8253 27.5076 58.7167 27.0129 59.286C26.5183 59.8553 25.7436 60.14 24.6889 60.14C23.6249 60.14 22.8456 59.8553 22.3509 59.286C21.8563 58.7167 21.6089 57.8253 21.6089 56.612ZM22.6869 56.612C22.6869 57.536 22.8456 58.208 23.1629 58.628C23.4803 59.0387 23.9889 59.244 24.6889 59.244C25.3889 59.244 25.8976 59.0387 26.2149 58.628C26.5323 58.208 26.6909 57.536 26.6909 56.612C26.6909 55.7067 26.5323 55.044 26.2149 54.624C25.8976 54.204 25.3889 53.994 24.6889 53.994C23.9889 53.994 23.4803 54.204 23.1629 54.624C22.8456 55.044 22.6869 55.7067 22.6869 56.612ZM33.5681 59.328C33.2508 59.58 32.9008 59.7807 32.5181 59.93C32.1354 60.07 31.7341 60.14 31.3141 60.14C30.5301 60.14 29.9654 59.9533 29.6201 59.58C29.2748 59.2067 29.1021 58.5953 29.1021 57.746V53.224H30.1801V57.452C30.1801 58.124 30.2874 58.5907 30.5021 58.852C30.7261 59.1133 31.0668 59.244 31.5241 59.244C32.1774 59.244 32.8261 59.006 33.4701 58.53V53.224H34.5481V60H33.7361L33.5681 59.328ZM37.1022 53.224L37.2282 54.12C37.5362 53.784 37.8816 53.5273 38.2642 53.35C38.6469 53.1727 39.0342 53.084 39.4262 53.084C39.5849 53.084 39.7202 53.098 39.8322 53.126C39.9536 53.1447 40.0796 53.1773 40.2102 53.224V54.176C39.9302 54.064 39.6362 54.008 39.3282 54.008C38.9736 54.008 38.6189 54.106 38.2642 54.302C37.9096 54.498 37.6062 54.7453 37.3542 55.044V60H36.2902V53.224H37.1022ZM43.8317 59.244C44.4851 59.244 45.0684 59.0807 45.5817 58.754L45.8897 59.608C45.6191 59.7667 45.3064 59.8973 44.9517 60C44.6064 60.0933 44.2331 60.14 43.8317 60.14C42.7211 60.14 41.9091 59.8647 41.3957 59.314C40.8824 58.754 40.6257 57.8533 40.6257 56.612C40.6257 55.3987 40.8731 54.5073 41.3677 53.938C41.8624 53.3687 42.6371 53.084 43.6917 53.084C44.5971 53.084 45.3391 53.3593 45.9177 53.91L45.3297 54.638C45.1244 54.4327 44.8817 54.274 44.6017 54.162C44.3311 54.0407 44.0371 53.98 43.7197 53.98C43.0477 53.98 42.5391 54.1853 42.1937 54.596C41.8577 54.9973 41.6897 55.6693 41.6897 56.612C41.6897 57.5547 41.8671 58.2313 42.2217 58.642C42.5764 59.0433 43.1131 59.244 43.8317 59.244ZM49.4827 60.14C48.3814 60.14 47.5974 59.8553 47.1307 59.286C46.6734 58.7073 46.4447 57.816 46.4447 56.612C46.4447 55.3987 46.678 54.5073 47.1447 53.938C47.6114 53.3687 48.3254 53.084 49.2867 53.084C50.248 53.084 50.962 53.364 51.4287 53.924C51.8954 54.4747 52.1287 55.352 52.1287 56.556V57.004H47.5367C47.574 57.8067 47.7467 58.3807 48.0547 58.726C48.3627 59.0713 48.8434 59.244 49.4967 59.244C49.8887 59.244 50.2714 59.188 50.6447 59.076C51.0274 58.9547 51.382 58.7913 51.7087 58.586L52.0587 59.44C51.704 59.6547 51.3027 59.8273 50.8547 59.958C50.416 60.0793 49.9587 60.14 49.4827 60.14ZM51.0367 56.136C50.99 55.408 50.8267 54.8713 50.5467 54.526C50.2667 54.1713 49.8467 53.994 49.2867 53.994C48.7267 53.994 48.3067 54.1713 48.0267 54.526C47.7467 54.8713 47.5834 55.408 47.5367 56.136H51.0367ZM8.26419 67.854C8.59085 67.6113 8.92685 67.4247 9.27219 67.294C9.61752 67.154 9.98619 67.084 10.3782 67.084C10.8542 67.084 11.2322 67.154 11.5122 67.294C11.8015 67.434 12.0162 67.6673 12.1562 67.994C12.4829 67.7233 12.8375 67.504 13.2202 67.336C13.6122 67.168 14.0182 67.084 14.4382 67.084C14.8302 67.084 15.1569 67.1307 15.4182 67.224C15.6795 67.308 15.8895 67.448 16.0482 67.644C16.2162 67.84 16.3329 68.092 16.3982 68.4C16.4635 68.6987 16.4962 69.0627 16.4962 69.492V74H15.4322V69.786C15.4322 69.114 15.3389 68.6473 15.1522 68.386C14.9749 68.1247 14.6715 67.994 14.2422 67.994C13.6262 67.994 13.0055 68.246 12.3802 68.75C12.4082 68.9647 12.4222 69.212 12.4222 69.492V74H11.3582V69.786C11.3582 69.1233 11.2742 68.6613 11.1062 68.4C10.9382 68.1293 10.6255 67.994 10.1682 67.994C9.86019 67.994 9.56152 68.0547 9.27219 68.176C8.98285 68.288 8.67952 68.4653 8.36219 68.708V74H7.29819V67.224H8.09619L8.26419 67.854ZM23.0767 74H22.2787L22.1107 73.37C21.8307 73.6127 21.4994 73.804 21.1167 73.944C20.7434 74.0747 20.3327 74.14 19.8847 74.14C19.1847 74.14 18.6574 73.9627 18.3027 73.608C17.9574 73.244 17.7847 72.726 17.7847 72.054C17.7847 71.3633 17.9994 70.8547 18.4287 70.528C18.8581 70.192 19.5767 70.024 20.5847 70.024C20.8834 70.024 21.1447 70.0287 21.3687 70.038C21.6021 70.0473 21.8167 70.066 22.0127 70.094V69.716C22.0127 69.0907 21.8914 68.6473 21.6487 68.386C21.4061 68.1153 20.9767 67.98 20.3607 67.98C20.0714 67.98 19.7541 68.0313 19.4087 68.134C19.0727 68.2273 18.7321 68.3673 18.3867 68.554L18.0647 67.742C18.4381 67.5367 18.8347 67.378 19.2547 67.266C19.6747 67.1447 20.1087 67.084 20.5567 67.084C21.0327 67.084 21.4294 67.1307 21.7467 67.224C22.0734 67.3173 22.3347 67.4713 22.5307 67.686C22.7267 67.8913 22.8667 68.1573 22.9507 68.484C23.0347 68.8107 23.0767 69.212 23.0767 69.688V74ZM20.1787 73.258C20.4867 73.258 20.8041 73.1927 21.1307 73.062C21.4667 72.922 21.7607 72.74 22.0127 72.516V70.962C21.7701 70.934 21.5274 70.9153 21.2847 70.906C21.0421 70.8873 20.7714 70.878 20.4727 70.878C19.8847 70.878 19.4647 70.9667 19.2127 71.144C18.9701 71.3213 18.8487 71.62 18.8487 72.04C18.8487 72.4413 18.9514 72.7447 19.1567 72.95C19.3621 73.1553 19.7027 73.258 20.1787 73.258ZM26.2457 68.134V71.48C26.2457 71.788 26.2597 72.054 26.2877 72.278C26.3157 72.502 26.3717 72.6887 26.4557 72.838C26.549 72.978 26.675 73.0807 26.8337 73.146C27.0017 73.2113 27.2257 73.244 27.5057 73.244C27.711 73.244 27.9117 73.2207 28.1077 73.174C28.313 73.1273 28.509 73.0713 28.6957 73.006L28.9057 73.818C28.3457 74.0327 27.781 74.14 27.2117 74.14C26.801 74.14 26.4603 74.084 26.1897 73.972C25.9283 73.86 25.7183 73.706 25.5597 73.51C25.4103 73.3047 25.3077 73.062 25.2517 72.782C25.1957 72.4927 25.1677 72.1753 25.1677 71.83V68.134H24.0617V67.224H25.1677V65.796L26.2457 65.6V67.224H28.6397V68.134H26.2457ZM32.6127 74.14C31.5114 74.14 30.7274 73.8553 30.2607 73.286C29.8034 72.7073 29.5747 71.816 29.5747 70.612C29.5747 69.3987 29.808 68.5073 30.2747 67.938C30.7414 67.3687 31.4554 67.084 32.4167 67.084C33.378 67.084 34.092 67.364 34.5587 67.924C35.0254 68.4747 35.2587 69.352 35.2587 70.556V71.004H30.6667C30.704 71.8067 30.8767 72.3807 31.1847 72.726C31.4927 73.0713 31.9734 73.244 32.6267 73.244C33.0187 73.244 33.4014 73.188 33.7747 73.076C34.1574 72.9547 34.512 72.7913 34.8387 72.586L35.1887 73.44C34.834 73.6547 34.4327 73.8273 33.9847 73.958C33.546 74.0793 33.0887 74.14 32.6127 74.14ZM34.1667 70.136C34.12 69.408 33.9567 68.8713 33.6767 68.526C33.3967 68.1713 32.9767 67.994 32.4167 67.994C31.8567 67.994 31.4367 68.1713 31.1567 68.526C30.8767 68.8713 30.7134 69.408 30.6667 70.136H34.1667ZM37.4987 67.224L37.6247 68.12C37.9327 67.784 38.278 67.5273 38.6607 67.35C39.0434 67.1727 39.4307 67.084 39.8227 67.084C39.9814 67.084 40.1167 67.098 40.2287 67.126C40.35 67.1447 40.476 67.1773 40.6067 67.224V68.176C40.3267 68.064 40.0327 68.008 39.7247 68.008C39.37 68.008 39.0154 68.106 38.6607 68.302C38.306 68.498 38.0027 68.7453 37.7507 69.044V74H36.6867V67.224H37.4987ZM41.5936 67.224H42.6576V74H41.5936V67.224ZM41.5796 64.312H42.6576V65.712H41.5796V64.312ZM49.4662 74H48.6682L48.5002 73.37C48.2202 73.6127 47.8889 73.804 47.5062 73.944C47.1329 74.0747 46.7222 74.14 46.2742 74.14C45.5742 74.14 45.0469 73.9627 44.6922 73.608C44.3469 73.244 44.1742 72.726 44.1742 72.054C44.1742 71.3633 44.3889 70.8547 44.8182 70.528C45.2475 70.192 45.9662 70.024 46.9742 70.024C47.2729 70.024 47.5342 70.0287 47.7582 70.038C47.9915 70.0473 48.2062 70.066 48.4022 70.094V69.716C48.4022 69.0907 48.2809 68.6473 48.0382 68.386C47.7955 68.1153 47.3662 67.98 46.7502 67.98C46.4609 67.98 46.1435 68.0313 45.7982 68.134C45.4622 68.2273 45.1215 68.3673 44.7762 68.554L44.4542 67.742C44.8275 67.5367 45.2242 67.378 45.6442 67.266C46.0642 67.1447 46.4982 67.084 46.9462 67.084C47.4222 67.084 47.8189 67.1307 48.1362 67.224C48.4629 67.3173 48.7242 67.4713 48.9202 67.686C49.1162 67.8913 49.2562 68.1573 49.3402 68.484C49.4242 68.8107 49.4662 69.212 49.4662 69.688V74ZM46.5682 73.258C46.8762 73.258 47.1935 73.1927 47.5202 73.062C47.8562 72.922 48.1502 72.74 48.4022 72.516V70.962C48.1595 70.934 47.9169 70.9153 47.6742 70.906C47.4315 70.8873 47.1609 70.878 46.8622 70.878C46.2742 70.878 45.8542 70.9667 45.6022 71.144C45.3595 71.3213 45.2382 71.62 45.2382 72.04C45.2382 72.4413 45.3409 72.7447 45.5462 72.95C45.7515 73.1553 46.0922 73.258 46.5682 73.258ZM53.0131 74.098C52.9664 74.1167 52.9011 74.126 52.8171 74.126C52.7331 74.1353 52.6631 74.14 52.6071 74.14C52.1311 74.14 51.7858 74 51.5711 73.72C51.3658 73.4307 51.2631 72.992 51.2631 72.404V64.284L52.3271 64.116V72.25C52.3271 72.4647 52.3364 72.6373 52.3551 72.768C52.3738 72.8987 52.4064 73.0013 52.4531 73.076C52.5091 73.1507 52.5791 73.202 52.6631 73.23C52.7564 73.2487 52.8731 73.258 53.0131 73.258V74.098ZM55.9417 69.8C56.1564 69.884 56.4224 69.9773 56.7397 70.08C57.0664 70.1827 57.3884 70.2947 57.7057 70.416C58.6111 70.752 59.0637 71.354 59.0637 72.222C59.0637 72.838 58.8491 73.314 58.4197 73.65C57.9904 73.986 57.2997 74.154 56.3477 74.154C55.8157 74.154 55.3631 74.0933 54.9897 73.972C54.6164 73.8507 54.2804 73.706 53.9817 73.538L54.3317 72.698C54.6024 72.8567 54.9104 72.992 55.2557 73.104C55.6011 73.216 55.9697 73.272 56.3617 73.272C56.9591 73.272 57.3791 73.1927 57.6217 73.034C57.8644 72.866 57.9857 72.614 57.9857 72.278C57.9857 71.83 57.7197 71.4987 57.1877 71.284C56.8891 71.1627 56.5764 71.0507 56.2497 70.948C55.9324 70.8453 55.6291 70.7427 55.3397 70.64C54.9664 70.5093 54.6677 70.3087 54.4437 70.038C54.2291 69.758 54.1217 69.394 54.1217 68.946C54.1217 68.4047 54.3317 67.9567 54.7517 67.602C55.1811 67.2473 55.8204 67.07 56.6697 67.07C57.1177 67.07 57.5191 67.1167 57.8737 67.21C58.2284 67.294 58.5271 67.3967 58.7697 67.518L58.4477 68.33C58.1771 68.1993 57.9064 68.106 57.6357 68.05C57.3651 67.9847 57.0337 67.952 56.6417 67.952C56.3617 67.952 56.1284 67.98 55.9417 68.036C55.7551 68.092 55.6057 68.1667 55.4937 68.26C55.3911 68.344 55.3164 68.442 55.2697 68.554C55.2231 68.666 55.1997 68.778 55.1997 68.89C55.1997 69.114 55.2557 69.296 55.3677 69.436C55.4797 69.576 55.6711 69.6973 55.9417 69.8Z" fill="white"/>
</svg>
