<svg width="115" height="140" viewBox="0 0 115 140" fill="none" xmlns="http://www.w3.org/2000/svg">
<path d="M80.4053 38.889C79.3651 38.889 78.4832 38.0863 78.3928 37.0235C78.3023 35.9154 79.139 34.9431 80.247 34.8527L80.7219 34.8187C82.0334 34.7283 84.7695 34.5248 87.076 34.163C93.7694 33.1115 99.3886 28.2837 101.39 21.873C101.571 21.2964 101.695 20.7876 101.786 20.3693C102.453 17.1696 102.6 12.9071 102.634 10.6459C91.6664 12.0818 84.6112 15.6206 81.6377 21.1607C80.7219 22.8567 80.4053 25.1632 80.247 26.746C80.1339 27.8541 79.139 28.6342 78.0309 28.5437C76.9229 28.4307 76.1202 27.4357 76.2333 26.3277C76.4255 24.4056 76.8325 21.5791 78.0875 19.25C81.7169 12.4888 89.7896 8.24894 102.091 6.64345C103.289 6.48516 104.454 6.85827 105.336 7.6384C106.206 8.40723 106.693 9.52656 106.681 10.6911C106.647 13.6307 106.455 17.8254 105.754 21.1833C105.652 21.7034 105.483 22.3366 105.268 23.0602C102.814 30.9294 95.9289 36.8426 87.7318 38.1315C85.267 38.5159 82.4178 38.7307 81.0385 38.8325L80.5862 38.8664C80.5862 38.8664 80.4845 38.8664 80.4279 38.8664L80.4053 38.889Z" fill="white"/>
<path d="M72.8644 32.1394C72.4234 32.1394 71.9824 31.9924 71.6093 31.6984C71.5867 31.6758 68.9976 29.6407 66.5102 28.6231C65.4813 28.2048 64.9838 27.0289 65.4022 26.0001C65.8205 24.9599 66.9964 24.4624 68.0253 24.892C71.0553 26.1244 73.9837 28.4422 74.1081 28.544C74.9787 29.2337 75.1256 30.5 74.4359 31.3819C74.0402 31.8793 73.4523 32.1507 72.8531 32.1507L72.8644 32.1394Z" fill="white"/>
<path d="M71.1685 38.358C71.1685 38.358 71.0893 38.358 71.0554 38.358C59.1272 37.691 55.2039 28.4876 54.5369 26.656C53.7002 24.3382 53.1236 21.3986 52.7844 19.3295C52.5922 18.1763 52.92 17.0004 53.6663 16.1072C54.4238 15.2027 55.5431 14.6713 56.7303 14.6487C64.9274 14.5131 70.0378 15.7454 73.441 18.6059C73.4636 18.6059 77.5566 21.4551 79.9648 25.548C80.5301 26.509 80.2022 27.7414 79.2412 28.3067C78.2915 28.8721 77.0478 28.5442 76.4824 27.5831C74.5377 24.2817 71.0328 21.8282 70.9989 21.8056C68.2401 19.4991 63.8872 18.5946 56.7868 18.6851C57.0695 20.5732 57.5896 23.2641 58.3245 25.288C58.8333 26.7126 61.8747 33.8129 71.2702 34.3443C72.3783 34.4008 73.2375 35.3619 73.1697 36.4699C73.1132 37.544 72.22 38.3693 71.1572 38.3693L71.1685 38.358Z" fill="white"/>
<path d="M16.1532 74.186C15.0338 74.186 14.1406 73.2815 14.1406 72.1735V60.1323C14.1406 57.9502 15.226 55.9716 17.1255 54.7166C19.1946 53.3485 21.8176 53.1111 24.1241 54.0947L43.4693 63.4111V57.1135C43.4693 54.9314 44.5547 52.9528 46.4541 51.6978C48.5232 50.3297 51.1462 50.0923 53.4527 51.0759L75.8506 60.5732L75.7149 52.3875C75.7149 44.213 75.7149 30.5889 91.1481 19.113C92.0413 18.446 93.3076 18.6382 93.9747 19.5314C94.6417 20.4246 94.4495 21.6909 93.5563 22.3579C79.7513 32.6241 79.7513 44.507 79.7513 52.3648L79.9322 63.6259C79.9322 64.3043 79.6043 64.9487 79.039 65.3332C78.4737 65.7176 77.7614 65.7854 77.1282 65.5141L51.8812 54.807C50.8184 54.3548 49.6199 54.4678 48.6815 55.0784C48.2406 55.3723 47.5056 56.0281 47.5056 57.1361V66.6447C47.5056 67.3344 47.1438 67.9788 46.5672 68.3519C45.9906 68.7251 45.2443 68.759 44.6225 68.465L22.4734 57.7919C21.501 57.3848 20.3026 57.4866 19.3641 58.1084C18.9232 58.4024 18.1883 59.0582 18.1883 60.1662V72.2074C18.1883 73.3267 17.2838 74.2199 16.1758 74.2199L16.1532 74.186Z" fill="white"/>
<path d="M16.1532 105.38C15.0338 105.38 14.1406 104.476 14.1406 103.368V72.1739C14.1406 71.0546 15.0451 70.1614 16.1532 70.1614C17.2612 70.1614 18.1657 71.0659 18.1657 72.1739V103.368C18.1657 104.487 17.2612 105.38 16.1532 105.38Z" fill="white"/>
<path d="M98.8564 105.381C97.7371 105.381 96.8439 104.477 96.8439 103.368V54.6836C96.8439 53.2477 95.6793 52.0831 94.2434 52.0831H86.7587C85.6393 52.0831 84.7461 51.1786 84.7461 50.0706C84.7461 48.9626 85.6506 48.0581 86.7587 48.0581H94.2434C97.9067 48.0581 100.88 51.0317 100.88 54.6949V103.38C100.88 104.499 99.9758 105.392 98.8678 105.392L98.8564 105.381Z" fill="white"/>
<path d="M72.2806 81.7605H69.6688C68.5573 81.7605 67.6562 82.6615 67.6562 83.773V86.3848C67.6562 87.4963 68.5573 88.3973 69.6688 88.3973H72.2806C73.3921 88.3973 74.2931 87.4963 74.2931 86.3848V83.773C74.2931 82.6615 73.3921 81.7605 72.2806 81.7605Z" fill="white"/>
<path d="M58.7806 81.7605H56.1688C55.0573 81.7605 54.1562 82.6615 54.1562 83.773V86.3848C54.1562 87.4963 55.0573 88.3973 56.1688 88.3973H58.7806C59.8921 88.3973 60.7931 87.4963 60.7931 86.3848V83.773C60.7931 82.6615 59.8921 81.7605 58.7806 81.7605Z" fill="white"/>
<path d="M45.2688 81.7605H42.6571C41.5456 81.7605 40.6445 82.6615 40.6445 83.773V86.3848C40.6445 87.4963 41.5456 88.3973 42.6571 88.3973H45.2688C46.3803 88.3973 47.2814 87.4963 47.2814 86.3848V83.773C47.2814 82.6615 46.3803 81.7605 45.2688 81.7605Z" fill="white"/>
<path d="M106.22 105.38H8.78206C7.66273 105.38 6.76953 104.475 6.76953 103.367C6.76953 102.259 7.67404 101.354 8.78206 101.354H106.22C107.339 101.354 108.233 102.259 108.233 103.367C108.233 104.475 107.328 105.38 106.22 105.38Z" fill="white"/>
<path d="M5.13847 128.976V135H2.61847V118.872H8.37847C10.2505 118.872 11.6585 119.288 12.6025 120.12C13.5625 120.952 14.0425 122.208 14.0425 123.888C14.0425 125.568 13.5705 126.84 12.6265 127.704C11.6985 128.552 10.3225 128.976 8.49847 128.976H5.13847ZM5.13847 120.96V126.888H8.47447C9.43447 126.888 10.1785 126.64 10.7065 126.144C11.2505 125.648 11.5225 124.896 11.5225 123.888C11.5225 122.928 11.2505 122.2 10.7065 121.704C10.1785 121.208 9.43447 120.96 8.47447 120.96H5.13847ZM17.8643 123.384L18.1043 124.776C19.0963 123.688 20.2723 123.144 21.6323 123.144C22.1763 123.144 22.7123 123.256 23.2403 123.48V125.616C22.9683 125.488 22.6883 125.392 22.4003 125.328C22.1283 125.248 21.8323 125.208 21.5123 125.208C20.9363 125.208 20.3763 125.344 19.8323 125.616C19.2883 125.888 18.8243 126.232 18.4403 126.648V135H15.9443V123.384H17.8643ZM24.0625 129.192C24.0625 127.08 24.5025 125.544 25.3825 124.584C26.2785 123.624 27.6705 123.144 29.5585 123.144C31.4465 123.144 32.8305 123.632 33.7105 124.608C34.6065 125.584 35.0545 127.112 35.0545 129.192C35.0545 131.304 34.6065 132.84 33.7105 133.8C32.8305 134.76 31.4465 135.24 29.5585 135.24C27.6705 135.24 26.2785 134.76 25.3825 133.8C24.5025 132.84 24.0625 131.304 24.0625 129.192ZM26.5345 129.192C26.5345 130.552 26.7665 131.568 27.2305 132.24C27.7105 132.896 28.4865 133.224 29.5585 133.224C30.6305 133.224 31.3985 132.896 31.8625 132.24C32.3265 131.568 32.5585 130.552 32.5585 129.192C32.5585 127.832 32.3265 126.824 31.8625 126.168C31.3985 125.512 30.6305 125.184 29.5585 125.184C28.4865 125.184 27.7105 125.512 27.2305 126.168C26.7665 126.824 26.5345 127.832 26.5345 129.192ZM47.2926 118.056V135H45.3966L45.0606 134.112C44.2766 134.864 43.2686 135.24 42.0366 135.24C40.4046 135.24 39.1566 134.752 38.2926 133.776C37.4446 132.8 37.0206 131.272 37.0206 129.192C37.0206 127.128 37.4286 125.608 38.2446 124.632C39.0606 123.64 40.1886 123.144 41.6286 123.144C42.3006 123.144 42.9006 123.24 43.4286 123.432C43.9726 123.624 44.4286 123.88 44.7966 124.2V118.344L47.2926 118.056ZM42.3486 133.248C42.8286 133.248 43.2766 133.168 43.6926 133.008C44.1086 132.832 44.4766 132.6 44.7966 132.312V126.12C44.4766 125.816 44.1086 125.584 43.6926 125.424C43.2766 125.248 42.8366 125.16 42.3726 125.16C41.4126 125.16 40.6926 125.472 40.2126 126.096C39.7326 126.72 39.4926 127.752 39.4926 129.192C39.4926 130.664 39.7246 131.712 40.1886 132.336C40.6686 132.944 41.3886 133.248 42.3486 133.248ZM57.8078 133.968C57.2958 134.368 56.7278 134.68 56.1038 134.904C55.4798 135.128 54.8078 135.24 54.0878 135.24C52.7438 135.24 51.7598 134.92 51.1358 134.28C50.5278 133.624 50.2238 132.576 50.2238 131.136V123.384H52.6958V130.608C52.6958 131.584 52.8478 132.272 53.1518 132.672C53.4718 133.056 53.9678 133.248 54.6398 133.248C55.1518 133.248 55.6398 133.168 56.1038 133.008C56.5838 132.832 57.0718 132.584 57.5678 132.264V123.384H60.0398V135H58.1918L57.8078 133.968ZM68.275 133.2C68.867 133.2 69.419 133.128 69.931 132.984C70.443 132.824 70.947 132.608 71.443 132.336L72.043 134.256C71.547 134.56 70.979 134.8 70.339 134.976C69.699 135.152 69.011 135.24 68.275 135.24C66.275 135.24 64.811 134.76 63.883 133.8C62.971 132.84 62.515 131.304 62.515 129.192C62.515 127.112 62.963 125.584 63.859 124.608C64.755 123.632 66.147 123.144 68.035 123.144C69.731 123.144 71.099 123.648 72.139 124.656L70.843 126.336C70.075 125.568 69.163 125.184 68.107 125.184C67.099 125.184 66.331 125.488 65.803 126.096C65.275 126.704 65.011 127.736 65.011 129.192C65.011 130.632 65.283 131.664 65.827 132.288C66.371 132.896 67.187 133.2 68.275 133.2ZM77.5313 125.424V130.728C77.5313 131.656 77.6593 132.304 77.9153 132.672C78.1713 133.04 78.6673 133.224 79.4033 133.224C79.7713 133.224 80.1393 133.168 80.5073 133.056C80.8913 132.944 81.2513 132.816 81.5873 132.672L82.0673 134.52C81.5553 134.76 81.0113 134.936 80.4353 135.048C79.8593 135.176 79.2913 135.24 78.7313 135.24C78.0273 135.24 77.4353 135.152 76.9553 134.976C76.4913 134.8 76.1153 134.544 75.8273 134.208C75.5553 133.856 75.3553 133.432 75.2273 132.936C75.1153 132.44 75.0593 131.864 75.0593 131.208V125.424H73.1633V123.384H75.0593V121.056L77.5313 120.6V123.384H81.6353V125.424H77.5313ZM84.2773 123.384H86.7733V135H84.2773V123.384ZM84.2773 118.392H86.7733V121.008H84.2773V118.392ZM89.5065 129.192C89.5065 127.08 89.9465 125.544 90.8265 124.584C91.7225 123.624 93.1145 123.144 95.0025 123.144C96.8905 123.144 98.2745 123.632 99.1545 124.608C100.051 125.584 100.499 127.112 100.499 129.192C100.499 131.304 100.051 132.84 99.1545 133.8C98.2745 134.76 96.8905 135.24 95.0025 135.24C93.1145 135.24 91.7225 134.76 90.8265 133.8C89.9465 132.84 89.5065 131.304 89.5065 129.192ZM91.9785 129.192C91.9785 130.552 92.2105 131.568 92.6745 132.24C93.1545 132.896 93.9305 133.224 95.0025 133.224C96.0745 133.224 96.8425 132.896 97.3065 132.24C97.7705 131.568 98.0025 130.552 98.0025 129.192C98.0025 127.832 97.7705 126.824 97.3065 126.168C96.8425 125.512 96.0745 125.184 95.0025 125.184C93.9305 125.184 93.1545 125.512 92.6745 126.168C92.2105 126.824 91.9785 127.832 91.9785 129.192ZM105.201 124.44C105.713 124.04 106.281 123.728 106.905 123.504C107.529 123.264 108.201 123.144 108.921 123.144C110.281 123.144 111.265 123.472 111.873 124.128C112.497 124.784 112.809 125.832 112.809 127.272V135H110.313V127.8C110.313 126.84 110.145 126.16 109.809 125.76C109.489 125.36 109.009 125.16 108.369 125.16C107.857 125.16 107.361 125.248 106.881 125.424C106.417 125.584 105.945 125.824 105.465 126.144V135H102.969V123.384H104.841L105.201 124.44Z" fill="white"/>
</svg>
