<svg width="77" height="63" viewBox="0 0 77 63" fill="none" xmlns="http://www.w3.org/2000/svg">
<g clip-path="url(#clip0_142_673)">
<path d="M51.1837 32.4286H24.4354C22.5391 32.4286 21 30.8938 21 29.0027V13.1134C21 11.2223 22.5391 9.6875 24.4354 9.6875H42.6845C43.0624 9.6875 43.3716 9.99583 43.3716 10.3727C43.3716 10.7495 43.0624 11.0579 42.6845 11.0579H24.4354C23.3017 11.0579 22.3742 11.9828 22.3742 13.1134V29.0027C22.3742 30.1332 23.3017 31.0582 24.4354 31.0582H51.1837C52.3174 31.0582 53.245 30.1332 53.245 29.0027V17.0737C53.245 16.6969 53.5542 16.3885 53.9321 16.3885C54.31 16.3885 54.6192 16.6969 54.6192 17.0737V29.0027C54.6192 30.8938 53.0801 32.4286 51.1837 32.4286Z" fill="white"/>
<path d="M32.8249 37.9965H30.6949C30.317 37.9965 30.0078 37.6882 30.0078 37.3113C30.0078 36.9345 30.317 36.6262 30.6949 36.6262H32.8249C33.9036 36.6262 34.7831 35.7491 34.7831 34.6734V31.7477C34.7831 31.3708 35.0923 31.0625 35.4702 31.0625C35.8481 31.0625 36.1572 31.3708 36.1572 31.7477V34.6734C36.1572 36.5028 34.6594 37.9965 32.8249 37.9965Z" fill="white"/>
<path d="M44.9272 37.9965H42.7972C40.9627 37.9965 39.4648 36.5097 39.4648 34.6734V31.7477C39.4648 31.3708 39.774 31.0625 40.1519 31.0625C40.5298 31.0625 40.839 31.3708 40.839 31.7477V34.6734C40.839 35.7491 41.7185 36.6262 42.7972 36.6262H44.9272C45.3051 36.6262 45.6143 36.9345 45.6143 37.3113C45.6143 37.6882 45.3051 37.9965 44.9272 37.9965Z" fill="white"/>
<path d="M43.749 37.9954H31.773C31.3951 37.9954 31.0859 37.687 31.0859 37.3102C31.0859 36.9333 31.3951 36.625 31.773 36.625H43.749C44.1269 36.625 44.436 36.9333 44.436 37.3102C44.436 37.687 44.1269 37.9954 43.749 37.9954Z" fill="white"/>
<path d="M32.2554 15.1555L32.3516 15.7927L32.4684 16.5601L33.183 16.8616C33.5403 17.0124 33.877 17.2042 34.1862 17.444L34.8045 17.9099L35.526 17.6222L36.1306 17.3823L36.9757 18.8349L36.4673 19.2392L35.8626 19.7188L35.9588 20.4862C35.9863 20.6918 36.0001 20.8768 36.0001 21.0686C36.0001 21.2605 35.9863 21.4455 35.9588 21.651L35.8626 22.4184L36.4673 22.898L36.9757 23.3023L36.1306 24.7549L35.526 24.5151L34.8045 24.2273L34.1862 24.6932C33.877 24.9262 33.5403 25.1249 33.183 25.2756L32.4684 25.5771L32.3516 26.3445L32.2554 26.9817H30.5721L30.4759 26.3445L30.3591 25.5771L29.6445 25.2756C29.2872 25.1249 28.9505 24.933 28.6414 24.6932L28.023 24.2273L27.3015 24.5151L26.6969 24.7549L25.8518 23.3023L26.3602 22.898L26.9649 22.4184L26.8687 21.651C26.8412 21.4455 26.8274 21.2605 26.8274 21.0686C26.8274 20.8768 26.8412 20.6918 26.8687 20.4862L26.9649 19.7188L26.3602 19.2392L25.8518 18.8349L26.6969 17.3823L27.3015 17.6222L28.023 17.9099L28.6414 17.444C28.9505 17.2111 29.2872 17.0124 29.6445 16.8616L30.3591 16.5601L30.4759 15.7927L30.5721 15.1555H32.2554ZM32.4753 13.7852H30.3591C29.8025 13.7852 29.3284 14.1894 29.246 14.7376L29.1223 15.5872C28.6551 15.7859 28.2154 16.0394 27.8169 16.3409L27.013 16.0257C26.8755 15.9709 26.7381 15.9503 26.6007 15.9503C26.2091 15.9503 25.8312 16.1559 25.625 16.5122L24.5669 18.3416C24.2852 18.8212 24.402 19.431 24.8418 19.7805L25.522 20.3149C25.4876 20.5616 25.4739 20.8151 25.4739 21.0686C25.4739 21.3221 25.4945 21.5756 25.522 21.8223L24.8418 22.3567C24.4089 22.6993 24.2921 23.316 24.5669 23.7956L25.625 25.625C25.8312 25.9813 26.2091 26.1869 26.6007 26.1869C26.7381 26.1869 26.8755 26.1595 27.013 26.1115L27.8169 25.7963C28.2154 26.0978 28.6551 26.3513 29.1223 26.55L29.246 27.3997C29.3284 27.9478 29.8025 28.3521 30.3591 28.3521H32.4753C33.0318 28.3521 33.5059 27.9478 33.5884 27.3997L33.7121 26.55C34.1793 26.3513 34.619 26.0978 35.0175 25.7963L35.8214 26.1115C35.9588 26.1663 36.0963 26.1869 36.2337 26.1869C36.6253 26.1869 37.0032 25.9813 37.2093 25.625L38.2675 23.7956C38.5492 23.316 38.4324 22.7062 37.9926 22.3567L37.3124 21.8223C37.3468 21.5756 37.3605 21.3221 37.3605 21.0686C37.3605 20.8151 37.3399 20.5616 37.3124 20.3149L37.9926 19.7805C38.4255 19.4379 38.5423 18.8212 38.2675 18.3416L37.2093 16.5122C37.0032 16.1559 36.6253 15.9503 36.2337 15.9503C36.0963 15.9503 35.9588 15.9777 35.8214 16.0257L35.0175 16.3409C34.619 16.0394 34.1793 15.7859 33.7121 15.5872L33.5884 14.7376C33.5059 14.1894 33.0318 13.7852 32.4753 13.7852Z" fill="white"/>
<path d="M31.4171 19.3547C32.3652 19.3547 33.1279 20.1221 33.1279 21.0608C33.1279 21.9995 32.3584 22.7669 31.4171 22.7669C30.4757 22.7669 29.7062 21.9995 29.7062 21.0608C29.7062 20.1221 30.4757 19.3547 31.4171 19.3547ZM31.4171 17.9844C29.7131 17.9844 28.332 19.3616 28.332 21.0608C28.332 22.7601 29.7131 24.1373 31.4171 24.1373C33.121 24.1373 34.5021 22.7601 34.5021 21.0608C34.5021 19.3616 33.121 17.9844 31.4171 17.9844Z" fill="white"/>
<path d="M44.4364 25.87C44.2302 25.87 44.0241 25.7741 43.8867 25.6028C43.8043 25.4863 41.7911 22.8004 42.0934 18.7647C42.4301 14.2768 47.7138 11.4127 47.9405 11.2963C48.2772 11.1181 48.6894 11.2414 48.8681 11.5772C49.0467 11.9129 48.9231 12.324 48.5864 12.5022C48.5383 12.5296 43.7424 15.1333 43.4607 18.8675C43.1996 22.3619 44.9654 24.7532 44.9792 24.7737C45.2059 25.0752 45.1441 25.5069 44.8418 25.733C44.7181 25.8289 44.5738 25.87 44.4295 25.87H44.4364Z" fill="white"/>
<path d="M44.3322 19.6299C43.3566 19.6299 42.7107 19.4997 42.6351 19.4792C42.2641 19.3969 42.0305 19.0338 42.1129 18.6638C42.1954 18.2938 42.5595 18.0608 42.9306 18.1362C43.1229 18.1773 47.6165 19.0749 51.1138 15.2859C53.9446 12.2163 53.7453 8.80407 53.5048 7.42C52.4605 7.31038 47.7677 7.06371 44.2635 10.2361C42.5046 11.8326 41.7556 13.6825 42.0236 15.7381C42.0717 16.1149 41.8106 16.4575 41.4327 16.5055C41.0617 16.5603 40.7113 16.2931 40.6632 15.9162C40.4296 14.1759 40.7113 11.6065 43.3359 9.22203C47.3348 5.59743 52.6666 5.95372 53.6972 6.06335C54.2812 6.12502 54.7416 6.54983 54.8447 7.12538C55.1195 8.67388 55.4081 12.6548 52.1169 16.2177C49.4373 19.1229 46.2423 19.6299 44.3253 19.6299H44.3322Z" fill="white"/>
</g>
<path d="M8.74426 55.296C8.74426 56.92 8.36159 58.11 7.59626 58.866C6.84026 59.622 5.70159 60 4.18026 60H1.54826V50.592H4.18026C5.69226 50.592 6.83092 50.9747 7.59626 51.74C8.36159 52.5053 8.74426 53.6907 8.74426 55.296ZM2.62626 51.516V59.09H4.19426C5.35159 59.09 6.21959 58.7913 6.79826 58.194C7.37692 57.5967 7.66626 56.6307 7.66626 55.296C7.66626 53.9707 7.37226 53.0093 6.78426 52.412C6.20559 51.8147 5.34226 51.516 4.19426 51.516H2.62626ZM12.7866 60.14C11.6853 60.14 10.9013 59.8553 10.4346 59.286C9.97731 58.7073 9.74865 57.816 9.74865 56.612C9.74865 55.3987 9.98198 54.5073 10.4486 53.938C10.9153 53.3687 11.6293 53.084 12.5906 53.084C13.552 53.084 14.266 53.364 14.7326 53.924C15.1993 54.4747 15.4326 55.352 15.4326 56.556V57.004H10.8406C10.878 57.8067 11.0506 58.3807 11.3586 58.726C11.6666 59.0713 12.1473 59.244 12.8006 59.244C13.1926 59.244 13.5753 59.188 13.9486 59.076C14.3313 58.9547 14.686 58.7913 15.0126 58.586L15.3626 59.44C15.008 59.6547 14.6066 59.8273 14.1586 59.958C13.72 60.0793 13.2626 60.14 12.7866 60.14ZM14.3406 56.136C14.294 55.408 14.1306 54.8713 13.8506 54.526C13.5706 54.1713 13.1506 53.994 12.5906 53.994C12.0306 53.994 11.6106 54.1713 11.3306 54.526C11.0506 54.8713 10.8873 55.408 10.8406 56.136H14.3406ZM19.1846 58.768L19.9126 56.584L21.1026 53.224H22.2366L19.6886 60H18.6666L16.1046 53.224H17.2386L18.4286 56.584L19.1566 58.768H19.1846ZM25.7651 60.14C24.6638 60.14 23.8798 59.8553 23.4131 59.286C22.9558 58.7073 22.7271 57.816 22.7271 56.612C22.7271 55.3987 22.9604 54.5073 23.4271 53.938C23.8938 53.3687 24.6078 53.084 25.5691 53.084C26.5304 53.084 27.2444 53.364 27.7111 53.924C28.1778 54.4747 28.4111 55.352 28.4111 56.556V57.004H23.8191C23.8564 57.8067 24.0291 58.3807 24.3371 58.726C24.6451 59.0713 25.1258 59.244 25.7791 59.244C26.1711 59.244 26.5538 59.188 26.9271 59.076C27.3098 58.9547 27.6644 58.7913 27.9911 58.586L28.3411 59.44C27.9864 59.6547 27.5851 59.8273 27.1371 59.958C26.6984 60.0793 26.2411 60.14 25.7651 60.14ZM27.3191 56.136C27.2724 55.408 27.1091 54.8713 26.8291 54.526C26.5491 54.1713 26.1291 53.994 25.5691 53.994C25.0091 53.994 24.5891 54.1713 24.3091 54.526C24.0291 54.8713 23.8658 55.408 23.8191 56.136H27.3191ZM31.7291 60.098C31.6824 60.1167 31.6171 60.126 31.5331 60.126C31.4491 60.1353 31.3791 60.14 31.3231 60.14C30.8471 60.14 30.5018 60 30.2871 59.72C30.0818 59.4307 29.9791 58.992 29.9791 58.404V50.284L31.0431 50.116V58.25C31.0431 58.4647 31.0524 58.6373 31.0711 58.768C31.0898 58.8987 31.1224 59.0013 31.1691 59.076C31.2251 59.1507 31.2951 59.202 31.3791 59.23C31.4724 59.2487 31.5891 59.258 31.7291 59.258V60.098ZM32.6977 56.612C32.6977 55.3987 32.9404 54.5073 33.4257 53.938C33.9204 53.3687 34.7044 53.084 35.7777 53.084C36.8417 53.084 37.6164 53.3687 38.1017 53.938C38.5964 54.5073 38.8437 55.3987 38.8437 56.612C38.8437 57.8253 38.5964 58.7167 38.1017 59.286C37.607 59.8553 36.8324 60.14 35.7777 60.14C34.7137 60.14 33.9344 59.8553 33.4397 59.286C32.945 58.7167 32.6977 57.8253 32.6977 56.612ZM33.7757 56.612C33.7757 57.536 33.9344 58.208 34.2517 58.628C34.569 59.0387 35.0777 59.244 35.7777 59.244C36.4777 59.244 36.9864 59.0387 37.3037 58.628C37.621 58.208 37.7797 57.536 37.7797 56.612C37.7797 55.7067 37.621 55.044 37.3037 54.624C36.9864 54.204 36.4777 53.994 35.7777 53.994C35.0777 53.994 34.569 54.204 34.2517 54.624C33.9344 55.044 33.7757 55.7067 33.7757 56.612ZM41.0589 53.224L41.2409 53.812C41.4836 53.588 41.7636 53.4107 42.0809 53.28C42.4076 53.1493 42.7669 53.084 43.1589 53.084C44.0829 53.084 44.7782 53.3733 45.2449 53.952C45.7116 54.5213 45.9449 55.408 45.9449 56.612C45.9449 57.8253 45.7162 58.7167 45.2589 59.286C44.8109 59.8553 44.1482 60.14 43.2709 60.14C42.8976 60.14 42.5382 60.084 42.1929 59.972C41.8476 59.8507 41.5629 59.6827 41.3389 59.468V62.912H40.2609V53.224H41.0589ZM42.9909 53.98C42.6642 53.98 42.3562 54.0453 42.0669 54.176C41.7869 54.3067 41.5442 54.484 41.3389 54.708V58.53C41.5442 58.754 41.7869 58.9313 42.0669 59.062C42.3562 59.1927 42.6642 59.258 42.9909 59.258C43.6349 59.258 44.1109 59.0527 44.4189 58.642C44.7269 58.2313 44.8809 57.5547 44.8809 56.612C44.8809 55.6787 44.7269 55.0067 44.4189 54.596C44.1109 54.1853 43.6349 53.98 42.9909 53.98ZM48.3313 53.854C48.658 53.6113 48.994 53.4247 49.3393 53.294C49.6847 53.154 50.0533 53.084 50.4453 53.084C50.9213 53.084 51.2993 53.154 51.5793 53.294C51.8687 53.434 52.0833 53.6673 52.2233 53.994C52.55 53.7233 52.9047 53.504 53.2873 53.336C53.6793 53.168 54.0853 53.084 54.5053 53.084C54.8973 53.084 55.224 53.1307 55.4853 53.224C55.7467 53.308 55.9567 53.448 56.1153 53.644C56.2833 53.84 56.4 54.092 56.4653 54.4C56.5307 54.6987 56.5633 55.0627 56.5633 55.492V60H55.4993V55.786C55.4993 55.114 55.406 54.6473 55.2193 54.386C55.042 54.1247 54.7387 53.994 54.3093 53.994C53.6933 53.994 53.0727 54.246 52.4473 54.75C52.4753 54.9647 52.4893 55.212 52.4893 55.492V60H51.4253V55.786C51.4253 55.1233 51.3413 54.6613 51.1733 54.4C51.0053 54.1293 50.6927 53.994 50.2353 53.994C49.9273 53.994 49.6287 54.0547 49.3393 54.176C49.05 54.288 48.7467 54.4653 48.4293 54.708V60H47.3653V53.224H48.1633L48.3313 53.854ZM60.9319 60.14C59.8305 60.14 59.0465 59.8553 58.5799 59.286C58.1225 58.7073 57.8939 57.816 57.8939 56.612C57.8939 55.3987 58.1272 54.5073 58.5939 53.938C59.0605 53.3687 59.7745 53.084 60.7359 53.084C61.6972 53.084 62.4112 53.364 62.8779 53.924C63.3445 54.4747 63.5779 55.352 63.5779 56.556V57.004H58.9859C59.0232 57.8067 59.1959 58.3807 59.5039 58.726C59.8119 59.0713 60.2925 59.244 60.9459 59.244C61.3379 59.244 61.7205 59.188 62.0939 59.076C62.4765 58.9547 62.8312 58.7913 63.1579 58.586L63.5079 59.44C63.1532 59.6547 62.7519 59.8273 62.3039 59.958C61.8652 60.0793 61.4079 60.14 60.9319 60.14ZM62.4859 56.136C62.4392 55.408 62.2759 54.8713 61.9959 54.526C61.7159 54.1713 61.2959 53.994 60.7359 53.994C60.1759 53.994 59.7559 54.1713 59.4759 54.526C59.1959 54.8713 59.0325 55.408 58.9859 56.136H62.4859ZM65.9859 53.91C66.3032 53.658 66.6532 53.4573 67.0359 53.308C67.4186 53.1587 67.8199 53.084 68.2399 53.084C69.0239 53.084 69.5839 53.2753 69.9199 53.658C70.2652 54.0313 70.4379 54.6427 70.4379 55.492V60H69.3739V55.786C69.3739 55.114 69.2619 54.6473 69.0379 54.386C68.8232 54.1247 68.4872 53.994 68.0299 53.994C67.3766 53.994 66.7232 54.232 66.0699 54.708V60H65.0059V53.224H65.8039L65.9859 53.91ZM73.6087 54.134V57.48C73.6087 57.788 73.6227 58.054 73.6507 58.278C73.6787 58.502 73.7347 58.6887 73.8187 58.838C73.912 58.978 74.038 59.0807 74.1967 59.146C74.3647 59.2113 74.5887 59.244 74.8687 59.244C75.074 59.244 75.2747 59.2207 75.4707 59.174C75.676 59.1273 75.872 59.0713 76.0587 59.006L76.2687 59.818C75.7087 60.0327 75.144 60.14 74.5747 60.14C74.164 60.14 73.8233 60.084 73.5527 59.972C73.2913 59.86 73.0813 59.706 72.9227 59.51C72.7733 59.3047 72.6707 59.062 72.6147 58.782C72.5587 58.4927 72.5307 58.1753 72.5307 57.83V54.134H71.4247V53.224H72.5307V51.796L73.6087 51.6V53.224H76.0027V54.134H73.6087Z" fill="white"/>
<defs>
<clipPath id="clip0_142_673">
<rect width="44" height="44" fill="white" transform="translate(16)"/>
</clipPath>
</defs>
</svg>
