<svg width="112" height="146" viewBox="0 0 112 146" fill="none" xmlns="http://www.w3.org/2000/svg">
<path d="M85.0466 82.5303H79.0882H73.1298C71.8522 82.5303 71.1059 84.2488 71.8408 85.4925L78.6246 97.0928C78.7377 97.2963 78.9186 97.3528 79.0882 97.3415C79.2578 97.3415 79.4274 97.2963 79.5518 97.0928L86.3356 85.4925C87.0705 84.2488 86.3242 82.5303 85.0466 82.5303Z" fill="white"/>
<path d="M92.1114 85.0733C91.286 85.0733 90.5172 84.5645 90.2232 83.7505C89.8388 82.7103 90.3702 81.5458 91.4217 81.1614C99.6866 78.1087 105.249 70.1377 105.249 61.3188C105.249 49.662 95.7633 40.176 84.1065 40.176C83.9482 40.176 83.7899 40.1873 83.6429 40.1986L83.2472 40.2213C82.1957 40.2891 81.3704 39.5768 81.1781 38.5931C78.9056 27.0607 68.7073 18.6941 56.9374 18.6941C45.1675 18.6941 34.3586 27.7052 32.527 39.6672C32.3574 40.764 31.3285 41.5215 30.2318 41.3519C29.1351 41.1823 28.3776 40.1534 28.5472 39.0567C30.7067 24.9238 42.6462 14.6577 56.9374 14.6577C70.0527 14.6577 81.4947 23.601 84.7622 36.151C98.3524 36.4902 109.297 47.6495 109.297 61.3188C109.297 71.8223 102.683 81.3196 92.835 84.949C92.6088 85.0281 92.3714 85.0733 92.134 85.0733H92.1114Z" fill="white"/>
<path d="M79.0868 90.4668C77.9675 90.4668 77.0742 89.5623 77.0742 88.4543V68.6683C77.0742 67.549 77.9788 66.6558 79.0868 66.6558C80.1948 66.6558 81.0993 67.5603 81.0993 68.6683V88.4543C81.0993 89.5736 80.1948 90.4668 79.0868 90.4668Z" fill="white"/>
<path d="M14.6313 92.2306C7.76835 92.2306 2.70312 87.1654 2.70312 79.7711C2.70312 72.3768 7.76835 67.3794 14.6313 67.3794C20.2618 67.3794 24.7618 70.7826 25.8133 75.9835H21.2455C20.6123 72.7273 18.4528 71.5627 14.62 71.5627C9.59996 71.5627 7.44048 73.6205 7.44048 79.7711C7.44048 85.9217 9.59996 88.0586 14.62 88.0586C18.4415 88.0586 20.601 86.8488 21.2455 83.5587H25.8133C24.7505 88.8274 20.2505 92.2306 14.6313 92.2306Z" fill="white"/>
<path d="M27.7461 79.7711C27.7461 72.4446 32.8113 67.3794 39.6743 67.3794C46.5372 67.3794 51.6025 72.4446 51.6025 79.7711C51.6025 87.0976 46.5372 92.2306 39.6743 92.2306C32.8113 92.2306 27.7461 87.1654 27.7461 79.7711ZM39.6743 88.0586C44.7056 88.0586 46.8651 86.0009 46.8651 79.7711C46.8651 73.5413 44.7056 71.5627 39.6743 71.5627C34.6429 71.5627 32.4948 73.6205 32.4948 79.7711C32.4948 85.9217 34.6542 88.0586 39.6743 88.0586Z" fill="white"/>
<path d="M54.2123 89.3926L59.6619 83.4229C61.1204 81.8174 62.0702 80.9242 62.0702 79.4091C62.0702 78.1202 61.3466 77.6001 59.7185 77.6001C57.9095 77.6001 57.1406 78.1654 57.0615 80.3815H53.7148C53.9184 77.2044 56.3153 74.6831 59.7072 74.6831C63.28 74.6831 65.5299 76.7182 65.5299 79.4091C65.5299 81.2973 64.7159 82.4845 62.8503 84.4857L58.8139 88.8951H65.7222V91.6991H54.201V89.3926H54.2123Z" fill="white"/>
<path d="M5.65319 64.4621C4.53386 64.4621 3.64062 63.5576 3.64062 62.4496C3.64062 48.5655 14.9357 37.2705 28.8199 37.2705C35.3888 37.2705 41.5734 39.8257 46.2203 44.4726C47.0118 45.2641 47.0118 46.5417 46.2203 47.3218C45.4289 48.1132 44.1512 48.1132 43.3711 47.3218C39.4817 43.4324 34.3147 41.2955 28.8199 41.2955C17.163 41.2955 7.67699 50.7815 7.67699 62.4383C7.67699 63.5576 6.77252 64.4508 5.6645 64.4508L5.65319 64.4621Z" fill="white"/>
<path d="M48.0173 124.872H50.5373V134.88C50.5373 137.088 50.0333 138.704 49.0253 139.728C48.0333 140.736 46.4573 141.24 44.2973 141.24C42.1373 141.24 40.5533 140.736 39.5453 139.728C38.5373 138.704 38.0333 137.088 38.0333 134.88V124.872H40.5533V135.264C40.5533 136.624 40.8653 137.616 41.4893 138.24C42.1133 138.864 43.0493 139.176 44.2973 139.176C45.5453 139.176 46.4733 138.864 47.0813 138.24C47.7053 137.616 48.0173 136.624 48.0173 135.264V124.872ZM57.5897 133.8C57.9417 133.944 58.3017 134.072 58.6697 134.184C59.0377 134.296 59.5257 134.464 60.1337 134.688C60.9497 134.976 61.5497 135.376 61.9337 135.888C62.3177 136.384 62.5097 137.04 62.5097 137.856C62.5097 138.976 62.1337 139.824 61.3817 140.4C60.6297 140.96 59.4137 141.24 57.7337 141.24C56.8697 141.24 56.0697 141.16 55.3337 141C54.6137 140.824 53.9417 140.576 53.3177 140.256L54.1097 138.36C54.5897 138.632 55.1337 138.848 55.7417 139.008C56.3497 139.152 57.0137 139.224 57.7337 139.224C58.5497 139.224 59.1177 139.112 59.4377 138.888C59.7737 138.648 59.9417 138.32 59.9417 137.904C59.9417 137.552 59.8457 137.272 59.6537 137.064C59.4617 136.84 59.1257 136.64 58.6457 136.464C58.2297 136.304 57.7817 136.152 57.3017 136.008C56.8217 135.864 56.3817 135.72 55.9817 135.576C55.1497 135.256 54.5497 134.856 54.1817 134.376C53.8137 133.896 53.6297 133.296 53.6297 132.576C53.6297 131.472 53.9977 130.624 54.7337 130.032C55.4857 129.44 56.6857 129.144 58.3337 129.144C59.1657 129.144 59.9017 129.232 60.5417 129.408C61.1817 129.568 61.7337 129.792 62.1977 130.08L61.4057 131.952C60.9897 131.68 60.5577 131.48 60.1097 131.352C59.6617 131.224 59.1497 131.16 58.5737 131.16C57.7097 131.16 57.0937 131.272 56.7257 131.496C56.3737 131.704 56.1977 131.992 56.1977 132.36C56.1977 132.664 56.2857 132.928 56.4617 133.152C56.6377 133.36 57.0137 133.576 57.5897 133.8ZM70.086 141.24C68.102 141.24 66.67 140.752 65.79 139.776C64.926 138.8 64.494 137.272 64.494 135.192C64.494 133.112 64.91 131.584 65.742 130.608C66.59 129.632 67.886 129.144 69.63 129.144C71.342 129.144 72.622 129.632 73.47 130.608C74.318 131.568 74.742 133.088 74.742 135.168V136.008H67.038C67.118 137.128 67.39 137.944 67.854 138.456C68.334 138.968 69.086 139.224 70.11 139.224C70.782 139.224 71.43 139.128 72.054 138.936C72.678 138.744 73.294 138.464 73.902 138.096L74.622 139.992C74.014 140.36 73.318 140.664 72.534 140.904C71.766 141.128 70.95 141.24 70.086 141.24ZM72.174 134.088C72.094 133.128 71.854 132.408 71.454 131.928C71.054 131.432 70.446 131.184 69.63 131.184C68.03 131.184 67.174 132.152 67.062 134.088H72.174Z" fill="white"/>
</svg>
