<svg width="66" height="69" viewBox="0 0 66 69" fill="none" xmlns="http://www.w3.org/2000/svg">
<g clip-path="url(#clip0_4720_1451)">
<path d="M44.102 38.0014H22.9095C21.5786 38.0014 20.4922 36.9121 20.4922 35.5778V29.0898H21.8502V35.5778C21.8502 36.1633 22.3256 36.6398 22.9095 36.6398H44.1088C44.6928 36.6398 45.1681 36.1633 45.1681 35.5778V29.0898H46.5261V35.5778C46.5261 36.9121 45.4397 38.0014 44.1088 38.0014H44.102Z" fill="white"/>
<path d="M33.4995 24.4719H33.4859C33.1124 24.4719 32.8136 24.1587 32.8204 23.7842C32.8204 23.5187 32.9834 17.2486 40.507 11.9453C40.8126 11.7274 41.2404 11.8023 41.4509 12.1087C41.6682 12.415 41.5935 12.8439 41.2879 13.055C34.3618 17.9362 34.1785 23.7366 34.1785 23.7979C34.1717 24.1655 33.8661 24.465 33.4995 24.465V24.4719Z" fill="white"/>
<path d="M33.4993 37.9986C33.1259 37.9986 32.8203 37.6923 32.8203 37.3178V29.087C32.8203 28.7126 33.1259 28.4062 33.4993 28.4062C33.8728 28.4062 34.1784 28.7126 34.1784 29.087V37.3178C34.1784 37.6923 33.8728 37.9986 33.4993 37.9986Z" fill="white"/>
<path d="M34.7315 20.9467C34.3784 20.9467 34.0796 20.6744 34.0525 20.3204C34.0253 19.9459 34.3037 19.6191 34.6772 19.5919L34.9013 19.5783C35.5328 19.5306 36.8501 19.4353 37.9637 19.2583C41.2706 18.7409 44.0478 16.3445 45.0392 13.1652C45.1274 12.8793 45.1953 12.6274 45.2361 12.4163C45.5824 10.762 45.6435 8.55626 45.6503 7.3853C40.1162 8.03886 36.5649 9.7953 35.0642 12.6002C34.6568 13.3558 34.4259 14.4519 34.4327 15.5276C34.4327 15.902 34.134 16.2084 33.7605 16.2152C33.3802 16.2152 33.0815 15.9156 33.0747 15.5412C33.0611 14.2272 33.3463 12.9201 33.8691 11.9534C35.5939 8.73326 39.4983 6.73853 45.4737 6.01008C45.8676 5.96243 46.2546 6.08497 46.5534 6.35048C46.8454 6.61599 47.0151 6.99044 47.0151 7.3853C47.0151 8.60392 46.9404 10.9118 46.5738 12.6819C46.5262 12.9201 46.4515 13.2197 46.3429 13.5601C45.2021 17.2295 41.9971 19.9868 38.181 20.5927C37.013 20.7765 35.6618 20.8786 35.0099 20.9195L34.7926 20.9331C34.7926 20.9331 34.7587 20.9331 34.7383 20.9331L34.7315 20.9467Z" fill="white"/>
<path d="M31.8105 20.4625C31.0296 20.4625 28.327 20.3331 26.419 18.706C24.1986 16.8134 23.051 13.7771 22.7183 12.2794C22.6368 11.8913 22.7183 11.4896 22.9491 11.1697C23.18 10.8497 23.5399 10.6454 23.9337 10.6114C25.5634 10.4616 28.7209 10.591 30.1808 11.2105C31.7561 11.8777 33.7661 13.5456 34.384 15.3089C34.5062 15.6629 34.3229 16.0509 33.9698 16.1735C33.6167 16.296 33.2296 16.1122 33.1074 15.7582C32.6864 14.5532 31.1722 13.1031 29.6579 12.4632C28.5783 12.007 25.706 11.8164 24.056 11.9662C24.314 13.2188 25.3461 16.0101 27.2949 17.6644C28.5308 18.7197 30.432 19.0941 31.8037 19.0941C32.1771 19.0941 32.4827 19.4004 32.4827 19.7749C32.4827 20.1493 32.1771 20.4557 31.8037 20.4557L31.8105 20.4625Z" fill="white"/>
<path d="M49.9475 29.7717H39.1849C38.6213 29.7717 37.9287 29.5061 37.5485 29.1453L33.5082 25.3261L29.468 29.1453C29.081 29.5061 28.3952 29.7717 27.8316 29.7717H17.0622C16.3628 29.7717 16.1319 29.37 16.0572 29.1998C16.0029 29.0704 15.8739 28.6075 16.356 28.1582L20.7221 24.0326C21.1024 23.6717 21.795 23.4062 22.3586 23.4062H44.6375C45.2011 23.4062 45.8937 23.6717 46.2808 24.0326L50.6469 28.1582C51.129 28.6075 50.9932 29.0704 50.9457 29.1998C50.8778 29.37 50.6401 29.7717 49.9407 29.7717H49.9475ZM34.8935 24.7678L38.4855 28.1582C38.6077 28.2739 38.9608 28.4169 39.1917 28.4169H48.9493L45.3641 25.0265C45.2418 24.9108 44.8888 24.7678 44.6579 24.7678H34.9002H34.8935ZM18.0739 28.4101H27.8248C28.0556 28.4101 28.4155 28.2671 28.531 28.1582L32.123 24.7678H22.3654C22.1345 24.7678 21.7746 24.9108 21.6592 25.0197L18.0739 28.4101Z" fill="white"/>
<path d="M31.6612 17.8071C31.5118 17.8071 31.3624 17.7594 31.2334 17.6573C29.8142 16.5136 28.2389 15.6353 28.2253 15.6217C27.8994 15.4379 27.7771 15.0226 27.9605 14.6958C28.1438 14.3691 28.558 14.2533 28.884 14.4303C28.9519 14.4712 30.5747 15.3766 32.0822 16.5884C32.3742 16.8267 32.4217 17.2556 32.184 17.5484C32.0482 17.7186 31.8513 17.8003 31.6544 17.8003L31.6612 17.8071Z" fill="white"/>
</g>
<path d="M11.5061 56.596V60.25H10.4281V50.842H13.5921C15.7107 50.842 16.7701 51.78 16.7701 53.656C16.7701 54.6173 16.5181 55.35 16.0141 55.854C15.5101 56.3487 14.7494 56.596 13.7321 56.596H11.5061ZM11.5061 51.766V55.686H13.7601C14.3854 55.686 14.8614 55.518 15.1881 55.182C15.5241 54.8367 15.6921 54.328 15.6921 53.656C15.6921 53.04 15.5241 52.5733 15.1881 52.256C14.8614 51.9293 14.3854 51.766 13.7601 51.766H11.5061ZM22.5523 60.25H21.7543L21.5863 59.62C21.3063 59.8627 20.9749 60.054 20.5923 60.194C20.2189 60.3247 19.8083 60.39 19.3603 60.39C18.6603 60.39 18.1329 60.2127 17.7783 59.858C17.4329 59.494 17.2603 58.976 17.2603 58.304C17.2603 57.6133 17.4749 57.1047 17.9043 56.778C18.3336 56.442 19.0523 56.274 20.0603 56.274C20.3589 56.274 20.6203 56.2787 20.8443 56.288C21.0776 56.2973 21.2923 56.316 21.4883 56.344V55.966C21.4883 55.3407 21.3669 54.8973 21.1243 54.636C20.8816 54.3653 20.4523 54.23 19.8363 54.23C19.5469 54.23 19.2296 54.2813 18.8843 54.384C18.5483 54.4773 18.2076 54.6173 17.8623 54.804L17.5403 53.992C17.9136 53.7867 18.3103 53.628 18.7303 53.516C19.1503 53.3947 19.5843 53.334 20.0323 53.334C20.5083 53.334 20.9049 53.3807 21.2223 53.474C21.5489 53.5673 21.8103 53.7213 22.0063 53.936C22.2023 54.1413 22.3423 54.4073 22.4263 54.734C22.5103 55.0607 22.5523 55.462 22.5523 55.938V60.25ZM19.6543 59.508C19.9623 59.508 20.2796 59.4427 20.6063 59.312C20.9423 59.172 21.2363 58.99 21.4883 58.766V57.212C21.2456 57.184 21.0029 57.1653 20.7603 57.156C20.5176 57.1373 20.2469 57.128 19.9483 57.128C19.3603 57.128 18.9403 57.2167 18.6883 57.394C18.4456 57.5713 18.3243 57.87 18.3243 58.29C18.3243 58.6913 18.4269 58.9947 18.6323 59.2C18.8376 59.4053 19.1783 59.508 19.6543 59.508ZM27.1072 59.494C27.7605 59.494 28.3439 59.3307 28.8572 59.004L29.1652 59.858C28.8945 60.0167 28.5819 60.1473 28.2272 60.25C27.8819 60.3433 27.5085 60.39 27.1072 60.39C25.9965 60.39 25.1845 60.1147 24.6712 59.564C24.1579 59.004 23.9012 58.1033 23.9012 56.862C23.9012 55.6487 24.1485 54.7573 24.6432 54.188C25.1379 53.6187 25.9125 53.334 26.9672 53.334C27.8725 53.334 28.6145 53.6093 29.1932 54.16L28.6052 54.888C28.3999 54.6827 28.1572 54.524 27.8772 54.412C27.6065 54.2907 27.3125 54.23 26.9952 54.23C26.3232 54.23 25.8145 54.4353 25.4692 54.846C25.1332 55.2473 24.9652 55.9193 24.9652 56.862C24.9652 57.8047 25.1425 58.4813 25.4972 58.892C25.8519 59.2933 26.3885 59.494 27.1072 59.494ZM30.3976 60.25V50.506L31.4756 50.366V56.12H32.1336L34.6676 53.474H35.9696L32.9876 56.582L36.0536 60.25H34.7516L32.1196 57.03H31.4756V60.25H30.3976ZM41.9106 60.25H41.1126L40.9446 59.62C40.6646 59.8627 40.3332 60.054 39.9506 60.194C39.5772 60.3247 39.1666 60.39 38.7186 60.39C38.0186 60.39 37.4912 60.2127 37.1366 59.858C36.7912 59.494 36.6186 58.976 36.6186 58.304C36.6186 57.6133 36.8332 57.1047 37.2626 56.778C37.6919 56.442 38.4106 56.274 39.4186 56.274C39.7172 56.274 39.9786 56.2787 40.2026 56.288C40.4359 56.2973 40.6506 56.316 40.8466 56.344V55.966C40.8466 55.3407 40.7252 54.8973 40.4826 54.636C40.2399 54.3653 39.8106 54.23 39.1946 54.23C38.9052 54.23 38.5879 54.2813 38.2426 54.384C37.9066 54.4773 37.5659 54.6173 37.2206 54.804L36.8986 53.992C37.2719 53.7867 37.6686 53.628 38.0886 53.516C38.5086 53.3947 38.9426 53.334 39.3906 53.334C39.8666 53.334 40.2632 53.3807 40.5806 53.474C40.9072 53.5673 41.1686 53.7213 41.3646 53.936C41.5606 54.1413 41.7006 54.4073 41.7846 54.734C41.8686 55.0607 41.9106 55.462 41.9106 55.938V60.25ZM39.0126 59.508C39.3206 59.508 39.6379 59.4427 39.9646 59.312C40.3006 59.172 40.5946 58.99 40.8466 58.766V57.212C40.6039 57.184 40.3612 57.1653 40.1186 57.156C39.8759 57.1373 39.6052 57.128 39.3066 57.128C38.7186 57.128 38.2986 57.2167 38.0466 57.394C37.8039 57.5713 37.6826 57.87 37.6826 58.29C37.6826 58.6913 37.7852 58.9947 37.9906 59.2C38.1959 59.4053 38.5366 59.508 39.0126 59.508ZM48.9295 53.474V60.334C48.9295 61.37 48.6775 62.1213 48.1735 62.588C47.6788 63.064 46.9368 63.302 45.9475 63.302C45.5555 63.302 45.1822 63.2693 44.8275 63.204C44.4728 63.148 44.1602 63.0687 43.8895 62.966L44.1135 62.084C44.6455 62.2893 45.2522 62.392 45.9335 62.392C46.6055 62.392 47.0908 62.238 47.3895 61.93C47.6975 61.622 47.8515 61.118 47.8515 60.418V59.718C47.6182 59.9327 47.3335 60.1007 46.9975 60.222C46.6708 60.334 46.3115 60.39 45.9195 60.39C45.0422 60.39 44.3748 60.1053 43.9175 59.536C43.4695 58.9667 43.2455 58.0753 43.2455 56.862C43.2455 55.658 43.4788 54.7713 43.9455 54.202C44.4122 53.6233 45.1075 53.334 46.0315 53.334C46.4235 53.334 46.7828 53.3993 47.1095 53.53C47.4362 53.6607 47.7208 53.838 47.9635 54.062L48.1315 53.474H48.9295ZM46.1995 54.23C45.5555 54.23 45.0795 54.4353 44.7715 54.846C44.4728 55.2567 44.3235 55.9287 44.3235 56.862C44.3235 57.8047 44.4728 58.4813 44.7715 58.892C45.0795 59.3027 45.5555 59.508 46.1995 59.508C46.5262 59.508 46.8295 59.4427 47.1095 59.312C47.3988 59.1813 47.6462 59.004 47.8515 58.78V54.958C47.6462 54.734 47.3988 54.5567 47.1095 54.426C46.8295 54.2953 46.5262 54.23 46.1995 54.23ZM53.3879 60.39C52.2866 60.39 51.5026 60.1053 51.0359 59.536C50.5786 58.9573 50.3499 58.066 50.3499 56.862C50.3499 55.6487 50.5833 54.7573 51.0499 54.188C51.5166 53.6187 52.2306 53.334 53.1919 53.334C54.1533 53.334 54.8673 53.614 55.3339 54.174C55.8006 54.7247 56.0339 55.602 56.0339 56.806V57.254H51.4419C51.4793 58.0567 51.6519 58.6307 51.9599 58.976C52.2679 59.3213 52.7486 59.494 53.4019 59.494C53.7939 59.494 54.1766 59.438 54.5499 59.326C54.9326 59.2047 55.2873 59.0413 55.6139 58.836L55.9639 59.69C55.6093 59.9047 55.2079 60.0773 54.7599 60.208C54.3213 60.3293 53.8639 60.39 53.3879 60.39ZM54.9419 56.386C54.8953 55.658 54.7319 55.1213 54.4519 54.776C54.1719 54.4213 53.7519 54.244 53.1919 54.244C52.6319 54.244 52.2119 54.4213 51.9319 54.776C51.6519 55.1213 51.4886 55.658 51.4419 56.386H54.9419Z" fill="white"/>
<defs>
<clipPath id="clip0_4720_1451">
<rect width="44" height="44" fill="white" transform="translate(11 0.25)"/>
</clipPath>
</defs>
</svg>
