<svg width="66" height="68" viewBox="0 0 66 68" fill="none" xmlns="http://www.w3.org/2000/svg">
<g clip-path="url(#clip0_5416_2526)">
<path d="M40.9596 16.2113C40.6185 16.2113 40.3298 15.9499 40.3036 15.6101C40.2773 15.2507 40.5463 14.937 40.9071 14.9109L41.058 14.8978C41.4845 14.8652 42.3767 14.7998 43.1246 14.6822C45.3028 14.3424 47.1266 12.7806 47.7827 10.7025C47.8417 10.513 47.8811 10.3496 47.9139 10.2124C48.1304 9.17988 48.1763 7.79451 48.1894 7.06261C44.6205 7.52658 42.3242 8.67017 41.3598 10.4672C41.0646 11.0162 40.9596 11.7611 40.9071 12.2774C40.8678 12.6368 40.5529 12.8851 40.1855 12.859C39.8246 12.8198 39.5622 12.4996 39.6016 12.1401C39.6672 11.5128 39.7984 10.5979 40.2051 9.84643C41.3861 7.65728 44.0103 6.28497 48.0123 5.76219C48.3928 5.70991 48.7799 5.82754 49.0686 6.08239C49.3507 6.33072 49.5147 6.69666 49.5081 7.06914C49.495 8.02322 49.436 9.38899 49.2063 10.4672C49.1735 10.6371 49.1211 10.8397 49.0489 11.075C48.2485 13.6235 46.0113 15.5382 43.3477 15.9565C42.5473 16.0806 41.6157 16.146 41.1761 16.1786L41.0252 16.1917C41.0252 16.1917 40.9924 16.1917 40.9727 16.1917L40.9596 16.2113Z" fill="white"/>
<path d="M38.5036 14.0275C38.3593 14.0275 38.215 13.9817 38.0969 13.8837C38.0903 13.8837 37.244 13.2172 36.437 12.8904C36.1024 12.7532 35.9384 12.3742 36.0762 12.0409C36.214 11.7076 36.5945 11.5443 36.9291 11.6815C37.9132 12.0801 38.871 12.8316 38.9104 12.8643C39.1925 13.0865 39.2384 13.4982 39.0154 13.7792C38.8842 13.9425 38.6939 14.0275 38.5036 14.0275Z" fill="white"/>
<path d="M37.9525 16.0413C37.9525 16.0413 37.9263 16.0413 37.9132 16.0413C34.0358 15.8256 32.7565 12.8458 32.54 12.2511C32.2645 11.4996 32.0808 10.5455 31.9692 9.87897C31.9102 9.50649 32.0151 9.12747 32.2579 8.8334C32.5072 8.53934 32.868 8.36943 33.2551 8.3629C35.9122 8.31715 37.5851 8.71578 38.6873 9.64372C38.6939 9.64372 40.0257 10.5651 40.8064 11.8917C40.9901 12.2054 40.8851 12.604 40.5702 12.787C40.2553 12.9699 39.8551 12.8654 39.6714 12.5517C39.035 11.4735 37.9 10.6893 37.8869 10.6762C36.9881 9.93125 35.5776 9.62411 33.2682 9.66332C33.3601 10.2776 33.5307 11.1467 33.7668 11.8002C33.9309 12.2576 34.9215 14.5579 37.9788 14.7343C38.3396 14.7539 38.6151 15.0611 38.5955 15.4205C38.5758 15.7668 38.2871 16.0347 37.9394 16.0347L37.9525 16.0413Z" fill="white"/>
<path d="M20.0545 27.6492C19.6937 27.6492 19.3984 27.3552 19.3984 26.9958V23.0945C19.3984 22.3887 19.7527 21.7483 20.3694 21.3432C21.0452 20.8988 21.898 20.8204 22.646 21.1406L28.9376 24.1597V22.1208C28.9376 21.415 29.2919 20.7746 29.9086 20.3695C30.5843 19.9251 31.4372 19.8467 32.1851 20.1669L39.4674 23.2448L39.4215 20.5917C39.4215 17.9451 39.4215 13.5275 44.4404 9.80925C44.7291 9.5936 45.1424 9.65241 45.3589 9.94648C45.5754 10.234 45.5163 10.6457 45.2211 10.8614C40.7336 14.1876 40.7336 18.0366 40.7336 20.5851L40.7927 24.2315C40.7927 24.4537 40.6877 24.6628 40.504 24.787C40.3203 24.9112 40.0841 24.9308 39.8807 24.8458L31.6668 21.3758C31.3191 21.2321 30.932 21.2647 30.6237 21.4673C30.4794 21.5588 30.2432 21.7745 30.2432 22.1339V25.2183C30.2432 25.4405 30.1251 25.6496 29.9348 25.7737C29.7446 25.8914 29.5018 25.9044 29.2984 25.8064L22.0949 22.3495C21.7799 22.2188 21.3863 22.2515 21.0845 22.4541C20.9402 22.5456 20.704 22.7612 20.704 23.1206V27.0219C20.704 27.3813 20.4088 27.6754 20.0479 27.6754L20.0545 27.6492Z" fill="white"/>
<path d="M20.0545 37.7496C19.6937 37.7496 19.3984 37.4555 19.3984 37.0961V26.9933C19.3984 26.6339 19.6937 26.3398 20.0545 26.3398C20.4153 26.3398 20.7106 26.6339 20.7106 26.9933V37.0961C20.7106 37.4555 20.4153 37.7496 20.0545 37.7496Z" fill="white"/>
<path d="M46.9518 37.7477C46.591 37.7477 46.2958 37.4536 46.2958 37.0942V21.3257C46.2958 20.8618 45.9152 20.4827 45.4494 20.4827H43.0154C42.6546 20.4827 42.3594 20.1887 42.3594 19.8293C42.3594 19.4698 42.6546 19.1758 43.0154 19.1758H45.4494C46.6369 19.1758 47.6079 20.1364 47.6079 21.3257V37.0942C47.6079 37.4536 47.3127 37.7477 46.9518 37.7477Z" fill="white"/>
<path d="M38.3149 30.0977H37.4686C37.1062 30.0977 36.8125 30.3902 36.8125 30.7511V31.5941C36.8125 31.955 37.1062 32.2476 37.4686 32.2476H38.3149C38.6772 32.2476 38.9709 31.955 38.9709 31.5941V30.7511C38.9709 30.3902 38.6772 30.0977 38.3149 30.0977Z" fill="white"/>
<path d="M33.9164 30.0977H33.0701C32.7078 30.0977 32.4141 30.3902 32.4141 30.7511V31.5941C32.4141 31.955 32.7078 32.2476 33.0701 32.2476H33.9164C34.2788 32.2476 34.5725 31.955 34.5725 31.5941V30.7511C34.5725 30.3902 34.2788 30.0977 33.9164 30.0977Z" fill="white"/>
<path d="M29.5297 30.0977H28.6834C28.3211 30.0977 28.0273 30.3902 28.0273 30.7511V31.5941C28.0273 31.955 28.3211 32.2476 28.6834 32.2476H29.5297C29.8921 32.2476 30.1858 31.955 30.1858 31.5941V30.7511C30.1858 30.3902 29.8921 30.0977 29.5297 30.0977Z" fill="white"/>
<path d="M49.3439 37.7484H17.6561C17.2952 37.7484 17 37.4543 17 37.0949C17 36.7355 17.2952 36.4414 17.6561 36.4414H49.3439C49.7048 36.4414 50 36.7355 50 37.0949C50 37.4543 49.7048 37.7484 49.3439 37.7484Z" fill="white"/>
</g>
<path d="M4.32302 56.346V60H3.24502V50.592H6.40902C8.52768 50.592 9.58702 51.53 9.58702 53.406C9.58702 54.3673 9.33502 55.1 8.83102 55.604C8.32702 56.0987 7.56635 56.346 6.54902 56.346H4.32302ZM4.32302 51.516V55.436H6.57702C7.20235 55.436 7.67835 55.268 8.00502 54.932C8.34102 54.5867 8.50902 54.078 8.50902 53.406C8.50902 52.79 8.34102 52.3233 8.00502 52.006C7.67835 51.6793 7.20235 51.516 6.57702 51.516H4.32302ZM11.4857 53.224L11.6117 54.12C11.9197 53.784 12.265 53.5273 12.6477 53.35C13.0303 53.1727 13.4177 53.084 13.8097 53.084C13.9683 53.084 14.1037 53.098 14.2157 53.126C14.337 53.1447 14.463 53.1773 14.5937 53.224V54.176C14.3137 54.064 14.0197 54.008 13.7117 54.008C13.357 54.008 13.0023 54.106 12.6477 54.302C12.293 54.498 11.9897 54.7453 11.7377 55.044V60H10.6737V53.224H11.4857ZM14.9952 56.612C14.9952 55.3987 15.2378 54.5073 15.7232 53.938C16.2178 53.3687 17.0018 53.084 18.0752 53.084C19.1392 53.084 19.9138 53.3687 20.3992 53.938C20.8938 54.5073 21.1412 55.3987 21.1412 56.612C21.1412 57.8253 20.8938 58.7167 20.3992 59.286C19.9045 59.8553 19.1298 60.14 18.0752 60.14C17.0112 60.14 16.2318 59.8553 15.7372 59.286C15.2425 58.7167 14.9952 57.8253 14.9952 56.612ZM16.0732 56.612C16.0732 57.536 16.2318 58.208 16.5492 58.628C16.8665 59.0387 17.3752 59.244 18.0752 59.244C18.7752 59.244 19.2838 59.0387 19.6012 58.628C19.9185 58.208 20.0772 57.536 20.0772 56.612C20.0772 55.7067 19.9185 55.044 19.6012 54.624C19.2838 54.204 18.7752 53.994 18.0752 53.994C17.3752 53.994 16.8665 54.204 16.5492 54.624C16.2318 55.044 16.0732 55.7067 16.0732 56.612ZM27.9203 50.116V60H27.1223L26.9543 59.426C26.7117 59.65 26.427 59.8273 26.1003 59.958C25.7737 60.0793 25.4143 60.14 25.0223 60.14C24.0983 60.14 23.403 59.8553 22.9363 59.286C22.4697 58.7167 22.2363 57.8253 22.2363 56.612C22.2363 55.408 22.4603 54.5213 22.9083 53.952C23.3657 53.3733 24.033 53.084 24.9103 53.084C25.3023 53.084 25.6617 53.1447 25.9883 53.266C26.3243 53.3873 26.609 53.5553 26.8423 53.77V50.256L27.9203 50.116ZM25.1903 59.258C25.517 59.258 25.8203 59.1927 26.1003 59.062C26.3897 58.9313 26.637 58.754 26.8423 58.53V54.708C26.637 54.484 26.3897 54.3067 26.1003 54.176C25.8203 54.0453 25.517 53.98 25.1903 53.98C24.5463 53.98 24.0703 54.1853 23.7623 54.596C23.4637 55.0067 23.3143 55.6787 23.3143 56.612C23.3143 57.5547 23.4637 58.2313 23.7623 58.642C24.0703 59.0527 24.5463 59.258 25.1903 59.258ZM34.0588 59.328C33.7415 59.58 33.3915 59.7807 33.0088 59.93C32.6261 60.07 32.2248 60.14 31.8048 60.14C31.0208 60.14 30.4561 59.9533 30.1108 59.58C29.7655 59.2067 29.5928 58.5953 29.5928 57.746V53.224H30.6708V57.452C30.6708 58.124 30.7781 58.5907 30.9928 58.852C31.2168 59.1133 31.5575 59.244 32.0148 59.244C32.6681 59.244 33.3168 59.006 33.9608 58.53V53.224H35.0388V60H34.2268L34.0588 59.328ZM39.6789 59.244C40.3323 59.244 40.9156 59.0807 41.4289 58.754L41.7369 59.608C41.4663 59.7667 41.1536 59.8973 40.7989 60C40.4536 60.0933 40.0803 60.14 39.6789 60.14C38.5683 60.14 37.7563 59.8647 37.2429 59.314C36.7296 58.754 36.4729 57.8533 36.4729 56.612C36.4729 55.3987 36.7203 54.5073 37.2149 53.938C37.7096 53.3687 38.4843 53.084 39.5389 53.084C40.4443 53.084 41.1863 53.3593 41.7649 53.91L41.1769 54.638C40.9716 54.4327 40.7289 54.274 40.4489 54.162C40.1783 54.0407 39.8843 53.98 39.5669 53.98C38.8949 53.98 38.3863 54.1853 38.0409 54.596C37.7049 54.9973 37.5369 55.6693 37.5369 56.612C37.5369 57.5547 37.7143 58.2313 38.0689 58.642C38.4236 59.0433 38.9603 59.244 39.6789 59.244ZM44.4814 54.134V57.48C44.4814 57.788 44.4954 58.054 44.5234 58.278C44.5514 58.502 44.6074 58.6887 44.6914 58.838C44.7847 58.978 44.9107 59.0807 45.0694 59.146C45.2374 59.2113 45.4614 59.244 45.7414 59.244C45.9467 59.244 46.1474 59.2207 46.3434 59.174C46.5487 59.1273 46.7447 59.0713 46.9314 59.006L47.1414 59.818C46.5814 60.0327 46.0167 60.14 45.4474 60.14C45.0367 60.14 44.696 60.084 44.4254 59.972C44.164 59.86 43.954 59.706 43.7954 59.51C43.646 59.3047 43.5434 59.062 43.4874 58.782C43.4314 58.4927 43.4034 58.1753 43.4034 57.83V54.134H42.2974V53.224H43.4034V51.796L44.4814 51.6V53.224H46.8754V54.134H44.4814ZM48.3684 53.224H49.4324V60H48.3684V53.224ZM48.3544 50.312H49.4324V51.712H48.3544V50.312ZM50.991 56.612C50.991 55.3987 51.2337 54.5073 51.719 53.938C52.2137 53.3687 52.9977 53.084 54.071 53.084C55.135 53.084 55.9097 53.3687 56.395 53.938C56.8897 54.5073 57.137 55.3987 57.137 56.612C57.137 57.8253 56.8897 58.7167 56.395 59.286C55.9004 59.8553 55.1257 60.14 54.071 60.14C53.007 60.14 52.2277 59.8553 51.733 59.286C51.2384 58.7167 50.991 57.8253 50.991 56.612ZM52.069 56.612C52.069 57.536 52.2277 58.208 52.545 58.628C52.8624 59.0387 53.371 59.244 54.071 59.244C54.771 59.244 55.2797 59.0387 55.597 58.628C55.9144 58.208 56.073 57.536 56.073 56.612C56.073 55.7067 55.9144 55.044 55.597 54.624C55.2797 54.204 54.771 53.994 54.071 53.994C53.371 53.994 52.8624 54.204 52.545 54.624C52.2277 55.044 52.069 55.7067 52.069 56.612ZM59.5342 53.91C59.8515 53.658 60.2015 53.4573 60.5842 53.308C60.9669 53.1587 61.3682 53.084 61.7882 53.084C62.5722 53.084 63.1322 53.2753 63.4682 53.658C63.8135 54.0313 63.9862 54.6427 63.9862 55.492V60H62.9222V55.786C62.9222 55.114 62.8102 54.6473 62.5862 54.386C62.3715 54.1247 62.0355 53.994 61.5782 53.994C60.9249 53.994 60.2715 54.232 59.6182 54.708V60H58.5542V53.224H59.3522L59.5342 53.91Z" fill="white"/>
<defs>
<clipPath id="clip0_5416_2526">
<rect width="44" height="44" fill="white" transform="translate(11)"/>
</clipPath>
</defs>
</svg>
