<svg width="138" height="146" viewBox="0 0 138 146" fill="none" xmlns="http://www.w3.org/2000/svg">
<path d="M107.705 86.7109H29.1712C23.6085 86.7109 19.0859 82.1884 19.0859 76.6257V29.8516C19.0859 24.2889 23.6085 19.7664 29.1712 19.7664H82.7632C83.8825 19.7664 84.7757 20.6709 84.7757 21.7789C84.7757 22.8869 83.8712 23.7914 82.7632 23.7914H29.1712C25.8358 23.7914 23.1223 26.5049 23.1223 29.8403V76.6144C23.1223 79.9498 25.8358 82.6633 29.1712 82.6633H107.705C111.04 82.6633 113.754 79.9498 113.754 76.6144V41.4971C113.754 40.3777 114.658 39.4845 115.766 39.4845C116.874 39.4845 117.779 40.389 117.779 41.4971V76.6144C117.779 82.1771 113.256 86.6996 107.694 86.6996L107.705 86.7109Z" fill="white"/>
<path d="M53.7966 103.093H47.5555C46.4362 103.093 45.543 102.189 45.543 101.081C45.543 99.9729 46.4475 99.0684 47.5555 99.0684H53.7966C56.9624 99.0684 59.5402 96.4905 59.5402 93.3248V84.6981C59.5402 83.5787 60.4447 82.6855 61.5527 82.6855C62.6608 82.6855 63.5653 83.59 63.5653 84.6981V93.3248C63.5653 98.7179 59.1784 103.105 53.7853 103.105L53.7966 103.093Z" fill="white"/>
<path d="M89.3218 103.093H83.0808C77.6876 103.093 73.3008 98.7066 73.3008 93.3135V84.6868C73.3008 83.5675 74.2053 82.6743 75.3133 82.6743C76.4213 82.6743 77.3258 83.5788 77.3258 84.6868V93.3135C77.3258 96.4793 79.9037 99.0571 83.0694 99.0571H89.3105C90.4298 99.0571 91.3231 99.9616 91.3231 101.07C91.3231 102.178 90.4185 103.082 89.3105 103.082L89.3218 103.093Z" fill="white"/>
<path d="M85.8749 103.094H50.7235C49.6041 103.094 48.7109 102.189 48.7109 101.081C48.7109 99.9731 49.6154 99.0686 50.7235 99.0686H85.8749C86.9942 99.0686 87.8874 99.9731 87.8874 101.081C87.8874 102.189 86.9829 103.094 85.8749 103.094Z" fill="white"/>
<path d="M52.1336 35.8452L52.4163 37.722L52.7441 39.972L54.8471 40.8539C55.8873 41.2948 56.8823 41.8601 57.7981 42.5611L59.6071 43.9405L61.7214 43.1038L63.4852 42.4028L65.9613 46.6879L64.4688 47.8751L62.6937 49.2884L62.9764 51.5383C63.0555 52.1376 63.0895 52.6916 63.0895 53.2456C63.0895 53.7996 63.0555 54.3536 62.9764 54.9528L62.6937 57.2028L64.4688 58.6161L65.9613 59.8032L63.4852 64.0883L61.7214 63.3873L59.6071 62.5507L57.7981 63.93C56.8823 64.631 55.8986 65.1963 54.8471 65.6373L52.7441 66.5192L52.4163 68.7691L52.1336 70.646H47.1927L46.9101 68.7691L46.5709 66.5192L44.4679 65.6373C43.4278 65.1963 42.4328 64.6197 41.517 63.93L39.7079 62.5507L37.5937 63.3873L35.8299 64.0883L33.3538 59.8032L34.8462 58.6161L36.6213 57.2028L36.3387 54.9528C36.2595 54.3536 36.2256 53.7996 36.2256 53.2456C36.2256 52.6916 36.2595 52.1376 36.3387 51.5383L36.6213 49.2884L34.8462 47.8751L33.3538 46.6879L35.8299 42.4028L37.5937 43.1038L39.7079 43.9405L41.517 42.5611C42.4328 41.8601 43.4164 41.2948 44.4679 40.8539L46.5709 39.972L46.9101 37.722L47.1927 35.8452H52.1336ZM52.7668 31.8088H46.5483C44.9089 31.8088 43.5295 33.0073 43.2921 34.6241L42.9189 37.1341C41.5396 37.7107 40.2507 38.4569 39.0861 39.3501L36.7231 38.4117C36.3274 38.2534 35.9203 38.1856 35.5133 38.1856C34.3601 38.1856 33.2633 38.7848 32.6528 39.8363L29.5436 45.2181C28.7295 46.6314 29.0687 48.4291 30.3463 49.4467L32.3362 51.0295C32.2458 51.7531 32.1892 52.4881 32.1892 53.2456C32.1892 54.0031 32.2458 54.738 32.3362 55.4616L30.3463 57.0445C29.0687 58.0621 28.7182 59.8598 29.5436 61.273L32.6528 66.6548C33.252 67.7063 34.3601 68.3056 35.5133 68.3056C35.9203 68.3056 36.3274 68.2264 36.7231 68.0794L39.0861 67.141C40.262 68.0342 41.5396 68.7804 42.9189 69.357L43.2921 71.867C43.5295 73.4838 44.9202 74.6823 46.5483 74.6823H52.7668C54.4062 74.6823 55.7856 73.4838 56.023 71.867L56.3961 69.357C57.7755 68.7804 59.0644 68.0342 60.229 67.141L62.592 68.0794C62.9877 68.2377 63.3947 68.3056 63.8017 68.3056C64.955 68.3056 66.0517 67.7063 66.6622 66.6548L69.7715 61.273C70.5855 59.8598 70.2464 58.0621 68.9687 57.0445L66.9788 55.4616C67.0693 54.738 67.1258 54.0031 67.1258 53.2456C67.1258 52.4881 67.0693 51.7531 66.9788 51.0295L68.9687 49.4467C70.2464 48.4291 70.5968 46.6314 69.7715 45.2181L66.6622 39.8363C66.063 38.7848 64.955 38.1856 63.8017 38.1856C63.3947 38.1856 62.9877 38.2647 62.592 38.4117L60.229 39.3501C59.0531 38.4569 57.7755 37.7107 56.3961 37.1341L56.023 34.6241C55.7856 33.0073 54.3949 31.8088 52.7668 31.8088Z" fill="white"/>
<path d="M49.6575 48.2029C52.4276 48.2029 54.6888 50.4641 54.6888 53.2342C54.6888 56.0042 52.4276 58.2655 49.6575 58.2655C46.8875 58.2655 44.6262 56.0042 44.6262 53.2342C44.6262 50.4641 46.8875 48.2029 49.6575 48.2029ZM49.6575 44.1665C44.6488 44.1665 40.5898 48.2255 40.5898 53.2342C40.5898 58.2428 44.6488 62.3018 49.6575 62.3018C54.6663 62.3018 58.7252 58.2428 58.7252 53.2342C58.7252 48.2255 54.6663 44.1665 49.6575 44.1665Z" fill="white"/>
<path d="M87.8976 67.3877C87.287 67.3877 86.6878 67.1164 86.2921 66.5963C86.0434 66.2684 80.1414 58.3427 81.0233 46.4711C82.007 33.2653 97.5306 24.8308 98.1863 24.4803C99.1587 23.9603 100.391 24.3221 100.911 25.3057C101.431 26.2894 101.069 27.5104 100.086 28.0305C99.9389 28.1097 85.8624 35.7753 85.0371 46.7651C84.2682 57.0651 89.4466 64.0863 89.5031 64.1541C90.1702 65.0473 90.0006 66.3023 89.1074 66.9807C88.7456 67.2521 88.3159 67.3877 87.8863 67.3877H87.8976Z" fill="white"/>
<path d="M87.5935 49.0269C84.7217 49.0269 82.8335 48.6425 82.6074 48.5859C81.522 48.3485 80.821 47.2744 81.0584 46.189C81.2958 45.1036 82.3699 44.4026 83.4554 44.64C84.032 44.7531 97.2265 47.3988 107.481 36.2395C115.803 27.1944 115.204 17.1431 114.514 13.0729C111.461 12.7789 97.6561 12.0214 87.3787 21.3717C82.223 26.0638 80.0069 31.5134 80.8097 37.5736C80.9567 38.6816 80.1765 39.6879 79.0685 39.8349C77.9605 39.9932 76.9542 39.2017 76.8072 38.0937C76.1288 32.9719 76.9429 25.3967 84.6651 18.3868C96.3898 7.72499 112.072 8.75386 115.09 9.08175C116.809 9.26265 118.155 10.5176 118.46 12.2136C119.274 16.7587 120.11 28.4833 110.455 38.9756C102.597 47.5232 93.2127 49.0269 87.5822 49.0269H87.5935Z" fill="white"/>
<path d="M15.3137 132.936C15.3137 135.688 14.6257 137.72 13.2497 139.032C11.8737 140.344 9.86569 141 7.22569 141H2.37769V124.872H7.22569C9.88169 124.872 11.8897 125.536 13.2497 126.864C14.6257 128.192 15.3137 130.216 15.3137 132.936ZM4.89769 126.96V138.936H7.22569C9.01769 138.936 10.3937 138.464 11.3537 137.52C12.3137 136.56 12.7937 135.032 12.7937 132.936C12.7937 130.856 12.3137 129.344 11.3537 128.4C10.3937 127.44 9.01769 126.96 7.22569 126.96H4.89769ZM22.7602 141.24C20.7762 141.24 19.3442 140.752 18.4642 139.776C17.6002 138.8 17.1682 137.272 17.1682 135.192C17.1682 133.112 17.5842 131.584 18.4162 130.608C19.2642 129.632 20.5602 129.144 22.3042 129.144C24.0162 129.144 25.2962 129.632 26.1442 130.608C26.9922 131.568 27.4162 133.088 27.4162 135.168V136.008H19.7122C19.7922 137.128 20.0642 137.944 20.5282 138.456C21.0082 138.968 21.7602 139.224 22.7842 139.224C23.4562 139.224 24.1042 139.128 24.7282 138.936C25.3522 138.744 25.9682 138.464 26.5762 138.096L27.2962 139.992C26.6882 140.36 25.9922 140.664 25.2082 140.904C24.4402 141.128 23.6242 141.24 22.7602 141.24ZM24.8482 134.088C24.7682 133.128 24.5282 132.408 24.1282 131.928C23.7282 131.432 23.1202 131.184 22.3042 131.184C20.7042 131.184 19.8482 132.152 19.7362 134.088H24.8482ZM32.9769 141L28.5849 129.384H31.1529L33.0969 134.952L34.2249 138.144H34.2729L35.4249 134.952L37.3449 129.384H39.9129L35.5209 141H32.9769ZM46.4265 141.24C44.4425 141.24 43.0105 140.752 42.1305 139.776C41.2665 138.8 40.8345 137.272 40.8345 135.192C40.8345 133.112 41.2505 131.584 42.0825 130.608C42.9305 129.632 44.2265 129.144 45.9705 129.144C47.6825 129.144 48.9625 129.632 49.8105 130.608C50.6585 131.568 51.0825 133.088 51.0825 135.168V136.008H43.3785C43.4585 137.128 43.7305 137.944 44.1945 138.456C44.6745 138.968 45.4265 139.224 46.4505 139.224C47.1225 139.224 47.7705 139.128 48.3945 138.936C49.0185 138.744 49.6345 138.464 50.2425 138.096L50.9625 139.992C50.3545 140.36 49.6585 140.664 48.8745 140.904C48.1065 141.128 47.2905 141.24 46.4265 141.24ZM48.5145 134.088C48.4345 133.128 48.1945 132.408 47.7945 131.928C47.3945 131.432 46.7865 131.184 45.9705 131.184C44.3705 131.184 43.5145 132.152 43.4025 134.088H48.5145ZM56.2592 124.056V137.88C56.2592 138.424 56.3312 138.776 56.4752 138.936C56.6192 139.08 56.9072 139.152 57.3392 139.152V141.168C57.1952 141.2 57.0752 141.216 56.9792 141.216C56.8832 141.232 56.7392 141.24 56.5472 141.24C55.6192 141.24 54.9232 140.984 54.4592 140.472C54.0112 139.944 53.7872 139.08 53.7872 137.88V124.344L56.2592 124.056ZM59.0633 135.192C59.0633 133.08 59.5033 131.544 60.3833 130.584C61.2793 129.624 62.6713 129.144 64.5593 129.144C66.4473 129.144 67.8313 129.632 68.7113 130.608C69.6073 131.584 70.0553 133.112 70.0553 135.192C70.0553 137.304 69.6073 138.84 68.7113 139.8C67.8313 140.76 66.4473 141.24 64.5593 141.24C62.6713 141.24 61.2793 140.76 60.3833 139.8C59.5033 138.84 59.0633 137.304 59.0633 135.192ZM61.5353 135.192C61.5353 136.552 61.7673 137.568 62.2313 138.24C62.7113 138.896 63.4873 139.224 64.5593 139.224C65.6313 139.224 66.3993 138.896 66.8633 138.24C67.3273 137.568 67.5593 136.552 67.5593 135.192C67.5593 133.832 67.3273 132.824 66.8633 132.168C66.3993 131.512 65.6313 131.184 64.5593 131.184C63.4873 131.184 62.7113 131.512 62.2313 132.168C61.7673 132.824 61.5353 133.832 61.5353 135.192ZM74.4214 129.384L74.7334 130.296C75.5334 129.528 76.5494 129.144 77.7814 129.144C79.4294 129.144 80.6774 129.632 81.5254 130.608C82.3734 131.584 82.7974 133.112 82.7974 135.192C82.7974 137.272 82.3894 138.8 81.5734 139.776C80.7574 140.752 79.6294 141.24 78.1894 141.24C77.5974 141.24 77.0134 141.144 76.4374 140.952C75.8614 140.76 75.3894 140.512 75.0214 140.208V145.992H72.5254V129.384H74.4214ZM77.4694 131.16C76.9894 131.16 76.5414 131.248 76.1254 131.424C75.7094 131.584 75.3414 131.808 75.0214 132.096V138.288C75.3414 138.592 75.7094 138.832 76.1254 139.008C76.5414 139.168 76.9814 139.248 77.4454 139.248C78.4054 139.248 79.1174 138.936 79.5814 138.312C80.0614 137.688 80.3014 136.648 80.3014 135.192C80.3014 133.736 80.0694 132.704 79.6054 132.096C79.1414 131.472 78.4294 131.16 77.4694 131.16ZM87.4566 130.296C88.0166 129.928 88.5766 129.648 89.1366 129.456C89.7126 129.248 90.3206 129.144 90.9606 129.144C91.7286 129.144 92.3526 129.256 92.8326 129.48C93.3286 129.688 93.7126 130.048 93.9846 130.56C94.5286 130.128 95.1206 129.784 95.7606 129.528C96.4006 129.272 97.0806 129.144 97.8006 129.144C99.1446 129.144 100.081 129.48 100.609 130.152C101.137 130.808 101.401 131.848 101.401 133.272V141H98.9046V133.8C98.9046 132.824 98.7766 132.144 98.5206 131.76C98.2646 131.36 97.8326 131.16 97.2246 131.16C96.7926 131.16 96.3446 131.248 95.8806 131.424C95.4326 131.6 94.9766 131.848 94.5126 132.168C94.5606 132.488 94.5846 132.856 94.5846 133.272V141H92.1126V133.8C92.1126 132.824 91.9926 132.144 91.7526 131.76C91.5126 131.36 91.0646 131.16 90.4086 131.16C89.9606 131.16 89.5206 131.24 89.0886 131.4C88.6726 131.56 88.2326 131.8 87.7686 132.12V141H85.2726V129.384H87.1446L87.4566 130.296ZM109.319 141.24C107.335 141.24 105.903 140.752 105.023 139.776C104.159 138.8 103.727 137.272 103.727 135.192C103.727 133.112 104.143 131.584 104.975 130.608C105.823 129.632 107.119 129.144 108.863 129.144C110.575 129.144 111.855 129.632 112.703 130.608C113.551 131.568 113.975 133.088 113.975 135.168V136.008H106.271C106.351 137.128 106.623 137.944 107.087 138.456C107.567 138.968 108.319 139.224 109.343 139.224C110.015 139.224 110.663 139.128 111.287 138.936C111.911 138.744 112.527 138.464 113.135 138.096L113.855 139.992C113.247 140.36 112.551 140.664 111.767 140.904C110.999 141.128 110.183 141.24 109.319 141.24ZM111.407 134.088C111.327 133.128 111.087 132.408 110.687 131.928C110.287 131.432 109.679 131.184 108.863 131.184C107.263 131.184 106.407 132.152 106.295 134.088H111.407ZM118.647 130.44C119.159 130.04 119.727 129.728 120.351 129.504C120.975 129.264 121.647 129.144 122.367 129.144C123.727 129.144 124.711 129.472 125.319 130.128C125.943 130.784 126.255 131.832 126.255 133.272V141H123.759V133.8C123.759 132.84 123.591 132.16 123.255 131.76C122.935 131.36 122.455 131.16 121.815 131.16C121.303 131.16 120.807 131.248 120.327 131.424C119.863 131.584 119.391 131.824 118.911 132.144V141H116.415V129.384H118.287L118.647 130.44ZM132.404 131.424V136.728C132.404 137.656 132.532 138.304 132.788 138.672C133.044 139.04 133.54 139.224 134.276 139.224C134.644 139.224 135.012 139.168 135.38 139.056C135.764 138.944 136.124 138.816 136.46 138.672L136.94 140.52C136.428 140.76 135.884 140.936 135.308 141.048C134.732 141.176 134.164 141.24 133.604 141.24C132.9 141.24 132.308 141.152 131.828 140.976C131.364 140.8 130.988 140.544 130.7 140.208C130.428 139.856 130.228 139.432 130.1 138.936C129.988 138.44 129.932 137.864 129.932 137.208V131.424H128.036V129.384H129.932V127.056L132.404 126.6V129.384H136.508V131.424H132.404Z" fill="white"/>
</svg>
