<svg width="112" height="146" viewBox="0 0 112 146" fill="none" xmlns="http://www.w3.org/2000/svg">
<path d="M20.809 50.1502L28.0225 54.3109L35.6203 41.1504C35.9708 40.5512 35.3376 39.8615 34.7157 40.1554L20.9673 46.5661C19.4862 47.2558 19.3957 49.3249 20.809 50.1389V50.1502Z" fill="white"/>
<path d="M84.1002 37.8952L76.8867 42.0673L84.4845 55.2278C84.835 55.827 85.7396 55.6235 85.7961 54.9338L87.119 39.8286C87.266 38.2005 85.5135 37.0925 84.1002 37.9065V37.8952Z" fill="white"/>
<path d="M63.377 99.5705V91.2378H48.1812C47.4916 91.2378 47.2089 92.131 47.7742 92.5267L60.1999 101.233C61.534 102.171 63.377 101.21 63.377 99.5818V99.5705Z" fill="white"/>
<path d="M33.8451 95.2743H19.3955C15.2913 95.2743 11.6167 93.1487 9.55894 89.5985C7.50119 86.0483 7.50119 81.7971 9.55894 78.247L29.2207 44.1811C29.7747 43.2201 31.0071 42.8809 31.9795 43.4462C32.9405 44.0002 33.2797 45.2326 32.7144 46.2049L13.0527 80.2708C11.7299 82.566 11.7299 85.3021 13.0527 87.586C14.3755 89.8812 16.7499 91.2492 19.3955 91.2492H33.8451C34.9644 91.2492 35.8575 92.1537 35.8575 93.2617C35.8575 94.3698 34.9531 95.2743 33.8451 95.2743Z" fill="white"/>
<path d="M92.6038 95.2735H53.9813C52.862 95.2735 51.9688 94.369 51.9688 93.261C51.9688 92.153 52.8733 91.2485 53.9813 91.2485H92.6038C95.2495 91.2485 97.6238 89.8804 98.9466 87.5852C100.269 85.29 100.269 82.5539 98.9466 80.27L91.5636 67.4826C91.0095 66.5216 91.3375 65.2892 92.2985 64.7239C93.2595 64.1699 94.4919 64.4978 95.0572 65.4588L102.44 78.2462C104.498 81.7964 104.498 86.0476 102.44 89.5977C100.382 93.1479 96.708 95.2735 92.6038 95.2735Z" fill="white"/>
<path d="M83.2878 51.1232C82.5868 51.1232 81.9084 50.7614 81.5353 50.117L63.4112 18.7194C61.8622 16.0398 59.0923 14.4343 55.9943 14.4343C52.8964 14.4343 50.1263 16.0398 48.5773 18.7194L42.7094 28.8724C42.1554 29.8335 40.9229 30.1727 39.9506 29.6073C38.9895 29.0533 38.6504 27.8209 39.2158 26.8486L45.0837 16.6956C47.3562 12.7497 51.4379 10.3979 55.9943 10.3979C60.5508 10.3979 64.6211 12.7497 66.905 16.6956L85.0289 48.0931C85.5829 49.0542 85.2551 50.2866 84.2941 50.8519C83.9775 51.0328 83.627 51.1232 83.2878 51.1232Z" fill="white"/>
<path d="M11.3949 123.96V129.36H14.8029C16.8189 129.36 17.8269 128.464 17.8269 126.672C17.8269 124.864 16.8349 123.96 14.8509 123.96H11.3949ZM8.87487 138V121.872H14.8029C18.5469 121.872 20.4189 123.472 20.4189 126.672C20.4189 127.728 20.1549 128.632 19.6269 129.384C19.1149 130.136 18.3709 130.688 17.3949 131.04L20.9469 138H18.2829L14.9469 131.448H11.3949V138H8.87487ZM28.2028 138.24C26.2188 138.24 24.7868 137.752 23.9068 136.776C23.0428 135.8 22.6108 134.272 22.6108 132.192C22.6108 130.112 23.0268 128.584 23.8588 127.608C24.7068 126.632 26.0028 126.144 27.7468 126.144C29.4588 126.144 30.7388 126.632 31.5868 127.608C32.4348 128.568 32.8588 130.088 32.8588 132.168V133.008H25.1548C25.2348 134.128 25.5068 134.944 25.9708 135.456C26.4508 135.968 27.2028 136.224 28.2268 136.224C28.8988 136.224 29.5468 136.128 30.1708 135.936C30.7948 135.744 31.4108 135.464 32.0188 135.096L32.7388 136.992C32.1308 137.36 31.4348 137.664 30.6508 137.904C29.8828 138.128 29.0668 138.24 28.2028 138.24ZM30.2908 131.088C30.2108 130.128 29.9708 129.408 29.5708 128.928C29.1708 128.432 28.5628 128.184 27.7468 128.184C26.1468 128.184 25.2908 129.152 25.1788 131.088H30.2908ZM40.5554 136.2C41.1474 136.2 41.6994 136.128 42.2114 135.984C42.7234 135.824 43.2274 135.608 43.7234 135.336L44.3234 137.256C43.8274 137.56 43.2594 137.8 42.6194 137.976C41.9794 138.152 41.2914 138.24 40.5554 138.24C38.5554 138.24 37.0914 137.76 36.1634 136.8C35.2514 135.84 34.7954 134.304 34.7954 132.192C34.7954 130.112 35.2434 128.584 36.1394 127.608C37.0354 126.632 38.4274 126.144 40.3154 126.144C42.0114 126.144 43.3794 126.648 44.4194 127.656L43.1234 129.336C42.3554 128.568 41.4434 128.184 40.3874 128.184C39.3794 128.184 38.6114 128.488 38.0834 129.096C37.5554 129.704 37.2914 130.736 37.2914 132.192C37.2914 133.632 37.5634 134.664 38.1074 135.288C38.6514 135.896 39.4674 136.2 40.5554 136.2ZM45.2997 126.384H47.8917L50.7957 134.688H50.8677L53.6997 126.384H56.2677L51.5637 139.296C51.2917 140.016 51.0037 140.624 50.6997 141.12C50.3957 141.632 50.0517 142.04 49.6677 142.344C49.2837 142.664 48.8437 142.888 48.3477 143.016C47.8517 143.16 47.2837 143.232 46.6437 143.232C46.4037 143.232 46.1637 143.208 45.9237 143.16C45.6837 143.128 45.4677 143.08 45.2757 143.016C45.3557 142.696 45.4197 142.368 45.4677 142.032C45.5317 141.712 45.5957 141.384 45.6597 141.048C46.0117 141.16 46.3957 141.216 46.8117 141.216C47.3077 141.216 47.7397 141.064 48.1077 140.76C48.4917 140.456 48.7797 140.064 48.9717 139.584L49.7397 137.688L45.2997 126.384ZM62.9795 136.2C63.5715 136.2 64.1235 136.128 64.6355 135.984C65.1475 135.824 65.6515 135.608 66.1475 135.336L66.7475 137.256C66.2515 137.56 65.6835 137.8 65.0435 137.976C64.4035 138.152 63.7155 138.24 62.9795 138.24C60.9795 138.24 59.5155 137.76 58.5875 136.8C57.6755 135.84 57.2195 134.304 57.2195 132.192C57.2195 130.112 57.6675 128.584 58.5635 127.608C59.4595 126.632 60.8515 126.144 62.7395 126.144C64.4355 126.144 65.8035 126.648 66.8435 127.656L65.5475 129.336C64.7795 128.568 63.8675 128.184 62.8115 128.184C61.8035 128.184 61.0355 128.488 60.5075 129.096C59.9795 129.704 59.7155 130.736 59.7155 132.192C59.7155 133.632 59.9875 134.664 60.5315 135.288C61.0755 135.896 61.8915 136.2 62.9795 136.2ZM71.6598 121.056V134.88C71.6598 135.424 71.7318 135.776 71.8758 135.936C72.0198 136.08 72.3078 136.152 72.7398 136.152V138.168C72.5958 138.2 72.4758 138.216 72.3798 138.216C72.2838 138.232 72.1398 138.24 71.9478 138.24C71.0198 138.24 70.3238 137.984 69.8598 137.472C69.4118 136.944 69.1878 136.08 69.1878 134.88V121.344L71.6598 121.056ZM75.2319 126.384H77.7279V138H75.2319V126.384ZM75.2319 121.392H77.7279V124.008H75.2319V121.392ZM83.1971 127.44C83.7091 127.04 84.2771 126.728 84.9011 126.504C85.5251 126.264 86.1971 126.144 86.9171 126.144C88.2771 126.144 89.2611 126.472 89.8691 127.128C90.4931 127.784 90.8051 128.832 90.8051 130.272V138H88.3091V130.8C88.3091 129.84 88.1411 129.16 87.8051 128.76C87.4851 128.36 87.0051 128.16 86.3651 128.16C85.8531 128.16 85.3571 128.248 84.8771 128.424C84.4131 128.584 83.9411 128.824 83.4611 129.144V138H80.9651V126.384H82.8371L83.1971 127.44ZM103.41 126.384V138.024C103.41 139.848 102.954 141.168 102.042 141.984C101.13 142.816 99.7619 143.232 97.9379 143.232C97.2659 143.232 96.6019 143.176 95.9459 143.064C95.2899 142.952 94.6979 142.792 94.1699 142.584L94.6979 140.64C95.2099 140.816 95.7379 140.952 96.2819 141.048C96.8259 141.16 97.3619 141.216 97.8899 141.216C98.9619 141.216 99.7299 140.984 100.194 140.52C100.674 140.072 100.914 139.32 100.914 138.264V137.208C100.546 137.528 100.09 137.784 99.5459 137.976C99.0179 138.152 98.4179 138.24 97.7459 138.24C96.3059 138.24 95.1779 137.752 94.3619 136.776C93.5459 135.8 93.1379 134.272 93.1379 132.192C93.1379 130.112 93.5619 128.584 94.4099 127.608C95.2579 126.632 96.5059 126.144 98.1539 126.144C99.3699 126.144 100.378 126.528 101.178 127.296L101.514 126.384H103.41ZM98.4659 128.16C97.5059 128.16 96.7859 128.472 96.3059 129.096C95.8419 129.704 95.6099 130.736 95.6099 132.192C95.6099 133.648 95.8499 134.688 96.3299 135.312C96.8099 135.936 97.5299 136.248 98.4899 136.248C98.9539 136.248 99.3939 136.168 99.8099 136.008C100.226 135.832 100.594 135.592 100.914 135.288V129.096C100.594 128.808 100.226 128.584 99.8099 128.424C99.3939 128.248 98.9459 128.16 98.4659 128.16Z" fill="white"/>
</svg>
