<svg width="1076" height="533" viewBox="0 0 1076 533" fill="none" xmlns="http://www.w3.org/2000/svg">
<path d="M907 12.7622C1004.75 52.3359 1074 150.916 1074 266.262C1074 381.609 1004.75 480.189 907 519.762" stroke="white" stroke-opacity="0.3" stroke-width="3"/>
<path d="M169 519.762C71.2488 480.188 2 381.609 2 266.262C2 150.916 71.2488 52.3359 169 12.7622" stroke="white" stroke-opacity="0.3" stroke-width="3"/>
<path d="M166.926 7.63454L169.151 13.1297L171.375 18.6249C171.851 19.7984 173.738 19.8368 174.639 18.6915L182.983 8.03009C183.126 7.84176 183.123 7.66976 183.055 7.50211C182.995 7.35309 182.889 7.20076 182.636 7.17321L169.224 5.31684C167.78 5.12096 166.443 6.44236 166.926 7.63454Z" fill="white" fill-opacity="0.3"/>
<path d="M909.364 525.621L907.144 520.124L904.924 514.627C904.45 513.453 902.563 513.413 901.66 514.557L893.306 525.212C893.162 525.4 893.165 525.572 893.233 525.74C893.293 525.889 893.399 526.041 893.652 526.069L907.064 527.937C908.508 528.134 909.846 526.813 909.364 525.621Z" fill="white" fill-opacity="0.3"/>
<line x1="359" y1="12.5" x2="459" y2="12.5" stroke="white" stroke-opacity="0.3" stroke-width="3"/>
<line x1="359" y1="522.5" x2="459" y2="522.5" stroke="white" stroke-opacity="0.3" stroke-width="3"/>
<line x1="625" y1="12.5" x2="725" y2="12.5" stroke="white" stroke-opacity="0.3" stroke-width="3"/>
<line x1="625" y1="522.5" x2="725" y2="522.5" stroke="white" stroke-opacity="0.3" stroke-width="3"/>
</svg>
