<svg width="642" height="318" viewBox="0 0 642 318" fill="none" xmlns="http://www.w3.org/2000/svg">
<path d="M541 7.00002C599.534 30.6506 641 89.5652 641 158.5C641 227.435 599.534 286.349 541 310" stroke="white" stroke-opacity="0.3" stroke-width="1.79104"/>
<path d="M101 311C42.4663 287.349 1 228.435 1 159.5C1 90.5651 42.4663 31.6506 101 8" stroke="white" stroke-opacity="0.3" stroke-width="1.79104"/>
<path d="M99.6615 4.68779L100.996 7.98496L102.331 11.2821C102.616 11.9863 103.748 12.0093 104.289 11.3221L109.295 4.92477C109.381 4.81176 109.379 4.70857 109.339 4.60797C109.302 4.51856 109.239 4.42716 109.087 4.41064L101.04 3.29707C100.174 3.17957 99.3719 3.97247 99.6615 4.68779Z" fill="white" fill-opacity="0.3"/>
<path d="M542.452 313.598L541.12 310.3L539.788 307.001C539.504 306.297 538.371 306.273 537.83 306.96L532.818 313.353C532.732 313.466 532.734 313.569 532.775 313.67C532.811 313.759 532.874 313.85 533.026 313.867L541.072 314.988C541.938 315.106 542.741 314.314 542.452 313.598Z" fill="white" fill-opacity="0.3"/>
<line x1="214" y1="7.10448" x2="274" y2="7.10448" stroke="white" stroke-opacity="0.3" stroke-width="1.79104"/>
<line x1="214" y1="311.104" x2="274" y2="311.104" stroke="white" stroke-opacity="0.3" stroke-width="1.79104"/>
<line x1="373" y1="7.10448" x2="433" y2="7.10448" stroke="white" stroke-opacity="0.3" stroke-width="1.79104"/>
<line x1="373" y1="311.104" x2="433" y2="311.104" stroke="white" stroke-opacity="0.3" stroke-width="1.79104"/>
</svg>
