<svg width="348" height="244" viewBox="0 0 348 244" fill="none" xmlns="http://www.w3.org/2000/svg">
<path d="M297 5.75098C326.267 23.9377 347 69.2417 347 122.251C347 175.26 326.267 220.564 297 238.751" stroke="white" stroke-opacity="0.3" stroke-width="1.2"/>
<path d="M51 238.751C21.7332 220.564 1 175.26 1 122.251C1 69.2417 21.7332 23.9377 51 5.75098" stroke="white" stroke-opacity="0.3" stroke-width="1.2"/>
<path d="M298.041 240.457L297 238.777L295.959 237.097C295.737 236.738 295.115 236.832 294.883 237.259L292.744 241.233C292.707 241.303 292.718 241.359 292.75 241.411C292.778 241.456 292.822 241.5 292.906 241.495L297.417 241.348C297.902 241.331 298.267 240.821 298.041 240.457Z" fill="white" fill-opacity="0.3"/>
<path d="M49.8746 3.94796L50.92 5.62498L51.9654 7.302C52.1886 7.66014 52.8104 7.5646 53.0408 7.13684L55.1696 3.15759C55.2061 3.0875 55.1951 3.03122 55.1632 2.98006C55.1348 2.93458 55.0914 2.89062 55.0066 2.89609L50.4965 3.05515C50.011 3.0736 49.6479 3.58413 49.8746 3.94796Z" fill="white" fill-opacity="0.3"/>
<line x1="117" y1="4.90098" x2="141" y2="4.90098" stroke="white" stroke-opacity="0.3" stroke-width="1.2"/>
<line x1="207" y1="4.90098" x2="231" y2="4.90098" stroke="white" stroke-opacity="0.3" stroke-width="1.2"/>
<line x1="117" y1="238.151" x2="141" y2="238.151" stroke="white" stroke-opacity="0.3" stroke-width="1.2"/>
<line x1="207" y1="238.136" x2="231" y2="238.136" stroke="white" stroke-opacity="0.3" stroke-width="1.229"/>
</svg>
