<svg width="348" height="249" viewBox="0 0 348 249" fill="none" xmlns="http://www.w3.org/2000/svg">
<path d="M297 7.75086C326.267 25.9376 347 71.2415 347 124.251C347 177.26 326.267 222.564 297 240.751" stroke="white" stroke-opacity="0.3" stroke-width="1.2"/>
<path d="M51 240.751C21.7332 222.564 1 177.26 1 124.251C1 71.2417 21.7332 25.9377 51 7.75098" stroke="white" stroke-opacity="0.3" stroke-width="1.2"/>
<path d="M298.558 243.268L296.893 240.581L295.227 237.893C294.871 237.319 293.876 237.469 293.506 238.153L290.083 244.511C290.024 244.623 290.042 244.713 290.092 244.795C290.138 244.868 290.207 244.938 290.343 244.93L297.559 244.694C298.336 244.667 298.919 243.851 298.558 243.268Z" fill="white" fill-opacity="0.3"/>
<path d="M49.3043 5.03358L50.9769 7.71681L52.6495 10.4C53.0067 10.9731 54.0016 10.8202 54.3702 10.1358L57.7763 3.76899C57.8346 3.65684 57.817 3.5668 57.766 3.48494C57.7206 3.41218 57.6511 3.34183 57.5155 3.35059L50.2993 3.60508C49.5225 3.63461 48.9415 4.45145 49.3043 5.03358Z" fill="white" fill-opacity="0.3"/>
<line x1="117" y1="6.90098" x2="141" y2="6.90098" stroke="white" stroke-opacity="0.3" stroke-width="1.2"/>
<line x1="207" y1="6.90098" x2="231" y2="6.90098" stroke="white" stroke-opacity="0.3" stroke-width="1.2"/>
<line x1="117" y1="240.151" x2="141" y2="240.151" stroke="white" stroke-opacity="0.3" stroke-width="1.2"/>
<line x1="207" y1="240.136" x2="231" y2="240.136" stroke="white" stroke-opacity="0.3" stroke-width="1.229"/>
</svg>
