<svg width="335" height="614" viewBox="0 0 335 614" fill="none" xmlns="http://www.w3.org/2000/svg">
<path d="M0 10C0 4.47715 4.47715 0 10 0H325C330.523 0 335 4.47715 335 10V307H0V10Z" fill="white"/>
<path d="M21.1291 55.528L24.5871 69.88L28.0451 55.528H30.3851L33.8431 69.88L37.3011 55.528H39.7971L35.1431 73H32.5431L29.2151 60.078L25.8871 73H23.2871L18.6331 55.528H21.1291ZM41.5411 58.05V55.528H43.8811V58.05H41.5411ZM41.5411 73V60.39H43.8811V73H41.5411ZM45.8102 60.39H47.8122V57.088H50.1522V60.39H53.2462V62.444H50.1522V69.958C50.1522 70.79 50.4642 70.972 51.3222 70.972H53.2462V73H51.0622C49.3462 73 47.8122 72.22 47.8122 70.192V62.444H45.8102V60.39ZM57.6217 73H55.3077V55.528H57.6217V61.924C58.4797 60.754 59.8577 60.052 61.6777 60.052C64.7977 60.052 66.6957 62.262 66.6957 65.538V73H64.3817V65.356C64.3817 63.068 63.3677 62.158 61.0537 62.158C58.7137 62.158 57.6217 63.068 57.6217 65.356V73ZM80.038 73.312C76.684 73.312 74.058 70.608 74.058 66.682C74.058 62.782 76.684 60.052 80.038 60.052C81.806 60.052 83.236 60.754 84.198 61.976V60.39H86.538V73H84.536L84.328 71.232C83.34 72.558 81.884 73.312 80.038 73.312ZM76.398 66.682C76.398 69.88 77.724 71.206 80.376 71.206C83.002 71.206 84.328 69.88 84.328 66.682C84.328 63.484 83.002 62.158 80.376 62.158C77.724 62.158 76.398 63.484 76.398 66.682Z" fill="#262626"/>
<path d="M102.21 69.542C102.21 68.658 101.664 68.294 100.364 67.982L98.2059 67.488C95.6839 66.89 94.3839 65.85 94.3839 63.666C94.3839 61.404 96.7499 59.974 99.5579 59.974C102.366 59.974 104.602 61.404 104.966 63.978H102.132C101.95 62.808 101.17 62.392 99.5579 62.392C97.9719 62.392 97.2439 62.834 97.2439 63.666C97.2439 64.368 97.5819 64.732 98.9079 65.044L101.144 65.616C103.718 66.24 105.044 67.176 105.044 69.464C105.044 72.012 102.574 73.364 99.6359 73.364C96.9059 73.364 94.3839 72.09 93.9679 69.048H96.8019C97.0619 70.556 97.8939 70.92 99.6359 70.92C101.326 70.92 102.21 70.478 102.21 69.542ZM109.95 73H107.116V60.312H109.586L109.768 61.716C110.522 60.598 111.588 59.974 113.096 59.974C114.838 59.974 116.034 60.91 116.684 62.288C117.438 60.832 118.634 59.974 120.376 59.974C123.08 59.974 124.51 62.002 124.51 65.148V73H121.676V64.888C121.676 63.302 121.13 62.496 119.466 62.496C117.828 62.496 117.23 63.302 117.23 64.888V64.966V73H114.396V64.888C114.396 63.302 113.85 62.496 112.186 62.496C110.548 62.496 109.95 63.302 109.95 64.888V73ZM127.227 58.362V55.528H130.113V58.362H127.227ZM127.227 73V60.312H130.113V73H127.227ZM136.219 73.26C134.217 73.26 132.943 72.454 132.943 70.296V55.528H135.829V69.802C135.829 70.634 136.089 70.816 136.843 70.816H137.337V73.26H136.219ZM150.74 69.308C149.882 71.856 147.516 73.364 144.708 73.364C141.042 73.364 138.208 70.686 138.208 66.63C138.208 62.626 141.042 59.974 144.63 59.974C147.828 59.974 150.974 62.184 150.974 66.682V67.488H141.094C141.302 70.01 142.394 70.816 144.708 70.816C146.476 70.816 147.334 70.4 147.854 69.308H150.74ZM141.146 65.356H148.14C147.906 63.302 146.866 62.496 144.63 62.496C142.524 62.496 141.432 63.224 141.146 65.356Z" fill="#FD312E"/>
<rect x="18" y="100" width="300" height="1" fill="#4A4946"/>
<circle cx="149" cy="101" r="10" fill="#FD312E"/>
<path d="M20.8161 134.528L24.2741 148.88L27.7321 134.528H30.0721L33.5301 148.88L36.9881 134.528H39.4841L34.8301 152H32.2301L28.9021 139.078L25.5741 152H22.9741L18.3201 134.528H20.8161ZM41.2281 137.05V134.528H43.5681V137.05H41.2281ZM41.2281 152V139.39H43.5681V152H41.2281ZM45.4972 139.39H47.4992V136.088H49.8392V139.39H52.9332V141.444H49.8392V148.958C49.8392 149.79 50.1512 149.972 51.0092 149.972H52.9332V152H50.7492C49.0332 152 47.4992 151.22 47.4992 149.192V141.444H45.4972V139.39ZM57.3087 152H54.9947V134.528H57.3087V140.924C58.1667 139.754 59.5447 139.052 61.3647 139.052C64.4847 139.052 66.3827 141.262 66.3827 144.538V152H64.0687V144.356C64.0687 142.068 63.0547 141.158 60.7407 141.158C58.4007 141.158 57.3087 142.068 57.3087 144.356V152ZM79.725 152.312C76.371 152.312 73.745 149.608 73.745 145.682C73.745 141.782 76.371 139.052 79.725 139.052C81.493 139.052 82.923 139.754 83.885 140.976V139.39H86.225V152H84.223L84.015 150.232C83.027 151.558 81.571 152.312 79.725 152.312ZM76.085 145.682C76.085 148.88 77.411 150.206 80.063 150.206C82.689 150.206 84.015 148.88 84.015 145.682C84.015 142.484 82.689 141.158 80.063 141.158C77.411 141.158 76.085 142.484 76.085 145.682Z" fill="#262626"/>
<path d="M94.4349 137.362V134.528H97.3209V137.362H94.4349ZM94.4349 152V139.312H97.3209V152H94.4349ZM108.808 144.33C108.808 142.302 107.976 141.496 105.922 141.496C103.868 141.496 102.984 142.302 102.984 144.33V152H100.15V139.312H102.62L102.828 140.872C103.738 139.676 105.09 138.974 106.832 138.974C109.77 138.974 111.668 141.184 111.668 144.382V152H108.808V144.33ZM121.833 148.542C121.833 147.658 121.287 147.294 119.987 146.982L117.829 146.488C115.307 145.89 114.007 144.85 114.007 142.666C114.007 140.404 116.373 138.974 119.181 138.974C121.989 138.974 124.225 140.404 124.589 142.978H121.755C121.573 141.808 120.793 141.392 119.181 141.392C117.595 141.392 116.867 141.834 116.867 142.666C116.867 143.368 117.205 143.732 118.531 144.044L120.767 144.616C123.341 145.24 124.667 146.176 124.667 148.464C124.667 151.012 122.197 152.364 119.259 152.364C116.529 152.364 114.007 151.09 113.591 148.048H116.425C116.685 149.556 117.517 149.92 119.259 149.92C120.949 149.92 121.833 149.478 121.833 148.542ZM126.739 137.362V134.528H129.625V137.362H126.739ZM126.739 152V139.312H129.625V152H126.739ZM137.68 151.896C134.3 151.896 131.674 149.296 131.674 145.396C131.674 141.548 134.3 138.974 137.68 138.974C139.37 138.974 140.748 139.598 141.71 140.716L141.892 139.312H144.44V151.428C144.336 154.756 141.84 157.044 138.174 157.044C134.794 157.044 132.688 155.354 131.986 152.936H135.028C135.522 154.158 136.276 154.652 138.304 154.652C140.436 154.652 141.554 153.638 141.554 151.87V150.336C140.592 151.35 139.266 151.896 137.68 151.896ZM134.534 145.396C134.534 148.308 135.652 149.348 138.096 149.348C140.566 149.348 141.684 148.308 141.684 145.396C141.684 142.536 140.566 141.496 138.096 141.496C135.652 141.496 134.534 142.536 134.534 145.396ZM150.119 152H147.285V134.528H150.119V140.664C151.029 139.598 152.355 138.974 154.045 138.974C157.035 138.974 158.933 141.184 158.933 144.382V152H156.073V144.33C156.073 142.302 155.241 141.496 153.109 141.496C151.003 141.496 150.119 142.302 150.119 144.33V152ZM160.593 139.312H162.517V136.088H165.403V139.312H168.445V141.834H165.403V148.542C165.403 149.374 165.715 149.556 166.573 149.556H168.445V152H166.261C164.259 152 162.517 151.116 162.517 148.802V141.834H160.593V139.312Z" fill="#FD312E"/>
<rect x="18" y="179" width="300" height="1" fill="#4A4946"/>
<circle cx="187" cy="180" r="10" fill="black"/>
<path d="M20.704 213.528L24.162 227.88L27.62 213.528H29.96L33.418 227.88L36.876 213.528H39.372L34.718 231H32.118L28.79 218.078L25.462 231H22.862L18.208 213.528H20.704ZM41.116 216.05V213.528H43.456V216.05H41.116ZM41.116 231V218.39H43.456V231H41.116ZM45.3851 218.39H47.3871V215.088H49.7271V218.39H52.8211V220.444H49.7271V227.958C49.7271 228.79 50.0391 228.972 50.8971 228.972H52.8211V231H50.6371C48.9211 231 47.3871 230.22 47.3871 228.192V220.444H45.3851V218.39ZM57.1966 231H54.8826V213.528H57.1966V219.924C58.0546 218.754 59.4326 218.052 61.2526 218.052C64.3726 218.052 66.2706 220.262 66.2706 223.538V231H63.9566V223.356C63.9566 221.068 62.9426 220.158 60.6286 220.158C58.2886 220.158 57.1966 221.068 57.1966 223.356V231ZM79.6129 231.312C76.2589 231.312 73.6329 228.608 73.6329 224.682C73.6329 220.782 76.2589 218.052 79.6129 218.052C81.3809 218.052 82.8109 218.754 83.7729 219.976V218.39H86.1129V231H84.1109L83.9029 229.232C82.9149 230.558 81.4589 231.312 79.6129 231.312ZM75.9729 224.682C75.9729 227.88 77.2989 229.206 79.9509 229.206C82.5769 229.206 83.9029 227.88 83.9029 224.682C83.9029 221.484 82.5769 220.158 79.9509 220.158C77.2989 220.158 75.9729 221.484 75.9729 224.682Z" fill="#262626"/>
<path d="M103.475 213.528H106.361V231H103.839L103.631 229.544C102.669 230.714 101.291 231.364 99.5748 231.364C96.1688 231.364 93.5428 228.634 93.5428 224.63C93.5428 220.678 96.1688 217.974 99.5748 217.974C101.187 217.974 102.513 218.546 103.475 219.586V213.528ZM96.4028 224.63C96.4028 227.646 97.4688 228.816 99.9908 228.816C102.539 228.816 103.605 227.646 103.605 224.63C103.605 221.666 102.539 220.496 99.9908 220.496C97.4688 220.496 96.4028 221.666 96.4028 224.63ZM120.982 227.308C120.124 229.856 117.758 231.364 114.95 231.364C111.284 231.364 108.45 228.686 108.45 224.63C108.45 220.626 111.284 217.974 114.872 217.974C118.07 217.974 121.216 220.184 121.216 224.682V225.488H111.336C111.544 228.01 112.636 228.816 114.95 228.816C116.718 228.816 117.576 228.4 118.096 227.308H120.982ZM111.388 223.356H118.382C118.148 221.302 117.108 220.496 114.872 220.496C112.766 220.496 111.674 221.224 111.388 223.356ZM130.76 227.542C130.76 226.658 130.214 226.294 128.914 225.982L126.756 225.488C124.234 224.89 122.934 223.85 122.934 221.666C122.934 219.404 125.3 217.974 128.108 217.974C130.916 217.974 133.152 219.404 133.516 221.978H130.682C130.5 220.808 129.72 220.392 128.108 220.392C126.522 220.392 125.794 220.834 125.794 221.666C125.794 222.368 126.132 222.732 127.458 223.044L129.694 223.616C132.268 224.24 133.594 225.176 133.594 227.464C133.594 230.012 131.124 231.364 128.186 231.364C125.456 231.364 122.934 230.09 122.518 227.048H125.352C125.612 228.556 126.444 228.92 128.186 228.92C129.876 228.92 130.76 228.478 130.76 227.542ZM135.666 216.362V213.528H138.552V216.362H135.666ZM135.666 231V218.312H138.552V231H135.666ZM146.607 230.896C143.227 230.896 140.601 228.296 140.601 224.396C140.601 220.548 143.227 217.974 146.607 217.974C148.297 217.974 149.675 218.598 150.637 219.716L150.819 218.312H153.367V230.428C153.263 233.756 150.767 236.044 147.101 236.044C143.721 236.044 141.615 234.354 140.913 231.936H143.955C144.449 233.158 145.203 233.652 147.231 233.652C149.363 233.652 150.481 232.638 150.481 230.87V229.336C149.519 230.35 148.193 230.896 146.607 230.896ZM143.461 224.396C143.461 227.308 144.579 228.348 147.023 228.348C149.493 228.348 150.611 227.308 150.611 224.396C150.611 221.536 149.493 220.496 147.023 220.496C144.579 220.496 143.461 221.536 143.461 224.396ZM164.87 223.33C164.87 221.302 164.038 220.496 161.984 220.496C159.93 220.496 159.046 221.302 159.046 223.33V231H156.212V218.312H158.682L158.89 219.872C159.8 218.676 161.152 217.974 162.894 217.974C165.832 217.974 167.73 220.184 167.73 223.382V231H164.87V223.33Z" fill="#FD312E"/>
<rect x="18" y="258" width="300" height="1" fill="#4A4946"/>
<circle cx="290" cy="259" r="10" fill="#F6F3EB"/>
<circle cx="290" cy="259" r="9.5" stroke="#7E7C77" stroke-opacity="0.5"/>
<path d="M0 307H335V604C335 609.523 330.523 614 325 614H9.99999C4.47714 614 0 609.523 0 604V307Z" fill="#E6E1D6"/>
<path d="M90.2015 433H87.4515V416.2H91.0765L95.8265 430.125L100.551 416.2H104.201V433H101.451V420.925L97.2015 433H94.4515L90.2015 420.725V433ZM109.686 428.175C109.686 430.125 110.511 430.9 112.461 430.9C114.436 430.9 115.286 430.125 115.286 428.175V420.8H118.036V433H115.636L115.436 431.55C114.561 432.675 113.261 433.35 111.586 433.35C108.786 433.35 106.961 431.225 106.961 428.125V420.8H109.686V428.175ZM120.16 426.875C120.16 423.075 122.86 420.475 126.36 420.475C129.185 420.475 131.485 422.125 132.06 425H129.41C129.06 423.45 128.01 422.9 126.36 422.9C124.01 422.9 122.91 424.05 122.91 426.875C122.91 429.725 124.01 430.875 126.36 430.875C128.01 430.875 129.06 430.3 129.41 428.775H132.06C131.485 431.65 129.185 433.3 126.36 433.3C122.86 433.3 120.16 430.7 120.16 426.875ZM136.947 433H134.222V416.2H136.947V422.1C137.822 421.075 139.097 420.475 140.722 420.475C143.597 420.475 145.422 422.6 145.422 425.675V433H142.672V425.625C142.672 423.675 141.872 422.9 139.822 422.9C137.797 422.9 136.947 423.675 136.947 425.625V433ZM152.423 420.8H154.273V417.7H157.048V420.8H159.973V423.225H157.048V429.675C157.048 430.475 157.348 430.65 158.173 430.65H159.973V433H157.873C155.948 433 154.273 432.15 154.273 429.925V423.225H152.423V420.8ZM166.936 433.35C163.436 433.35 160.736 430.75 160.736 426.875C160.736 423.075 163.436 420.475 166.936 420.475C170.461 420.475 173.161 423.075 173.161 426.875C173.161 430.75 170.461 433.35 166.936 433.35ZM163.486 426.875C163.486 429.75 164.586 430.9 166.936 430.9C169.286 430.9 170.411 429.75 170.411 426.875C170.411 424.05 169.286 422.9 166.936 422.9C164.586 422.9 163.486 424.05 163.486 426.875ZM182.365 433H179.39L185.715 416.2H188.79L195.09 433H192.14L190.69 428.925H183.815L182.365 433ZM184.715 426.425H189.79L187.265 419.375L184.715 426.425ZM205.142 416.2H207.917V433H205.492L205.292 431.6C204.367 432.725 203.042 433.35 201.392 433.35C198.117 433.35 195.592 430.725 195.592 426.875C195.592 423.075 198.117 420.475 201.392 420.475C202.942 420.475 204.217 421.025 205.142 422.025V416.2ZM198.342 426.875C198.342 429.775 199.367 430.9 201.792 430.9C204.242 430.9 205.267 429.775 205.267 426.875C205.267 424.025 204.242 422.9 201.792 422.9C199.367 422.9 198.342 424.025 198.342 426.875ZM216.275 433.35C212.775 433.35 210.075 430.75 210.075 426.875C210.075 423.075 212.775 420.475 216.275 420.475C219.8 420.475 222.5 423.075 222.5 426.875C222.5 430.75 219.8 433.35 216.275 433.35ZM212.825 426.875C212.825 429.75 213.925 430.9 216.275 430.9C218.625 430.9 219.75 429.75 219.75 426.875C219.75 424.05 218.625 422.9 216.275 422.9C213.925 422.9 212.825 424.05 212.825 426.875ZM230.375 422.875C228.225 422.875 227.375 423.575 227.375 425.625V433H224.65V420.8H227.025L227.225 422.325C228 421.15 229.175 420.475 231.05 420.475H231.6V422.875H230.375ZM243.89 429.45C243.065 431.9 240.79 433.35 238.09 433.35C234.565 433.35 231.84 430.775 231.84 426.875C231.84 423.025 234.565 420.475 238.015 420.475C241.09 420.475 244.115 422.6 244.115 426.925V427.7H234.615C234.815 430.125 235.865 430.9 238.09 430.9C239.79 430.9 240.615 430.5 241.115 429.45H243.89ZM234.665 425.65H241.39C241.165 423.675 240.165 422.9 238.015 422.9C235.99 422.9 234.94 423.6 234.665 425.65ZM246.417 433.35C245.217 433.35 244.892 433.05 244.892 431.825C244.892 430.625 245.217 430.325 246.417 430.325C247.592 430.325 247.942 430.625 247.942 431.825C247.942 433.05 247.592 433.35 246.417 433.35ZM60.1716 467H57.3966V452.7H52.4466V450.2H65.1466V452.7H60.1716V467ZM69.7517 467H67.0267V450.2H69.7517V456.1C70.6267 455.075 71.9017 454.475 73.5267 454.475C76.4017 454.475 78.2267 456.6 78.2267 459.675V467H75.4767V459.625C75.4767 457.675 74.6767 456.9 72.6267 456.9C70.6017 456.9 69.7517 457.675 69.7517 459.625V467ZM92.2729 463.45C91.448 465.9 89.1729 467.35 86.4729 467.35C82.9479 467.35 80.2229 464.775 80.2229 460.875C80.2229 457.025 82.9479 454.475 86.3979 454.475C89.4729 454.475 92.4979 456.6 92.4979 460.925V461.7H82.9979C83.1979 464.125 84.2479 464.9 86.4729 464.9C88.1729 464.9 88.9979 464.5 89.4979 463.45H92.2729ZM83.0479 459.65H89.7729C89.5479 457.675 88.5479 456.9 86.3979 456.9C84.3729 456.9 83.3229 457.6 83.0479 459.65ZM102.731 467H99.9056V450.2H110.781V452.7H102.731V457.35H110.031V459.825H102.731V467ZM118.649 456.875C116.499 456.875 115.649 457.575 115.649 459.625V467H112.924V454.8H115.299L115.499 456.325C116.274 455.15 117.449 454.475 119.324 454.475H119.874V456.875H118.649ZM121.866 452.925V450.2H124.641V452.925H121.866ZM121.866 467V454.8H124.641V467H121.866ZM136.311 450.2H139.086V467H136.661L136.461 465.6C135.536 466.725 134.211 467.35 132.561 467.35C129.286 467.35 126.761 464.725 126.761 460.875C126.761 457.075 129.286 454.475 132.561 454.475C134.111 454.475 135.386 455.025 136.311 456.025V450.2ZM129.511 460.875C129.511 463.775 130.536 464.9 132.961 464.9C135.411 464.9 136.436 463.775 136.436 460.875C136.436 458.025 135.411 456.9 132.961 456.9C130.536 456.9 129.511 458.025 129.511 460.875ZM147.019 466.9C143.769 466.9 141.244 464.4 141.244 460.65C141.244 456.95 143.769 454.475 147.019 454.475C148.644 454.475 149.969 455.075 150.894 456.15L151.069 454.8H153.519V466.45C153.419 469.65 151.019 471.85 147.494 471.85C144.244 471.85 142.219 470.225 141.544 467.9H144.469C144.944 469.075 145.669 469.55 147.619 469.55C149.669 469.55 150.744 468.575 150.744 466.875V465.4C149.819 466.375 148.544 466.9 147.019 466.9ZM143.994 460.65C143.994 463.45 145.069 464.45 147.419 464.45C149.794 464.45 150.869 463.45 150.869 460.65C150.869 457.9 149.794 456.9 147.419 456.9C145.069 456.9 143.994 457.9 143.994 460.65ZM167.705 463.45C166.88 465.9 164.605 467.35 161.905 467.35C158.38 467.35 155.655 464.775 155.655 460.875C155.655 457.025 158.38 454.475 161.83 454.475C164.905 454.475 167.93 456.6 167.93 460.925V461.7H158.43C158.63 464.125 159.68 464.9 161.905 464.9C163.605 464.9 164.43 464.5 164.93 463.45H167.705ZM158.48 459.65H165.205C164.98 457.675 163.98 456.9 161.83 456.9C159.805 456.9 158.755 457.6 158.48 459.65ZM183.262 454.8L185.387 464L187.362 454.8H190.062L186.987 467H184.087L182.112 458.725L180.137 467H177.262L174.162 454.8H176.862L178.862 464.025L180.987 454.8H183.262ZM191.798 452.925V450.2H194.573V452.925H191.798ZM191.798 467V454.8H194.573V467H191.798ZM196.444 454.8H198.294V451.7H201.069V454.8H203.994V457.225H201.069V463.675C201.069 464.475 201.369 464.65 202.194 464.65H203.994V467H201.894C199.969 467 198.294 466.15 198.294 463.925V457.225H196.444V454.8ZM208.719 467H205.994V450.2H208.719V456.1C209.594 455.075 210.869 454.475 212.494 454.475C215.369 454.475 217.194 456.6 217.194 459.675V467H214.444V459.625C214.444 457.675 213.644 456.9 211.594 456.9C209.569 456.9 208.719 457.675 208.719 459.625V467ZM227.946 467H225.196V450.2H228.821L233.571 464.125L238.296 450.2H241.946V467H239.196V454.925L234.946 467H232.196L227.946 454.725V467ZM250.28 467.35C246.78 467.35 244.08 464.75 244.08 460.875C244.08 457.075 246.78 454.475 250.28 454.475C253.805 454.475 256.505 457.075 256.505 460.875C256.505 464.75 253.805 467.35 250.28 467.35ZM246.83 460.875C246.83 463.75 247.93 464.9 250.28 464.9C252.63 464.9 253.755 463.75 253.755 460.875C253.755 458.05 252.63 456.9 250.28 456.9C247.93 456.9 246.83 458.05 246.83 460.875ZM264.38 456.875C262.23 456.875 261.38 457.575 261.38 459.625V467H258.655V454.8H261.03L261.23 456.325C262.005 455.15 263.18 454.475 265.055 454.475H265.605V456.875H264.38ZM277.895 463.45C277.07 465.9 274.795 467.35 272.095 467.35C268.57 467.35 265.845 464.775 265.845 460.875C265.845 457.025 268.57 454.475 272.02 454.475C275.095 454.475 278.12 456.6 278.12 460.925V461.7H268.62C268.82 464.125 269.87 464.9 272.095 464.9C273.795 464.9 274.62 464.5 275.12 463.45H277.895ZM268.67 459.65H275.395C275.17 457.675 274.17 456.9 272.02 456.9C269.995 456.9 268.945 457.6 268.67 459.65ZM280.422 467.35C279.222 467.35 278.897 467.05 278.897 465.825C278.897 464.625 279.222 464.325 280.422 464.325C281.597 464.325 281.947 464.625 281.947 465.825C281.947 467.05 281.597 467.35 280.422 467.35Z" fill="#262626"/>
<path d="M70.4944 568H68.6344V554.56H70.4944V568ZM79.6769 562.12C79.6769 560.36 78.8969 559.66 77.2169 559.66C75.5169 559.66 74.6769 560.36 74.6769 562.12V568H72.8969V558.3H74.4369L74.5969 559.62C75.2369 558.64 76.2969 558.04 77.6969 558.04C79.9969 558.04 81.4569 559.74 81.4569 562.26V568H79.6769V562.12ZM89.6609 565.42C89.6609 564.64 89.2609 564.3 88.0809 564.02L86.3609 563.58C84.4409 563.12 83.5009 562.36 83.5009 560.78C83.5009 559.12 85.2409 558.04 87.3609 558.04C89.4609 558.04 91.1009 559.14 91.3809 561H89.6009C89.4209 560 88.7209 559.6 87.3609 559.6C85.9409 559.6 85.2809 560 85.2809 560.78C85.2809 561.46 85.6209 561.76 86.7609 562.06L88.5209 562.5C90.5209 563.02 91.4409 563.72 91.4409 565.38C91.4409 567.18 89.6409 568.24 87.4209 568.24C85.3409 568.24 83.4809 567.3 83.1609 565.04H84.9409C85.1409 566.36 85.9209 566.7 87.4209 566.7C88.9009 566.7 89.6609 566.28 89.6609 565.42ZM92.4383 558.3H93.9783V555.76H95.7783V558.3H98.1583V559.88H95.7783V565.66C95.7783 566.3 96.0183 566.44 96.6783 566.44H98.1583V568H96.4783C95.1583 568 93.9783 567.4 93.9783 565.84V559.88H92.4383V558.3ZM103.473 568.24C100.893 568.24 98.8734 566.16 98.8734 563.14C98.8734 560.14 100.893 558.04 103.473 558.04C104.833 558.04 105.933 558.58 106.673 559.52V558.3H108.473V568H106.933L106.773 566.64C106.013 567.66 104.893 568.24 103.473 568.24ZM100.673 563.14C100.673 565.6 101.693 566.62 103.733 566.62C105.753 566.62 106.773 565.6 106.773 563.14C106.773 560.68 105.753 559.66 103.733 559.66C101.693 559.66 100.673 560.68 100.673 563.14ZM111.239 554.56L115.439 565.96L119.639 554.56H121.579L116.439 568H114.439L109.319 554.56H111.239ZM123.018 556.5V554.56H124.818V556.5H123.018ZM123.018 568V558.3H124.818V568H123.018ZM136.002 565.22C135.362 567.16 133.642 568.24 131.542 568.24C128.802 568.24 126.622 566.26 126.622 563.14C126.622 560.04 128.802 558.04 131.442 558.04C133.822 558.04 136.222 559.7 136.222 563.14V563.68H128.442C128.582 565.88 129.602 566.62 131.542 566.62C133.042 566.62 133.782 566.26 134.202 565.22H136.002ZM128.462 562.28H134.442C134.262 560.34 133.282 559.66 131.442 559.66C129.682 559.66 128.682 560.32 128.462 562.28ZM144.007 558.3L145.887 565.98L147.647 558.3H149.427L146.927 568H145.047L143.267 560.82L141.467 568H139.587L137.087 558.3H138.867L140.627 565.98L142.507 558.3H144.007ZM155.088 568V554.56H159.328C163.548 554.56 166.328 557.1 166.328 561.26C166.328 565.44 163.548 568 159.328 568H155.088ZM156.948 566.34H159.388C162.928 566.34 164.468 564.92 164.468 561.26C164.468 557.64 162.928 556.2 159.388 556.2H156.948V566.34ZM172.497 568.24C169.757 568.24 167.637 566.18 167.637 563.14C167.637 560.1 169.757 558.04 172.497 558.04C175.217 558.04 177.337 560.1 177.337 563.14C177.337 566.18 175.217 568.24 172.497 568.24ZM169.437 563.14C169.437 565.56 170.417 566.62 172.497 566.62C174.557 566.62 175.537 565.56 175.537 563.14C175.537 560.72 174.557 559.66 172.497 559.66C170.417 559.66 169.437 560.72 169.437 563.14ZM183.4 568.24C180.66 568.24 178.54 566.18 178.54 563.14C178.54 560.1 180.66 558.04 183.4 558.04C186.12 558.04 188.24 560.1 188.24 563.14C188.24 566.18 186.12 568.24 183.4 568.24ZM180.34 563.14C180.34 565.56 181.32 566.62 183.4 566.62C185.46 566.62 186.44 565.56 186.44 563.14C186.44 560.72 185.46 559.66 183.4 559.66C181.32 559.66 180.34 560.72 180.34 563.14ZM194.423 559.62C192.643 559.62 191.823 560.28 191.823 562.12V568H190.043V558.3H191.583L191.743 559.64C192.323 558.64 193.303 558.04 194.803 558.04H195.263V559.62H194.423ZM195.966 561.9H202.266V563.52H195.966V561.9ZM204.662 556.5V554.56H206.462V556.5H204.662ZM204.662 568V558.3H206.462V568H204.662ZM215.646 562.12C215.646 560.36 214.866 559.66 213.186 559.66C211.486 559.66 210.646 560.36 210.646 562.12V568H208.866V558.3H210.406L210.566 559.62C211.206 558.64 212.266 558.04 213.666 558.04C215.966 558.04 217.426 559.74 217.426 562.26V568H215.646V562.12ZM219.73 561.9H226.03V563.52H219.73V561.9ZM228.426 568V554.56H232.666C236.886 554.56 239.666 557.1 239.666 561.26C239.666 565.44 236.886 568 232.666 568H228.426ZM230.286 566.34H232.726C236.266 566.34 237.806 564.92 237.806 561.26C237.806 557.64 236.266 556.2 232.726 556.2H230.286V566.34ZM245.835 568.24C243.095 568.24 240.975 566.18 240.975 563.14C240.975 560.1 243.095 558.04 245.835 558.04C248.555 558.04 250.675 560.1 250.675 563.14C250.675 566.18 248.555 568.24 245.835 568.24ZM242.775 563.14C242.775 565.56 243.755 566.62 245.835 566.62C247.895 566.62 248.875 565.56 248.875 563.14C248.875 560.72 247.895 559.66 245.835 559.66C243.755 559.66 242.775 560.72 242.775 563.14ZM256.738 568.24C253.998 568.24 251.878 566.18 251.878 563.14C251.878 560.1 253.998 558.04 256.738 558.04C259.458 558.04 261.578 560.1 261.578 563.14C261.578 566.18 259.458 568.24 256.738 568.24ZM253.678 563.14C253.678 565.56 254.658 566.62 256.738 566.62C258.798 566.62 259.778 565.56 259.778 563.14C259.778 560.72 258.798 559.66 256.738 559.66C254.658 559.66 253.678 560.72 253.678 563.14ZM267.761 559.62C265.981 559.62 265.161 560.28 265.161 562.12V568H263.381V558.3H264.921L265.081 559.64C265.661 558.64 266.641 558.04 268.141 558.04H268.601V559.62H267.761Z" fill="#262626"/>
</svg>
